<svg width="191" height="179" viewBox="0 0 191 179" fill="none" xmlns="http://www.w3.org/2000/svg">
<g clip-path="url(#clip0)">
<path d="M166.459 157.009C137.967 183.128 102.544 183.068 66.4925 168.584C45.3967 160.12 23.0647 145.414 10.9463 126.485C-5.44802 101.214 0.266688 79.4782 12.912 52.2879C29.7116 16.1689 56.8869 -5.22379 96.8696 -0.820015C148.201 4.83621 180.584 42.0461 189.46 91.4774C193.939 116.385 184.515 140.444 166.459 157.009Z" fill="#FCECDB"/>
<path d="M113.953 107.174C113.953 107.174 100.639 104.507 98.4094 104.709C96.1802 104.911 88.4796 108.365 88.3985 109.012C88.3175 109.638 88.7025 110.143 90.04 110.204C91.3977 110.264 95.8155 109.577 95.5318 110.123C95.2683 110.668 82.5622 113.496 82.4812 116.062C82.4001 118.627 89.5333 123.213 95.4507 123.375C101.368 123.536 112.818 116.385 113.811 116.284C122.241 115.315 113.953 107.174 113.953 107.174Z" fill="#ED975D"/>
<path d="M186.704 77.6603C181.496 84.1245 177.16 89.1343 174.87 90.9524C173.046 92.4068 170.756 93.8815 168.121 95.3562C149.133 106.042 112.616 116.87 112.616 116.87C112.616 116.87 112.596 116.85 112.535 116.809C112.069 116.486 109.556 114.547 107.975 111.355C106.577 108.547 106.881 106.81 107.286 105.901C107.529 105.356 107.833 105.093 107.833 105.093C107.833 105.093 151.606 77.2158 155.091 74.3069C157.077 72.6505 164.271 55.9848 170.128 41.8442C170.938 43.0361 171.729 44.2279 172.499 45.44C178.659 55.1768 183.401 66.0246 186.704 77.6603Z" fill="#ED7D2B"/>
<path d="M187.008 127.031C186.724 127.819 186.44 128.586 186.136 129.354C184.718 132.97 182.995 136.465 181.029 139.798C179.854 141.778 178.577 143.717 177.22 145.595C174.16 149.817 170.674 153.736 166.783 157.292C166.803 157.009 166.824 156.706 166.844 156.423C166.885 155.979 166.905 155.534 166.945 155.09C167.006 154.1 167.087 153.151 167.148 152.201C167.168 151.838 167.209 151.474 167.229 151.11C167.391 148.767 167.553 146.545 167.695 144.464C167.736 143.858 167.776 143.272 167.817 142.707C167.837 142.545 167.837 142.363 167.857 142.202C167.878 141.858 167.898 141.535 167.938 141.192C167.959 140.889 167.979 140.606 167.999 140.303C167.999 140.262 167.999 140.242 167.999 140.222C168.019 139.919 168.04 139.636 168.06 139.333C168.1 138.848 168.121 138.364 168.161 137.879C168.181 137.576 168.202 137.293 168.222 137.01C168.263 136.566 168.283 136.142 168.323 135.717C168.323 135.616 168.344 135.515 168.344 135.414C168.364 135.212 168.364 135.01 168.384 134.808C168.384 134.707 168.404 134.606 168.404 134.505C168.404 134.485 168.404 134.485 168.404 134.465C168.425 134.081 168.465 133.717 168.485 133.354C168.485 133.334 168.485 133.313 168.485 133.293C168.506 133.031 168.526 132.768 168.546 132.526C168.546 132.445 168.567 132.364 168.567 132.283C168.587 132.142 168.587 132 168.587 131.859C168.587 131.738 168.607 131.637 168.607 131.516C168.668 130.728 168.708 130.021 168.749 129.394C168.749 129.293 168.769 129.213 168.769 129.132C168.769 129.031 168.789 128.95 168.789 128.869C168.81 128.708 168.81 128.546 168.83 128.384C168.911 127.253 168.972 126.425 168.992 125.96C168.992 125.92 168.992 125.859 169.012 125.819C169.012 125.799 169.012 125.799 169.012 125.779C169.012 125.738 169.012 125.698 169.012 125.657C169.033 125.516 169.033 125.455 169.033 125.455L187.008 127.031Z" fill="#6BB7BF"/>
<path d="M187.008 127.031C186.724 127.819 186.44 128.586 186.136 129.354C184.718 132.97 182.995 136.465 181.029 139.798C179.854 141.778 178.577 143.717 177.22 145.595C174.16 149.817 170.674 153.736 166.783 157.292C166.803 157.009 166.824 156.706 166.844 156.423C166.885 155.979 166.905 155.534 166.945 155.09C167.006 154.1 167.087 153.151 167.148 152.201C167.168 151.838 167.209 151.474 167.229 151.11C167.391 148.767 167.553 146.545 167.695 144.464C167.736 143.858 167.776 143.272 167.817 142.707C167.837 142.545 167.837 142.363 167.857 142.202C167.878 141.858 167.898 141.535 167.938 141.192C167.959 140.889 167.979 140.606 167.999 140.303C167.999 140.262 167.999 140.242 167.999 140.222C168.019 139.919 168.04 139.636 168.06 139.333C168.1 138.848 168.121 138.364 168.161 137.879C168.181 137.576 168.202 137.293 168.222 137.01C168.263 136.566 168.283 136.142 168.323 135.717C168.323 135.616 168.344 135.515 168.344 135.414C168.364 135.212 168.364 135.01 168.384 134.808C168.384 134.707 168.404 134.606 168.404 134.505C168.404 134.485 168.404 134.485 168.404 134.465C168.425 134.081 168.465 133.717 168.485 133.354C168.485 133.334 168.485 133.313 168.485 133.293C168.506 133.031 168.526 132.768 168.546 132.526C168.546 132.445 168.567 132.364 168.567 132.283C168.587 132.142 168.587 132 168.587 131.859C168.587 131.738 168.607 131.637 168.607 131.516C168.668 130.728 168.708 130.021 168.749 129.394C168.749 129.293 168.769 129.213 168.769 129.132C168.769 129.031 168.789 128.95 168.789 128.869C168.81 128.708 168.81 128.546 168.83 128.384C168.911 127.253 168.972 126.425 168.992 125.96C168.992 125.92 168.992 125.859 169.012 125.819C169.012 125.799 169.012 125.799 169.012 125.779C169.012 125.738 169.012 125.698 169.012 125.657C169.033 125.516 169.033 125.455 169.033 125.455L187.008 127.031Z" fill="#599DAD"/>
<path d="M189.885 91.4978C192.115 103.881 190.899 115.981 186.988 127.031C186.704 127.819 186.42 128.587 186.116 129.354C184.698 132.97 182.975 136.465 181.009 139.798C179.834 141.778 178.557 143.717 177.2 145.596C173.288 145.03 170.127 144.565 168.161 144.525C167.999 144.525 167.837 144.505 167.675 144.464C167.229 144.363 166.844 144.141 166.52 143.838C166.135 143.495 166.5 125.536 167.695 102.911C167.736 102.043 167.756 101.073 167.878 100.204V99.8812C167.959 98.3863 168.02 96.8712 168.121 95.3562C168.161 94.4875 168.222 93.5987 168.283 92.7099C168.648 86.6698 169.114 80.5086 169.6 74.3473C169.641 73.7615 169.702 73.1757 169.742 72.5697C170.532 63.0955 171.444 53.7829 172.518 45.44C178.659 55.1566 183.401 66.0044 186.704 77.6603C187.981 82.1651 189.034 86.791 189.885 91.4978Z" fill="#F99746"/>
<path d="M26.4892 124.93C26.2663 118.587 25.942 111.052 25.5164 102.891C25.4759 102.022 25.4354 101.053 25.3341 100.184L25.3138 99.8609C25.2733 99.1336 25.253 98.4064 25.2125 97.6792C25.1922 97.2752 25.1719 96.851 25.1517 96.4469C25.0909 95.2147 25.0098 93.9622 24.9288 92.6896C24.564 86.6496 24.0979 80.4883 23.6115 74.3271C23.5507 73.7412 23.5102 73.1554 23.4697 72.5494C22.7402 63.762 21.9093 55.1363 20.9366 47.2782C20.9366 47.2378 20.9163 47.1974 20.9163 47.1368C20.7947 46.147 20.6731 45.1773 20.5313 44.2077C20.2678 42.2684 20.0044 40.3897 19.7207 38.5717C19.3356 39.1979 18.9709 39.8241 18.6061 40.4503C16.4378 44.1471 14.4113 48.0256 12.5266 52.086C8.69655 60.3279 5.43389 69.2567 2.71839 78.6298C2.69813 78.6904 2.67786 78.751 2.6576 78.8116C1.76594 81.8822 1.15799 84.9123 0.793223 87.8818C0.732428 88.306 0.691898 88.7302 0.651368 89.1545C-0.625323 102.709 3.22502 115.355 10.5609 126.647C10.8041 127.031 11.0675 127.435 11.331 127.819C11.8376 128.586 12.3848 129.354 12.9319 130.101C13.317 130.627 13.7223 131.172 14.1276 131.697C14.2086 131.819 14.2897 131.92 14.391 132.021C17.1876 135.636 20.3489 139.091 23.7939 142.363C24.3613 142.889 24.9085 143.414 25.4962 143.939C25.638 144.06 25.7799 144.202 25.9217 144.323C26.2055 144.202 26.4689 144.04 26.6918 143.818C26.935 143.616 26.8742 136.182 26.4892 124.93Z" fill="#2A4E96"/>
<path d="M26.4891 124.93C16.2756 114.264 7.76435 101.174 0.813477 87.9424C1.17825 84.9527 1.78619 81.9226 2.67785 78.8722C2.69811 78.8116 2.71838 78.751 2.73864 78.6904C5.45414 69.2971 8.7168 60.3885 12.5469 52.1466C18.8087 61.0754 23.2062 69.2971 23.4697 72.61C23.5102 73.1958 23.571 73.7817 23.6115 74.3877C24.0979 80.5489 24.564 86.7102 24.9287 92.7502C25.0098 94.0026 25.0706 95.2551 25.1517 96.5075C25.1719 96.9116 25.1922 97.3358 25.2124 97.7398C25.253 98.467 25.2935 99.1942 25.3138 99.9215L25.334 100.245C25.4354 101.113 25.4759 102.063 25.5164 102.952C25.942 111.052 26.2662 118.607 26.4891 124.93Z" fill="#1E3D70"/>
<path d="M72.8347 107.961C72.8347 107.961 86.4122 107.982 88.5603 108.628C90.7083 109.274 97.5579 114.183 97.5174 114.809C97.4768 115.456 97.0107 115.86 95.6732 115.658C94.3358 115.456 90.1409 113.9 90.303 114.486C90.4652 115.072 102.34 120.365 101.915 122.89C101.469 125.415 93.586 128.506 87.7497 127.496C81.9134 126.486 72.1254 117.213 71.1729 116.91C63.1075 114.304 72.8347 107.961 72.8347 107.961Z" fill="#FFB27D"/>
<path d="M75.3075 112.587C74.0713 114.708 72.4299 116.183 71.3761 117.011C70.7276 117.516 70.3021 117.759 70.3021 117.759C70.3021 117.759 44.1603 108.002 25.2126 97.6994C18.9507 94.2854 13.4792 90.8311 9.99362 87.6192C8.41295 86.1849 5.85957 82.9528 2.73877 78.6702C5.45427 69.2769 8.71693 60.3683 12.547 52.1264C14.4316 48.0862 16.4581 44.1875 18.6265 40.4907C19.3763 42.733 20.1666 45.0359 20.9367 47.2984C25.091 59.3785 29.3466 70.9333 30.8665 72.3878C34.1494 75.5189 75.8952 106.345 75.8952 106.345C75.8952 106.345 76.4423 106.871 76.5842 107.982C76.7058 109.012 76.5031 110.527 75.3075 112.587Z" fill="#2A4E96"/>
<path d="M126.699 16.8356H55.4277V81.2761H126.699V16.8356Z" fill="#DDEBFD"/>
<path d="M126.699 12.9772H55.4277V16.8355H126.699V12.9772Z" fill="#739AF0"/>
<path d="M57.8189 14.1287C57.3933 14.1287 57.0488 14.4721 57.0488 14.8963C57.0488 15.3205 57.3933 15.6639 57.8189 15.6639C58.2445 15.6639 58.589 15.3205 58.589 14.8963C58.6092 14.4721 58.2647 14.1287 57.8189 14.1287Z" fill="#DDEBFD"/>
<path d="M60.8584 14.1287C60.4329 14.1287 60.0884 14.4721 60.0884 14.8963C60.0884 15.3205 60.4329 15.6639 60.8584 15.6639C61.284 15.6639 61.6285 15.3205 61.6285 14.8963C61.6488 14.4721 61.284 14.1287 60.8584 14.1287Z" fill="#DDEBFD"/>
<path d="M63.9185 14.1287C63.4929 14.1287 63.1484 14.4721 63.1484 14.8963C63.1484 15.3205 63.4929 15.6639 63.9185 15.6639C64.3441 15.6639 64.6886 15.3205 64.6886 14.8963C64.7088 14.4721 64.3441 14.1287 63.9185 14.1287Z" fill="#DDEBFD"/>
<path d="M76.8477 25.239H104.084C104.793 25.239 105.381 24.6532 105.381 23.9462C105.381 23.2391 104.793 22.6533 104.084 22.6533H76.8477C76.1385 22.6533 75.5508 23.2391 75.5508 23.9462C75.5508 24.6532 76.1385 25.239 76.8477 25.239Z" fill="#A8C3F7"/>
<path d="M70.6261 29.663H110.264C110.974 29.663 111.561 29.0772 111.561 28.3701C111.561 27.6631 110.974 27.0773 110.264 27.0773H70.6261C69.9168 27.0773 69.3291 27.6631 69.3291 28.3701C69.3291 29.0772 69.9168 29.663 70.6261 29.663Z" fill="#A8C3F7"/>
<path d="M67.2825 41.2987H115.067C115.594 41.2987 116.02 40.8744 116.02 40.3492C116.02 39.824 115.594 39.3998 115.067 39.3998H67.2825C66.7556 39.3998 66.3301 39.824 66.3301 40.3492C66.3301 40.8744 66.7556 41.2987 67.2825 41.2987Z" fill="#A8C3F7"/>
<path d="M115.067 43.7631H67.2825C66.7556 43.7631 66.3301 44.1873 66.3301 44.7126C66.3301 45.2378 66.7556 45.662 67.2825 45.662H115.067C115.594 45.662 116.02 45.2378 116.02 44.7126C115.999 44.1873 115.574 43.7631 115.067 43.7631Z" fill="#A8C3F7"/>
<path d="M115.067 48.1265H67.2825C66.7556 48.1265 66.3301 48.5507 66.3301 49.076C66.3301 49.6012 66.7556 50.0254 67.2825 50.0254H115.067C115.594 50.0254 116.02 49.6012 116.02 49.076C115.999 48.5507 115.574 48.1265 115.067 48.1265Z" fill="#A8C3F7"/>
<path d="M72.0853 63.9639H67.2825C66.7556 63.9639 66.3301 64.3881 66.3301 64.9134C66.3301 65.4386 66.7556 65.8628 67.2825 65.8628H72.0853C72.6122 65.8628 73.0378 65.4386 73.0378 64.9134C73.0378 64.3881 72.6122 63.9639 72.0853 63.9639Z" fill="#A8C3F7"/>
<path d="M80.0902 63.9639H75.2874C74.7605 63.9639 74.335 64.3881 74.335 64.9134C74.335 65.4386 74.7605 65.8628 75.2874 65.8628H80.0902C80.6171 65.8628 81.0427 65.4386 81.0427 64.9134C81.0427 64.3881 80.6171 63.9639 80.0902 63.9639Z" fill="#A8C3F7"/>
<path d="M107.042 63.9639H102.24C101.713 63.9639 101.287 64.3881 101.287 64.9134C101.287 65.4386 101.713 65.8628 102.24 65.8628H107.042C107.569 65.8628 107.995 65.4386 107.995 64.9134C107.995 64.3881 107.569 63.9639 107.042 63.9639Z" fill="#A8C3F7"/>
<path d="M115.068 63.9639H110.265C109.738 63.9639 109.312 64.3881 109.312 64.9134C109.312 65.4386 109.738 65.8628 110.265 65.8628H115.068C115.595 65.8628 116.02 65.4386 116.02 64.9134C116 64.3881 115.574 63.9639 115.068 63.9639Z" fill="#A8C3F7"/>
<path d="M73.4024 67.0143C70.6261 67.0143 68.3564 69.2768 68.3564 72.0443C68.3564 74.8118 70.6261 77.0743 73.4024 77.0743C76.1787 77.0743 78.4484 74.8118 78.4484 72.0443C78.4686 69.2768 76.199 67.0143 73.4024 67.0143ZM73.4024 76.8319C70.7477 76.8319 68.5996 74.6906 68.5996 72.0443C68.5996 69.398 70.7477 67.2567 73.4024 67.2567C76.0571 67.2567 78.2052 69.398 78.2052 72.0443C78.2052 74.6906 76.0571 76.8319 73.4024 76.8319Z" fill="#A8C3F7"/>
<path d="M73.4033 67.9839C71.1539 67.9839 69.3301 69.802 69.3301 72.0443C69.3301 74.2866 71.1539 76.1047 73.4033 76.1047C75.6527 76.1047 77.4766 74.2866 77.4766 72.0443C77.4766 69.802 75.6527 67.9839 73.4033 67.9839ZM73.4033 75.8421C71.2958 75.8421 69.5935 74.1452 69.5935 72.0443C69.5935 69.9434 71.316 68.2466 73.4033 68.2466C75.5109 68.2466 77.2131 69.9434 77.2131 72.0443C77.2334 74.1452 75.5109 75.8421 73.4033 75.8421Z" fill="#A8C3F7"/>
<path d="M72.0243 73.7008C71.4771 73.6604 71.1934 73.3978 71.1934 72.9534C71.1934 72.61 71.315 72.3069 71.5785 72.0443C71.6798 72.5695 71.9635 73.014 72.2675 73.115C72.4499 73.1756 72.612 73.115 72.7336 72.9534C72.8551 72.7918 72.997 72.5897 73.0983 72.3473C73.1591 72.4079 73.2199 72.4281 73.301 72.4281C73.4834 72.4281 73.686 72.2867 73.8481 72.0039C73.8887 71.9231 73.9292 71.8423 73.9697 71.7615C73.99 71.7817 73.99 71.7817 74.0103 71.8019C74.0305 71.8221 74.1116 71.8423 74.1926 71.7817C74.2737 71.7009 74.3953 71.5191 74.4966 71.3171C74.5169 71.3575 74.5371 71.3979 74.5777 71.4181C74.6182 71.4383 74.6993 71.4585 74.8006 71.3777C74.8614 71.3171 74.8614 71.2767 74.8411 71.2363C74.8209 71.1757 74.7195 71.1555 74.5979 71.1353C74.7398 70.8121 74.8411 70.4687 74.7803 70.3475C74.7601 70.2869 74.7195 70.2667 74.6587 70.2667C74.5574 70.2667 74.4966 70.3677 74.4561 70.5495C74.4155 70.6909 74.4156 70.9131 74.4358 71.0949C74.3345 71.0949 74.2332 71.0949 74.1116 71.0949C74.1116 71.0141 74.0913 70.9535 74.071 70.8929C74.0305 70.8121 73.9697 70.8121 73.9495 70.8323C73.8684 70.8525 73.8481 70.9333 73.8481 71.0141C73.8481 71.0343 73.8481 71.0747 73.8481 71.1151C73.5239 71.1353 73.1389 71.1959 72.8146 71.2969C72.3688 71.4181 72.004 71.5797 71.7203 71.7817C71.7203 71.6201 71.7203 71.4181 71.8419 71.3575C71.9838 71.2767 72.2067 71.3777 72.2877 71.4181L72.3688 71.2767C72.3485 71.2767 72.004 71.0545 71.7608 71.2161C71.619 71.3171 71.5379 71.4989 71.5785 71.8019C71.5785 71.8221 71.5785 71.8625 71.5785 71.8827C71.234 72.1857 71.0516 72.5493 71.0718 72.9736C71.0921 73.4988 71.4366 73.822 72.0446 73.8826C72.4499 73.923 72.9565 73.822 73.5036 73.6604C74.679 73.2766 75.7733 72.4685 75.9962 71.7413C75.6314 72.6302 73.3415 73.822 72.0243 73.7008ZM74.6385 70.4485C74.6385 70.4889 74.6182 70.5495 74.5979 70.6101C74.6182 70.5293 74.6385 70.4889 74.6385 70.4485ZM74.1116 71.2161C74.2129 71.2161 74.294 71.2161 74.3548 71.2161C74.2534 71.3979 74.1521 71.5595 74.071 71.6403C74.071 71.6403 74.0508 71.6201 74.0305 71.5595C74.0711 71.4383 74.1116 71.3171 74.1116 71.2161ZM73.2604 71.2969C73.4631 71.2565 73.6455 71.2363 73.8279 71.2161C73.8279 71.3171 73.8481 71.4383 73.8684 71.5393C73.8279 71.6605 73.7671 71.7817 73.7063 71.9029C73.5847 72.1251 73.4226 72.2665 73.301 72.2463C73.2402 72.2463 73.1997 72.2059 73.1591 72.1453C73.301 71.8423 73.3618 71.4989 73.2604 71.2969ZM73.0983 71.3575C73.1794 71.4585 73.1591 71.6807 73.0781 71.9433C73.0375 71.7009 73.0578 71.4383 73.0983 71.3575ZM72.1864 71.6403C72.4296 71.5191 72.6728 71.4383 72.9362 71.3777C72.8957 71.5595 72.8957 71.8019 72.9362 71.9837C72.9565 72.0645 72.9767 72.1251 72.997 72.1857C72.8957 72.4079 72.7741 72.6504 72.612 72.8322C72.5309 72.9534 72.4093 72.9736 72.308 72.9534C72.0648 72.8726 71.8014 72.4685 71.7001 71.9231C71.8419 71.8221 72.004 71.7211 72.1864 71.6403Z" fill="#A8C3F7"/>
<path d="M75.9561 71.7211C75.9763 71.6807 75.9763 71.6605 75.9763 71.6201C75.9763 71.6605 75.9561 71.6807 75.9561 71.7211Z" fill="#A8C3F7"/>
<path d="M108.521 67.1356C105.664 67.1356 103.354 69.4587 103.354 72.2868C103.354 75.1351 105.684 77.438 108.521 77.438C111.378 77.438 113.689 75.1149 113.689 72.2868C113.689 69.4587 111.378 67.1356 108.521 67.1356ZM108.521 77.1956C105.806 77.1956 103.597 74.9937 103.597 72.2868C103.597 69.5799 105.806 67.378 108.521 67.378C111.237 67.378 113.445 69.5799 113.445 72.2868C113.425 75.0139 111.216 77.1956 108.521 77.1956Z" fill="#A8C3F7"/>
<path d="M108.521 68.1456C106.231 68.1456 104.347 70.0041 104.347 72.307C104.347 74.5897 106.211 76.4684 108.521 76.4684C110.811 76.4684 112.696 74.6099 112.696 72.307C112.696 70.0041 110.811 68.1456 108.521 68.1456ZM108.521 76.2057C106.373 76.2057 104.61 74.4483 104.61 72.307C104.61 70.1657 106.373 68.4082 108.521 68.4082C110.669 68.4082 112.432 70.1657 112.432 72.307C112.432 74.4483 110.669 76.2057 108.521 76.2057Z" fill="#A8C3F7"/>
<path d="M111.115 71.9636C111.136 71.9232 111.135 71.903 111.135 71.8625C111.135 71.903 111.136 71.9232 111.115 71.9636Z" fill="#A8C3F7"/>
<path d="M107.102 74.0038C106.555 73.9634 106.251 73.7008 106.251 73.2362C106.251 72.8726 106.372 72.5696 106.636 72.307C106.737 72.8524 107.021 73.2968 107.345 73.3978C107.527 73.4584 107.69 73.3978 107.831 73.2362C107.973 73.0746 108.095 72.8524 108.196 72.6302C108.257 72.6908 108.318 72.711 108.399 72.7312C108.601 72.7312 108.784 72.5898 108.946 72.2868C108.987 72.206 109.027 72.1252 109.068 72.0241C109.088 72.0443 109.088 72.0444 109.108 72.0646C109.128 72.0848 109.209 72.105 109.29 72.0444C109.392 71.9635 109.493 71.7817 109.615 71.5595C109.635 71.5999 109.676 71.6403 109.696 71.6605C109.736 71.6807 109.817 71.7009 109.939 71.5999C110 71.5393 110 71.4787 109.979 71.4383C109.959 71.3777 109.858 71.3575 109.716 71.3171C109.858 70.9939 109.959 70.6505 109.898 70.5091C109.878 70.4485 109.817 70.4283 109.777 70.4283C109.676 70.4283 109.615 70.5293 109.574 70.7111C109.534 70.8525 109.534 71.0747 109.554 71.2767C109.453 71.2767 109.351 71.2767 109.23 71.2767C109.23 71.1959 109.209 71.1353 109.189 71.0747C109.149 70.9939 109.088 70.9939 109.068 71.0141C108.987 71.0343 108.966 71.1151 108.946 71.1959C108.946 71.2161 108.946 71.2565 108.946 71.2969C108.601 71.3171 108.216 71.3777 107.892 71.4787C107.426 71.5999 107.061 71.7817 106.757 71.9838C106.737 71.8221 106.757 71.6201 106.879 71.5393C107.021 71.4585 107.264 71.5595 107.345 71.5999L107.426 71.4585C107.406 71.4585 107.041 71.2363 106.798 71.3979C106.636 71.4989 106.575 71.7009 106.595 72.0039C106.595 72.0241 106.595 72.0646 106.595 72.0848C106.23 72.3878 106.068 72.7716 106.068 73.216C106.089 73.7614 106.433 74.1048 107.082 74.1452C107.507 74.1856 108.034 74.0846 108.561 73.923C109.757 73.5392 110.891 72.711 111.114 71.9433C110.79 72.913 108.46 74.125 107.102 74.0038ZM109.777 70.6505C109.777 70.6909 109.757 70.7515 109.736 70.8121C109.757 70.7515 109.777 70.6909 109.777 70.6505ZM109.23 71.4585C109.331 71.4585 109.412 71.4585 109.493 71.4585C109.392 71.6605 109.29 71.8221 109.209 71.9029C109.209 71.9029 109.189 71.8827 109.169 71.8019C109.189 71.6807 109.23 71.5595 109.23 71.4585ZM108.358 71.5393C108.561 71.4989 108.764 71.4787 108.946 71.4585C108.946 71.5595 108.966 71.6807 108.987 71.7817C108.946 71.9029 108.885 72.0444 108.824 72.1656C108.683 72.408 108.541 72.5292 108.419 72.5292C108.358 72.5292 108.318 72.4888 108.277 72.4282C108.419 72.105 108.48 71.7413 108.358 71.5393ZM108.196 71.5999C108.277 71.7009 108.257 71.9433 108.176 72.206C108.135 71.9635 108.156 71.6807 108.196 71.5999ZM107.264 71.8827C107.507 71.7615 107.771 71.6807 108.034 71.6201C107.994 71.8019 107.994 72.0444 108.034 72.2464C108.054 72.3272 108.075 72.3878 108.095 72.4484C107.994 72.6908 107.852 72.913 107.71 73.115C107.609 73.2362 107.507 73.2766 107.406 73.2362C107.163 73.1554 106.879 72.7514 106.798 72.1656C106.919 72.0646 107.082 71.9635 107.264 71.8827Z" fill="#A8C3F7"/>
<path d="M132.98 131.617L126.779 139.959L126.171 140.788L125.867 141.192L125.097 142.222L124.692 142.788L123.922 143.818L123.111 144.909L122.362 145.919L122.341 145.939L121.632 146.888V146.908L121.531 147.05L121.51 147.07L121.369 147.252L120.599 148.201V148.282L119.889 149.252L118.977 150.484L118.288 151.413L117.518 152.444L116.242 154.161L116.12 154.322L115.694 154.908L114.681 156.261L113.344 157.979V158.059L112.655 158.989L112.574 159.09L111.621 160.382L110.73 161.594V161.615L108.521 164.604L105.217 169.049L99.6851 176.482L98.9961 177.412L98.5908 177.957C98.7935 177.997 99.0164 178.018 99.219 178.038C99.9486 178.139 100.678 178.22 101.408 178.301C101.61 178.321 101.813 178.341 102.016 178.361C102.137 178.381 102.279 178.381 102.401 178.402C102.705 178.442 103.029 178.462 103.333 178.482C103.454 178.503 103.596 178.503 103.718 178.523C103.779 178.523 103.839 178.543 103.9 178.543C104.103 178.563 104.306 178.583 104.508 178.583C104.549 178.583 104.589 178.583 104.63 178.583C105.076 178.624 105.542 178.644 105.988 178.664C106.19 178.684 106.393 178.684 106.595 178.705C106.758 178.725 106.92 178.725 107.082 178.725C107.122 178.725 107.143 178.725 107.183 178.725C107.447 178.745 107.71 178.745 107.973 178.765C108.176 178.765 108.379 178.785 108.581 178.785C108.804 178.785 109.048 178.806 109.27 178.806C109.473 178.806 109.676 178.806 109.878 178.826C110.101 178.826 110.304 178.826 110.527 178.826C110.73 178.826 110.932 178.826 111.135 178.826C111.256 178.826 111.358 178.826 111.479 178.826C111.601 178.826 111.723 178.826 111.844 178.826C111.925 178.826 112.006 178.826 112.087 178.826C112.168 178.826 112.249 178.826 112.33 178.826C112.452 178.826 112.553 178.826 112.675 178.826C112.695 178.826 112.736 178.826 112.756 178.826C112.817 178.826 112.878 178.826 112.938 178.826C113.019 178.826 113.101 178.826 113.182 178.826C114.783 178.785 116.363 178.705 117.944 178.563C119.747 178.422 121.551 178.2 123.314 177.937C125.239 177.654 127.124 177.311 128.988 176.886C129.029 176.886 129.049 176.866 129.09 176.866V176.886L130.853 176.462C131.096 176.402 131.339 176.341 131.582 176.28C133.892 175.695 136.162 175.028 138.371 174.24C138.736 174.119 139.121 173.978 139.485 173.856C139.587 173.816 139.668 173.796 139.769 173.755C140.458 173.513 141.147 173.25 141.816 172.968C141.998 172.887 142.181 172.826 142.363 172.745C142.404 172.725 142.444 172.725 142.485 172.705C142.708 172.624 142.91 172.523 143.133 172.442C143.295 172.382 143.457 172.301 143.62 172.24C143.802 172.159 144.005 172.079 144.187 171.998C144.309 171.937 144.43 171.897 144.552 171.836C144.754 171.735 144.977 171.654 145.18 171.553C147.247 170.624 149.253 169.614 151.219 168.544C151.422 168.422 151.624 168.321 151.847 168.2L162.648 153.676L132.98 131.617Z" fill="#A8D29F"/>
<path d="M116.647 161.534V162.403L117.275 161.554V161.534H116.647V161.534ZM115.471 162.685C115.228 162.786 115.026 162.887 114.823 163.009L113.445 164.867L112.391 166.281V168.14L113.648 166.463L116.647 162.423C116.262 162.423 115.877 162.504 115.471 162.685ZM110.385 168.968L110.223 169.17L109.615 169.978L106.899 173.634V175.493L108.825 172.907L110.365 170.846L111.175 169.756L111.783 168.948H110.385V168.968ZM133.325 138.101L126.86 146.787L126.8 146.868L126.415 147.393L125.908 148.06L125.644 148.403L124.449 150.019L123.942 150.605V150.686L123.638 151.13L123.192 151.716L121.409 154.12L121.369 154.161L121.287 154.282L120.72 155.049V155.13L119.018 157.332L118.369 158.221L118.268 158.362L116.444 160.807L115.897 161.534V161.554L114.823 162.988L113.445 164.847L112.391 166.261L111.621 167.291L110.365 168.968L110.203 169.17L109.595 169.978L106.879 173.634L106.109 174.664L104.812 176.402L103.312 178.402C103.434 178.422 103.576 178.422 103.698 178.442C103.758 178.442 103.819 178.462 103.88 178.462C104.083 178.482 104.285 178.503 104.488 178.503C104.528 178.503 104.569 178.503 104.609 178.503L106.17 176.381L106.839 175.493L108.764 172.907L110.304 170.846L111.114 169.756L111.722 168.948L112.351 168.099L113.607 166.422L116.606 162.382L117.235 161.534V161.514L118.207 160.281V160.221L118.977 159.191L119.585 158.362L120.68 156.908L121.45 155.878L122.321 154.726L122.645 154.282L122.767 154.12L123.172 153.595L123.942 152.565L124.753 151.474L125.563 150.383L125.644 150.282L126.415 149.252L127.002 148.464L127.286 148.1L127.995 147.151L128.056 147.07L128.218 146.868L131.156 142.909C132.494 141.111 135.047 140.727 136.831 142.06L151.867 153.171C153.853 154.645 154.279 157.433 152.799 159.413L143.721 171.614L143.194 172.341C143.356 172.281 143.518 172.2 143.68 172.139C143.863 172.059 144.065 171.978 144.248 171.897C144.369 171.836 144.491 171.796 144.612 171.735C144.815 171.634 145.038 171.553 145.241 171.452L157.035 155.595L133.325 138.101ZM110.385 168.968L110.223 169.17L109.615 169.978L106.899 173.634V175.493L108.825 172.907L110.365 170.846L111.175 169.756L111.783 168.948H110.385V168.968ZM115.471 162.685C115.228 162.786 115.026 162.887 114.823 163.009L113.445 164.867L112.391 166.281V168.14L113.648 166.463L116.647 162.423C116.262 162.423 115.877 162.504 115.471 162.685ZM116.647 161.534V162.403L117.275 161.554V161.534H116.647V161.534Z" fill="#82B378"/>
<path d="M129.15 176.786V176.765C129.109 176.765 129.089 176.786 129.048 176.786C127.184 177.19 125.279 177.553 123.374 177.836C121.611 178.099 119.808 178.301 118.004 178.462C116.423 178.604 114.843 178.684 113.242 178.725C113.161 178.725 113.08 178.725 112.999 178.725C112.938 178.725 112.877 178.725 112.816 178.725C112.796 178.725 112.755 178.725 112.735 178.725C112.715 178.503 112.715 178.26 112.715 178.038C112.715 177.493 112.776 176.947 112.877 176.422C113.12 175.109 113.667 173.856 114.518 172.705L114.539 172.685C114.944 172.139 115.41 171.654 115.896 171.23C116.14 171.028 116.403 170.826 116.667 170.644C117.396 170.139 118.186 169.756 118.997 169.473C119.24 169.392 119.504 169.311 119.767 169.251C120.355 169.109 120.963 169.028 121.591 169.008C121.854 168.988 122.098 169.008 122.361 169.008C122.928 169.028 123.496 169.109 124.063 169.251C124.327 169.311 124.57 169.392 124.833 169.473C125.117 169.574 125.421 169.675 125.705 169.816C125.968 169.937 126.211 170.059 126.475 170.2C126.758 170.362 127.022 170.523 127.285 170.705C127.326 170.745 127.387 170.766 127.427 170.806C127.63 170.947 127.832 171.109 128.015 171.271C128.035 171.271 128.035 171.291 128.055 171.291C128.197 171.412 128.339 171.553 128.481 171.675C128.765 171.958 129.008 172.22 129.251 172.523V172.543C129.352 172.665 129.454 172.806 129.555 172.947V172.968C129.839 173.372 130.102 173.816 130.325 174.281V174.301C130.426 174.523 130.507 174.725 130.588 174.947C130.771 175.412 130.892 175.897 130.994 176.381L129.15 176.786Z" fill="#82B378"/>
<path opacity="0.5" d="M121.389 147.211L120.619 148.161V148.222L119.91 149.191L118.998 150.423L118.309 151.353L117.539 152.383L116.262 154.1L116.141 154.262L115.715 154.847L114.702 156.201L113.364 157.918V157.979L112.675 158.908L112.594 159.009L111.642 160.302L110.75 161.514V161.534L108.541 164.524L105.238 168.968L99.7056 176.402L99.0166 177.331L98.6113 177.876C98.814 177.917 99.0369 177.937 99.2395 177.957C99.9691 178.058 100.699 178.139 101.428 178.22C101.631 178.24 101.833 178.26 102.036 178.28C102.158 178.301 102.3 178.301 102.421 178.321C102.725 178.361 103.049 178.381 103.353 178.402C103.475 178.422 103.617 178.422 103.738 178.442C103.799 178.442 103.86 178.462 103.921 178.462C104.123 178.482 104.326 178.503 104.529 178.503C104.569 178.503 104.61 178.503 104.65 178.503C105.096 178.543 105.562 178.563 106.008 178.583C106.211 178.604 106.413 178.604 106.616 178.624C106.778 178.644 106.94 178.644 107.102 178.644C107.143 178.644 107.163 178.644 107.204 178.644C107.366 177.897 107.548 177.149 107.751 176.381C108.055 175.23 108.42 174.058 108.825 172.907C109.129 172.018 109.453 171.109 109.798 170.22C109.939 169.857 110.081 169.513 110.223 169.17C110.243 169.109 110.284 169.028 110.304 168.968C110.73 167.917 111.176 166.887 111.621 165.877V165.816C111.865 165.251 112.128 164.766 112.391 164.221C112.817 163.312 113.243 162.423 113.688 161.554C113.688 161.554 113.688 161.554 113.688 161.534C114.276 160.362 114.864 159.211 115.451 158.12C115.533 157.979 115.614 157.878 115.674 157.756V157.696C115.938 157.211 116.181 156.746 116.444 156.282C116.809 155.595 117.174 154.928 117.539 154.302C117.579 154.241 117.6 154.181 117.64 154.12C117.863 153.716 118.086 153.393 118.289 153.029V152.969C118.795 152.06 119.282 151.231 119.687 150.484C119.93 150.04 120.173 149.615 120.376 149.252C120.457 149.11 120.538 148.969 120.599 148.828C120.943 148.222 121.186 147.716 121.369 147.353C121.43 147.232 121.47 147.131 121.511 147.03L121.389 147.211Z" fill="#82B378"/>
<path d="M130.51 170.604V174.806C130.51 174.846 130.51 174.887 130.51 174.927C130.49 175.21 130.388 175.472 130.226 175.695C130.044 175.957 129.78 176.179 129.456 176.301C129.375 176.321 129.314 176.361 129.233 176.361C129.213 176.361 129.193 176.381 129.152 176.381C129.112 176.381 129.051 176.402 129.01 176.402C128.97 176.402 128.909 176.402 128.868 176.402H128.402H126.416H124.795H124.045H122.343H121.573H119.749H118.979H116.649H115.879H112.879H111.907H111.137H107.732H106.111H104.814H99.6464H98.4102H97.5185H97.1538H95.0462H91.9659H90.4663C89.5949 176.22 88.7438 176.018 87.8724 175.816C87.6698 175.775 87.4671 175.715 87.2645 175.674C86.6971 175.533 86.1094 175.392 85.542 175.25C85.2988 175.19 85.0353 175.129 84.7719 175.048C84.3261 174.927 83.9005 174.826 83.4547 174.705C82.9886 174.584 82.5022 174.442 82.0361 174.321C81.8335 174.26 81.6308 174.2 81.4282 174.139C80.2528 173.816 79.0977 173.452 77.9223 173.089C77.8818 173.069 77.8413 173.069 77.7805 173.048C77.436 172.947 77.0712 172.826 76.7267 172.705C76.5241 172.644 76.3214 172.584 76.1188 172.503C72.8156 171.432 69.5529 170.24 66.3105 168.948H67.2427L84.7922 168.968H85.5622H90.284H91.3377H93.6479H96.5256H98.9979H99.2208H103.051H103.943H104.713H105.219H109.049H110.326H111.785H112.413H115.919H116.649H117.419H119.02H122.161H124.491H124.572H125.241H127.065H127.835H128.889H128.949C129.031 168.968 129.091 168.988 129.172 168.988C129.274 169.008 129.375 169.028 129.476 169.069C129.78 169.19 130.044 169.412 130.246 169.675C130.409 169.958 130.51 170.261 130.51 170.604Z" fill="#FFB93E"/>
<path d="M97.5576 176.402H97.1928H95.0853H92.005H91.235H90.5054C89.634 176.22 88.7829 176.018 87.9115 175.816C87.7089 175.775 87.5062 175.715 87.3036 175.674C86.7361 175.533 86.1485 175.392 85.581 175.25C85.3379 175.19 85.0744 175.129 84.811 175.048C84.3651 174.927 83.9396 174.826 83.4937 174.705C83.0277 174.584 82.5413 174.442 82.0752 174.321C81.8726 174.26 81.6699 174.2 81.4673 174.139C80.2919 173.816 79.1368 173.452 77.9614 173.089C77.9209 173.069 77.8804 173.069 77.8196 173.048C77.4751 172.947 77.1103 172.826 76.7658 172.705C76.5631 172.644 76.3605 172.584 76.1578 172.503C72.8547 171.432 69.592 170.24 66.3496 168.948H67.2818L84.8312 168.968H85.6013H90.323H91.3565H91.3768H93.1601C93.4033 170.018 93.7883 171.271 94.4571 172.523C95.0853 173.715 95.9162 174.927 97.0915 175.977C97.1523 176.038 97.2334 176.099 97.3144 176.179C97.3347 176.2 97.3347 176.2 97.355 176.22C97.4158 176.28 97.4968 176.341 97.5576 176.402Z" fill="#FFA412"/>
<path d="M122.343 168.988H121.573V176.422H122.343V168.988Z" fill="#FFA412"/>
<path d="M119.769 168.988H118.999V176.422H119.769V168.988Z" fill="#FFA412"/>
<path d="M116.672 168.968L115.902 168.967L115.895 176.401L116.665 176.402L116.672 168.968Z" fill="#FFA412"/>
<path d="M111.927 168.968H111.157V176.402H111.927V168.968Z" fill="#FFA412"/>
<path d="M106.922 168.968H106.152V176.402H106.922V168.968Z" fill="#FFA412"/>
<path d="M99.2212 168.968H98.4512V176.402H99.2212V168.968Z" fill="#FFA412"/>
<path d="M92.0279 168.968H91.2578V176.402H92.0279V168.968Z" fill="#FFA412"/>
<path d="M85.6031 168.948V175.23C85.3599 175.169 85.0964 175.109 84.833 175.028V168.948H85.6031Z" fill="#FFA412"/>
<path d="M124.815 168.988H124.045V176.422H124.815V168.988Z" fill="#FFA412"/>
<path d="M126.437 168.988H125.667V176.422H126.437V168.988Z" fill="#FFA412"/>
<path d="M128.002 168.988L127.231 168.988L127.224 176.422L127.994 176.422L128.002 168.988Z" fill="#FFA412"/>
<path d="M129.172 169.008V176.381C129.071 176.402 128.99 176.402 128.889 176.402H128.402V168.968H128.889C128.99 168.988 129.071 168.988 129.172 169.008Z" fill="#FFA412"/>
<path d="M130.226 169.695V175.695C130.044 175.957 129.78 176.179 129.456 176.301V169.089C129.78 169.21 130.044 169.432 130.226 169.695Z" fill="#FFA412"/>
<path d="M136.001 163.17V167.372C136.001 167.715 135.899 168.018 135.717 168.281C135.535 168.544 135.271 168.766 134.947 168.887C134.846 168.927 134.744 168.948 134.643 168.968C134.542 168.988 134.461 168.988 134.359 168.988L67.2823 168.948C66.4109 168.948 65.7017 168.261 65.6611 167.412C65.6611 167.392 65.6611 167.352 65.6611 167.332V163.13C65.6611 163.11 65.6611 163.069 65.6611 163.049C65.7017 162.261 66.3096 161.615 67.0999 161.534C67.1607 161.534 67.2215 161.514 67.2823 161.514L134.359 161.554C134.461 161.554 134.562 161.554 134.643 161.574C134.744 161.594 134.846 161.615 134.947 161.655C135.251 161.776 135.514 161.998 135.717 162.261C135.899 162.524 136.001 162.847 136.001 163.17Z" fill="#FFB93E"/>
<path d="M103.05 168.968L67.1205 168.948C66.3504 168.948 65.7222 168.261 65.6816 167.412C65.6816 167.392 65.6816 167.352 65.6816 167.332V163.13C65.6816 163.11 65.6816 163.069 65.6816 163.049C65.7222 162.261 66.2693 161.615 66.9583 161.534C67.0191 161.534 67.0799 161.514 67.1205 161.514L98.6527 161.534C98.6527 161.534 98.6527 161.534 98.6527 161.554C99.1593 163.736 100.314 166.746 103.05 168.968Z" fill="#FFA412"/>
<path d="M127.834 161.554H127.063V168.988H127.834V161.554Z" fill="#FFA412"/>
<path d="M125.26 161.554H124.49V168.988H125.26V161.554Z" fill="#FFA412"/>
<path d="M122.16 161.554H121.39V168.988H122.16V161.554Z" fill="#FFA412"/>
<path d="M117.417 161.534H116.646V168.968H117.417V161.534Z" fill="#FFA412"/>
<path d="M112.412 161.534H111.642V168.968H112.412V161.534Z" fill="#FFA412"/>
<path d="M104.711 161.534H103.94V168.968H104.711V161.534Z" fill="#FFA412"/>
<path d="M97.5172 161.534H96.7471V168.968H97.5172V161.534Z" fill="#FFA412"/>
<path d="M91.0933 161.534H90.3232V168.968H91.0933V161.534Z" fill="#FFA412"/>
<path d="M130.286 161.554H129.516V168.988H130.286V161.554Z" fill="#FFA412"/>
<path d="M131.927 161.554H131.157V168.988H131.927V161.554Z" fill="#FFA412"/>
<path d="M133.488 161.554H132.718V168.988H133.488V161.554Z" fill="#FFA412"/>
<path d="M134.664 161.574V168.948C134.562 168.968 134.481 168.968 134.38 168.968H133.894V161.534H134.38C134.481 161.554 134.562 161.554 134.664 161.574Z" fill="#FFA412"/>
<path d="M135.716 162.261V168.261C135.534 168.523 135.271 168.746 134.946 168.867V161.655C135.271 161.776 135.534 161.998 135.716 162.261Z" fill="#FFA412"/>
<path d="M127.186 155.736V159.938C127.186 160.281 127.085 160.584 126.902 160.847C126.72 161.11 126.456 161.332 126.132 161.453C126.031 161.493 125.93 161.514 125.828 161.534C125.788 161.534 125.767 161.554 125.727 161.554C125.707 161.554 125.686 161.554 125.646 161.554C125.626 161.554 125.626 161.554 125.605 161.554C125.585 161.554 125.545 161.554 125.524 161.554L58.4474 161.514C57.576 161.514 56.8667 160.827 56.8262 159.978C56.8262 159.958 56.8262 159.918 56.8262 159.898V155.696C56.8262 155.676 56.8262 155.635 56.8262 155.615C56.8667 154.767 57.576 154.08 58.4474 154.08L125.524 154.12C125.545 154.12 125.585 154.12 125.605 154.12C125.666 154.12 125.747 154.14 125.808 154.14C125.909 154.161 126.011 154.181 126.112 154.221C126.153 154.241 126.213 154.262 126.254 154.282C126.274 154.302 126.315 154.302 126.335 154.322C126.355 154.342 126.396 154.363 126.416 154.383C126.416 154.383 126.416 154.383 126.436 154.383C126.456 154.403 126.477 154.423 126.517 154.443C126.578 154.484 126.619 154.524 126.679 154.585C126.7 154.605 126.72 154.625 126.72 154.625C126.72 154.625 126.74 154.645 126.74 154.666C126.76 154.686 126.781 154.706 126.781 154.726C126.801 154.746 126.821 154.787 126.842 154.807C127.085 155.11 127.186 155.413 127.186 155.736Z" fill="#FFB93E"/>
<path d="M94.2557 161.534L58.326 161.514C57.556 161.514 56.9277 160.827 56.8872 159.978C56.8872 159.958 56.8872 159.918 56.8872 159.898V155.696C56.8872 155.676 56.8872 155.635 56.8872 155.615C56.9277 154.767 57.556 154.08 58.326 154.08L89.8583 154.1C89.8785 154.161 89.8785 154.221 89.8988 154.262C90.4054 156.443 91.5808 159.372 94.2557 161.534C94.2557 161.534 94.2355 161.534 94.2557 161.534Z" fill="#FFA412"/>
<path d="M119.039 154.12H118.269V161.554H119.039V154.12Z" fill="#FFA412"/>
<path d="M116.465 154.12H115.695V161.554H116.465V154.12Z" fill="#FFA412"/>
<path d="M113.365 154.12H112.595V161.554H113.365V154.12Z" fill="#FFA412"/>
<path d="M108.623 154.12H107.853V161.554H108.623V154.12Z" fill="#FFA412"/>
<path d="M103.597 154.12H102.827V161.554H103.597V154.12Z" fill="#FFA412"/>
<path d="M95.9175 154.1H95.1475V161.534H95.9175V154.1Z" fill="#FFA412"/>
<path d="M88.7027 154.1H87.9326V161.534H88.7027V154.1Z" fill="#FFA412"/>
<path d="M82.2828 154.1L81.5127 154.1L81.505 161.534L82.275 161.534L82.2828 154.1Z" fill="#FFA412"/>
<path d="M121.491 154.12H120.721V161.554H121.491V154.12Z" fill="#FFA412"/>
<path d="M123.112 154.12H122.342V161.554H123.112V154.12Z" fill="#FFA412"/>
<path d="M124.692 154.12H123.922V161.554H124.692V154.12Z" fill="#FFA412"/>
<path d="M125.848 154.161V161.534C125.747 161.554 125.666 161.554 125.565 161.554H125.078V154.12H125.565C125.666 154.12 125.767 154.14 125.848 154.161Z" fill="#FFA412"/>
<path d="M126.922 154.847V160.847C126.74 161.11 126.477 161.332 126.152 161.453V154.241C126.456 154.363 126.74 154.565 126.922 154.847Z" fill="#FFA412"/>
<path d="M132.131 148.484V152.686C132.131 153.029 132.03 153.332 131.847 153.595C131.665 153.858 131.402 154.08 131.077 154.201C130.976 154.241 130.875 154.262 130.773 154.282C130.672 154.302 130.591 154.302 130.49 154.302L63.4127 154.262C63.1493 154.262 62.9061 154.201 62.6832 154.08C62.1968 153.837 61.8523 153.353 61.7915 152.787C61.7915 152.767 61.7915 152.747 61.7915 152.726C61.7915 152.706 61.7915 152.666 61.7915 152.646V148.444C61.7915 148.424 61.7915 148.383 61.7915 148.363C61.832 147.575 62.44 146.929 63.2303 146.848C63.2911 146.848 63.3519 146.828 63.4127 146.828L130.49 146.868C130.591 146.868 130.692 146.868 130.773 146.888C130.875 146.908 130.976 146.929 131.077 146.969C131.381 147.09 131.645 147.313 131.847 147.575C132.03 147.838 132.131 148.161 132.131 148.484Z" fill="#FFB93E"/>
<path d="M99.18 154.282L63.2503 154.262C63.0274 154.262 62.8045 154.201 62.6019 154.08C62.156 153.837 61.8521 153.353 61.8115 152.787C61.8115 152.767 61.8115 152.747 61.8115 152.726C61.8115 152.706 61.8115 152.666 61.8115 152.646V148.444C61.8115 148.424 61.8115 148.383 61.8115 148.363C61.8521 147.575 62.3992 146.929 63.0882 146.848C63.149 146.848 63.2098 146.828 63.2503 146.828L94.7826 146.848C94.7826 146.848 94.7826 146.848 94.7826 146.868C95.2689 149.009 96.4037 151.918 98.9774 154.12C99.0584 154.161 99.1192 154.221 99.18 154.282Z" fill="#FFA412"/>
<path d="M123.984 146.868H123.214V154.302H123.984V146.868Z" fill="#FFA412"/>
<path d="M121.391 146.868H120.621V154.302H121.391V146.868Z" fill="#FFA412"/>
<path d="M118.291 146.868H117.521V154.302H118.291V146.868Z" fill="#FFA412"/>
<path d="M113.547 146.848H112.777V154.282H113.547V146.848Z" fill="#FFA412"/>
<path d="M108.543 146.848H107.772V154.282H108.543V146.848Z" fill="#FFA412"/>
<path d="M100.841 146.848H100.071V154.282H100.841V146.848Z" fill="#FFA412"/>
<path d="M93.648 146.848H92.8779V154.282H93.648V146.848Z" fill="#FFA412"/>
<path d="M87.2242 146.848H86.4541V154.282H87.2242V146.848Z" fill="#FFA412"/>
<path d="M126.437 146.868H125.667V154.302H126.437V146.868Z" fill="#FFA412"/>
<path d="M128.058 146.868H127.288V154.302H128.058V146.868Z" fill="#FFA412"/>
<path d="M129.618 146.868H128.848V154.302H129.618V146.868Z" fill="#FFA412"/>
<path d="M130.794 146.888V154.262C130.693 154.282 130.612 154.282 130.511 154.282H130.024V146.848H130.511C130.612 146.868 130.693 146.868 130.794 146.888Z" fill="#FFA412"/>
<path d="M131.847 147.575V153.575C131.665 153.837 131.401 154.06 131.077 154.181V146.969C131.401 147.09 131.665 147.313 131.847 147.575Z" fill="#FFA412"/>
<path d="M127.206 141.07V145.272C127.206 145.616 127.105 145.919 126.922 146.181C126.74 146.444 126.477 146.666 126.152 146.787C126.051 146.828 125.95 146.848 125.848 146.868C125.808 146.868 125.788 146.888 125.747 146.888C125.727 146.888 125.706 146.888 125.686 146.888C125.666 146.888 125.646 146.888 125.625 146.888C125.605 146.888 125.565 146.888 125.544 146.888L58.4674 146.848C57.596 146.848 56.8867 146.161 56.8462 145.313C56.8462 145.292 56.8462 145.252 56.8462 145.232V141.03C56.8462 141.01 56.8462 140.969 56.8462 140.949C56.8867 140.101 57.596 139.414 58.4674 139.414L125.544 139.454C125.646 139.454 125.747 139.454 125.828 139.475C125.929 139.495 126.031 139.515 126.132 139.555C126.436 139.677 126.699 139.899 126.902 140.161C127.105 140.424 127.206 140.727 127.206 141.07Z" fill="#FFB93E"/>
<path d="M94.2547 146.848L58.325 146.828C57.555 146.828 56.9268 146.141 56.8862 145.292C56.8862 145.272 56.8862 145.232 56.8862 145.212V141.01C56.8862 140.99 56.8862 140.949 56.8862 140.929C56.9268 140.081 57.555 139.394 58.325 139.394L89.8573 139.414C90.3436 141.596 91.519 144.626 94.2547 146.848Z" fill="#FFA412"/>
<path d="M119.043 139.435L118.273 139.434L118.266 146.868L119.036 146.869L119.043 139.435Z" fill="#FFA412"/>
<path d="M116.465 139.434H115.695V146.868H116.465V139.434Z" fill="#FFA412"/>
<path d="M113.366 139.434H112.596V146.868H113.366V139.434Z" fill="#FFA412"/>
<path d="M108.624 139.434H107.854V146.868H108.624V139.434Z" fill="#FFA412"/>
<path d="M103.619 139.434H102.849V146.868H103.619V139.434Z" fill="#FFA412"/>
<path d="M95.9175 139.414H95.1475V146.848H95.9175V139.414Z" fill="#FFA412"/>
<path d="M88.7232 139.414H87.9531V146.848H88.7232V139.414Z" fill="#FFA412"/>
<path d="M82.2994 139.414H81.5293V146.848H82.2994V139.414Z" fill="#FFA412"/>
<path d="M121.512 139.434H120.742V146.868H121.512V139.434Z" fill="#FFA412"/>
<path d="M123.133 139.434H122.363V146.868H123.133V139.434Z" fill="#FFA412"/>
<path d="M124.694 139.434H123.924V146.868H124.694V139.434Z" fill="#FFA412"/>
<path d="M125.87 139.475V146.848C125.768 146.868 125.687 146.868 125.586 146.868H125.1V139.434H125.586C125.687 139.434 125.768 139.454 125.87 139.475Z" fill="#FFA412"/>
<path d="M126.922 140.161V146.161C126.74 146.424 126.477 146.646 126.152 146.767V139.555C126.477 139.677 126.74 139.879 126.922 140.161Z" fill="#FFA412"/>
<path d="M136.265 174.866C134.745 175.351 133.205 175.796 131.645 176.179C131.402 176.24 131.158 176.301 130.915 176.361C130.328 176.503 129.76 176.644 129.172 176.765C129.132 176.765 129.112 176.785 129.071 176.785C127.207 177.189 125.302 177.553 123.397 177.836C121.634 178.098 119.83 178.3 118.027 178.462C116.446 178.603 114.865 178.684 113.264 178.725C113.183 178.725 113.102 178.725 113.021 178.725C112.961 178.725 112.9 178.725 112.839 178.725C112.819 178.725 112.778 178.725 112.758 178.725C112.636 178.725 112.535 178.725 112.413 178.725C112.332 178.725 112.251 178.725 112.17 178.725C112.089 178.725 112.008 178.725 111.927 178.725C111.805 178.725 111.684 178.725 111.562 178.725C111.441 178.725 111.339 178.725 111.218 178.725C111.015 178.725 110.812 178.725 110.61 178.725C110.387 178.725 110.184 178.725 109.961 178.725C109.759 178.725 109.556 178.725 109.353 178.705C109.13 178.705 108.887 178.705 108.664 178.684C108.462 178.684 108.259 178.664 108.056 178.664C107.793 178.664 107.53 178.644 107.266 178.624C107.226 178.624 107.205 178.624 107.165 178.624C107.003 178.624 106.84 178.604 106.678 178.604C106.476 178.604 106.273 178.583 106.07 178.563C105.625 178.543 105.159 178.503 104.713 178.482C104.672 178.482 104.632 178.482 104.591 178.482C104.388 178.462 104.186 178.462 103.983 178.442C103.922 178.442 103.862 178.422 103.801 178.422C103.679 178.422 103.537 178.401 103.416 178.381C103.112 178.361 102.788 178.321 102.484 178.3C102.362 178.28 102.22 178.28 102.099 178.26C101.896 178.24 101.693 178.22 101.491 178.199C100.761 178.119 100.031 178.038 99.3019 177.937C99.0993 177.917 98.8764 177.876 98.6737 177.856C98.6129 177.856 98.5319 177.836 98.4711 177.816C98.4103 177.816 98.3495 177.795 98.2887 177.795C98.1468 177.775 98.005 177.755 97.8429 177.735C97.8023 177.735 97.7618 177.715 97.7213 177.715H97.701C97.6808 177.715 97.6807 177.715 97.6605 177.715C97.1133 177.634 96.5662 177.553 96.019 177.452C95.8366 177.412 95.634 177.391 95.4516 177.351C95.2692 177.311 95.0666 177.29 94.8842 177.25C94.6613 177.21 94.4586 177.169 94.2357 177.129C94.0331 177.088 93.8304 177.048 93.6278 177.008C92.6145 176.806 91.6215 176.604 90.6083 176.381C89.7369 176.2 88.8858 175.998 88.0144 175.796C87.8117 175.755 87.6091 175.695 87.4064 175.654C87.3051 175.634 87.2038 175.614 87.1025 175.573C86.3121 166.503 90.8312 157.413 99.3425 152.747C99.6465 152.585 99.9504 152.423 100.254 152.262C100.558 152.08 100.842 151.918 101.146 151.736C112.677 145.414 127.146 149.595 133.489 161.089C135.84 165.453 136.731 170.261 136.265 174.866Z" fill="#E2810E"/>
<path d="M140.864 158.059C138.737 154.201 135.677 151.171 132.13 149.07C132.029 149.009 131.948 148.969 131.846 148.908C131.603 148.767 131.34 148.626 131.076 148.484C130.975 148.424 130.874 148.383 130.772 148.323C130.529 148.201 130.266 148.08 130.002 147.959C129.86 147.898 129.719 147.838 129.597 147.777C129.334 147.656 129.09 147.555 128.827 147.454C128.564 147.353 128.3 147.252 128.016 147.151C127.996 147.151 127.976 147.131 127.956 147.131C127.733 147.05 127.489 146.969 127.246 146.888C127.186 146.868 127.145 146.848 127.084 146.848H127.023C126.963 146.828 126.922 146.787 126.841 146.767C126.679 146.727 126.517 146.666 126.375 146.626C126.294 146.605 126.213 146.585 126.132 146.565C126.03 146.545 125.929 146.504 125.828 146.484C125.564 146.424 125.321 146.363 125.058 146.302C124.916 146.262 124.774 146.242 124.652 146.222C124.409 146.161 124.146 146.121 123.882 146.08C123.619 146.04 123.355 145.999 123.072 145.959C122.829 145.919 122.565 145.898 122.322 145.878C122.322 145.878 122.322 145.878 122.302 145.878C122.018 145.858 121.734 145.818 121.451 145.818C121.187 145.797 120.944 145.797 120.68 145.777C120.113 145.757 119.546 145.757 118.978 145.777C118.735 145.797 118.472 145.797 118.208 145.818C117.6 145.858 116.992 145.919 116.384 146.02C116.121 146.06 115.878 146.1 115.614 146.141C114.824 146.282 114.054 146.464 113.284 146.686C113.122 146.727 112.98 146.787 112.818 146.828C112.797 146.828 112.797 146.828 112.777 146.848C112.757 146.848 112.737 146.868 112.716 146.868C111.278 147.333 109.839 147.939 108.461 148.686C108.461 148.686 108.44 148.686 108.44 148.706C108.197 148.848 107.934 148.989 107.691 149.131C107.65 149.151 107.61 149.191 107.549 149.211C105.32 150.545 103.394 152.201 101.794 154.08C101.753 154.14 101.692 154.201 101.652 154.262C99.8278 156.423 98.4295 158.888 97.4974 161.514C97.4974 161.514 97.4974 161.514 97.4974 161.534C97.4771 161.594 97.4568 161.655 97.4366 161.716C97.1326 162.604 96.8691 163.493 96.6665 164.402V164.463C96.3423 165.958 96.1396 167.412 96.1193 168.948C96.0586 171.291 96.3423 173.654 97.011 175.957C97.0515 176.099 97.0921 176.24 97.1326 176.381C97.2744 176.826 97.4163 177.27 97.5784 177.715C97.6189 177.715 97.6595 177.735 97.7 177.735C97.8419 177.755 97.9837 177.775 98.1458 177.795C98.2066 177.795 98.2674 177.816 98.3282 177.816C98.389 177.836 98.4701 177.836 98.5309 177.856C98.7335 177.896 98.9564 177.917 99.1591 177.937C99.8886 178.038 100.618 178.119 101.348 178.199C101.55 178.22 101.753 178.24 101.956 178.26C102.077 178.28 102.219 178.28 102.341 178.3C102.645 178.341 102.969 178.361 103.273 178.381C103.394 178.401 103.536 178.401 103.658 178.422C103.719 178.422 103.779 178.442 103.84 178.442C104.043 178.462 104.246 178.482 104.448 178.482C104.489 178.482 104.529 178.482 104.57 178.482C105.016 178.523 105.482 178.543 105.928 178.563C106.13 178.583 106.333 178.583 106.536 178.603C106.698 178.624 106.86 178.624 107.022 178.624C107.062 178.624 107.083 178.624 107.123 178.624C107.387 178.644 107.65 178.644 107.914 178.664C108.116 178.664 108.319 178.684 108.521 178.684C108.744 178.684 108.988 178.704 109.21 178.704C109.413 178.704 109.616 178.704 109.818 178.725C110.041 178.725 110.244 178.725 110.467 178.725C110.67 178.725 110.872 178.725 111.075 178.725C111.196 178.725 111.298 178.725 111.419 178.725C111.541 178.725 111.663 178.725 111.784 178.725C111.865 178.725 111.946 178.725 112.027 178.725C112.108 178.725 112.189 178.725 112.271 178.725C112.392 178.725 112.493 178.725 112.615 178.725C112.635 178.725 112.676 178.725 112.696 178.725C112.757 178.725 112.818 178.725 112.878 178.725C112.96 178.725 113.041 178.725 113.122 178.725C114.723 178.684 116.303 178.603 117.884 178.462C119.687 178.321 121.491 178.098 123.254 177.836C125.179 177.553 127.064 177.21 128.928 176.785C128.969 176.785 128.989 176.765 129.03 176.765V176.785L130.793 176.361C131.036 176.301 131.279 176.24 131.522 176.179C133.832 175.594 136.102 174.927 138.311 174.139C138.676 174.018 139.061 173.876 139.426 173.755C139.527 173.715 139.608 173.695 139.709 173.654C140.398 173.412 141.087 173.149 141.756 172.866C141.938 172.786 142.121 172.725 142.303 172.644C142.344 172.624 142.384 172.624 142.425 172.604C142.648 172.523 142.85 172.422 143.073 172.341C143.235 172.281 143.397 172.2 143.56 172.139C143.58 171.957 143.6 171.796 143.62 171.614C144.127 167.069 143.235 162.362 140.864 158.059Z" fill="#E2810E"/>
<path d="M139.04 159.069C137.277 155.878 134.906 153.272 132.13 151.272C132.029 151.211 131.948 151.13 131.846 151.07C131.603 150.888 131.34 150.726 131.097 150.565C130.995 150.504 130.894 150.444 130.793 150.383C130.549 150.221 130.286 150.08 130.022 149.939C129.881 149.858 129.739 149.777 129.617 149.716C129.374 149.575 129.111 149.454 128.847 149.312C128.584 149.171 128.32 149.05 128.036 148.929C127.793 148.807 127.53 148.706 127.266 148.605C127.185 148.565 127.084 148.525 126.983 148.484C126.78 148.403 126.598 148.343 126.395 148.262C126.233 148.201 126.071 148.141 125.888 148.08C125.807 148.06 125.706 148.019 125.625 147.999C125.058 147.817 124.51 147.656 123.923 147.514C123.68 147.454 123.416 147.393 123.153 147.333C122.605 147.211 122.038 147.11 121.471 147.03C121.43 147.03 121.369 147.009 121.329 147.009C121.065 146.969 120.822 146.949 120.559 146.908C120.457 146.888 120.356 146.888 120.255 146.888H120.174C120.153 146.888 120.153 146.888 120.113 146.868C119.789 146.828 119.424 146.807 119.1 146.807C118.836 146.787 118.593 146.787 118.33 146.787C117.722 146.787 117.114 146.807 116.506 146.848C116.404 146.848 116.323 146.868 116.222 146.868H116.182C116.161 146.868 116.161 146.868 116.141 146.888H115.938C115.128 146.969 114.358 147.09 113.547 147.252C113.284 147.292 113.04 147.353 112.777 147.413C111.338 147.757 109.92 148.221 108.521 148.828C108.258 148.949 108.015 149.05 107.751 149.191C107.711 149.211 107.67 149.232 107.609 149.252C107.285 149.413 106.981 149.575 106.677 149.737C104.489 150.928 102.584 152.423 100.942 154.12C100.902 154.161 100.861 154.201 100.821 154.241C100.8 154.262 100.8 154.262 100.78 154.282C98.7739 156.423 97.2135 158.888 96.1192 161.534C96.1192 161.534 96.1192 161.534 96.1192 161.554C95.1465 163.918 94.5791 166.422 94.3967 168.968C94.3156 170.139 94.3359 171.331 94.4372 172.523C94.5385 173.816 94.7615 175.109 95.0857 176.402C95.1668 176.725 95.2478 177.048 95.3491 177.371C95.5518 177.412 95.7342 177.432 95.9166 177.472C96.4637 177.573 97.0109 177.654 97.558 177.735C97.5783 177.735 97.5783 177.735 97.5986 177.735H97.6188C97.6594 177.735 97.6999 177.755 97.7404 177.755C97.8823 177.775 98.0241 177.795 98.1862 177.816C98.247 177.816 98.3078 177.836 98.3686 177.836C98.4294 177.856 98.5105 177.856 98.5713 177.876C98.7739 177.917 98.9968 177.937 99.1995 177.957C99.929 178.058 100.659 178.139 101.388 178.22C101.591 178.24 101.793 178.26 101.996 178.28C102.118 178.3 102.259 178.3 102.381 178.321C102.685 178.361 103.009 178.381 103.313 178.401C103.435 178.422 103.577 178.422 103.698 178.442C103.759 178.442 103.82 178.462 103.881 178.462C104.083 178.482 104.286 178.502 104.489 178.502C104.529 178.502 104.57 178.502 104.61 178.502C105.056 178.543 105.522 178.563 105.968 178.583C106.171 178.604 106.373 178.603 106.576 178.624C106.738 178.644 106.9 178.644 107.062 178.644C107.103 178.644 107.123 178.644 107.164 178.644C107.427 178.664 107.69 178.664 107.954 178.684C108.157 178.684 108.359 178.704 108.562 178.704C108.785 178.704 109.028 178.725 109.251 178.725C109.454 178.725 109.656 178.725 109.859 178.745C110.082 178.745 110.284 178.745 110.507 178.745C110.71 178.745 110.913 178.745 111.115 178.745C111.237 178.745 111.338 178.745 111.46 178.745C111.581 178.745 111.703 178.745 111.825 178.745C111.906 178.745 111.987 178.745 112.068 178.745C112.149 178.745 112.23 178.745 112.311 178.745C112.432 178.745 112.534 178.745 112.655 178.745C112.676 178.745 112.716 178.745 112.736 178.745C112.797 178.745 112.858 178.745 112.919 178.745C113 178.745 113.081 178.745 113.162 178.745C114.763 178.705 116.344 178.624 117.924 178.482C119.728 178.341 121.531 178.119 123.294 177.856C125.22 177.573 127.104 177.23 128.969 176.806C129.009 176.806 129.029 176.785 129.07 176.785V176.806L130.833 176.381C131.076 176.321 131.319 176.26 131.563 176.2C133.873 175.614 136.142 174.947 138.351 174.159C138.716 174.038 139.101 173.897 139.466 173.775C139.567 173.735 139.648 173.715 139.75 173.674C140.439 173.432 141.128 173.169 141.796 172.887C142.344 168.24 141.452 163.453 139.04 159.069Z" fill="#FFB93E"/>
<path d="M137.317 160.322C135.858 157.696 133.933 155.494 131.704 153.736C131.501 153.575 131.279 153.413 131.076 153.252C130.975 153.171 130.873 153.11 130.772 153.05C130.529 152.868 130.265 152.706 130.002 152.544C129.86 152.464 129.718 152.363 129.597 152.282C129.353 152.12 129.09 151.979 128.826 151.837C128.563 151.696 128.3 151.555 128.016 151.413C127.752 151.292 127.509 151.171 127.246 151.05C126.962 150.928 126.678 150.807 126.395 150.686C126.152 150.585 125.888 150.484 125.625 150.403C125.604 150.383 125.564 150.383 125.544 150.383C125.179 150.262 124.794 150.141 124.429 150.019C124.267 149.979 124.105 149.918 123.943 149.878C123.699 149.817 123.436 149.737 123.173 149.696C122.565 149.555 121.957 149.434 121.349 149.353C121.106 149.312 120.842 149.292 120.579 149.252C120.498 149.252 120.417 149.232 120.356 149.232C120.194 149.211 120.032 149.211 119.869 149.191C119.322 149.151 118.795 149.131 118.248 149.131C117.985 149.131 117.742 149.131 117.478 149.151C116.141 149.191 114.823 149.373 113.506 149.656C113.243 149.716 113 149.777 112.736 149.838C111.297 150.221 109.859 150.747 108.48 151.454C108.258 151.575 108.035 151.696 107.812 151.817C107.791 151.837 107.751 151.858 107.731 151.858C106.555 152.504 105.441 153.272 104.427 154.1C104.367 154.161 104.286 154.221 104.225 154.262C104.002 154.443 103.779 154.645 103.576 154.847C103.313 155.09 103.07 155.332 102.806 155.575C101.104 157.292 99.7058 159.292 98.6722 161.514C98.6722 161.514 98.6722 161.514 98.6722 161.534C98.652 161.554 98.652 161.574 98.652 161.594C98.1859 162.564 97.8009 163.594 97.4969 164.645V164.685C97.4766 164.705 97.4766 164.705 97.4564 164.746C97.1118 165.877 96.8484 167.109 96.7268 168.261C96.7066 168.443 96.6863 168.624 96.666 168.806C96.6052 169.412 96.585 170.038 96.585 170.644C96.585 172.462 96.8079 174.26 97.274 176.018C97.2942 176.099 97.3145 176.159 97.3348 176.24C97.4564 176.705 97.5982 177.149 97.7401 177.593C97.8819 177.614 98.0238 177.634 98.1859 177.654C98.2467 177.654 98.3075 177.674 98.3683 177.674C98.4291 177.695 98.5101 177.694 98.5709 177.715C98.7736 177.755 98.9965 177.775 99.1991 177.796C99.1181 177.593 99.037 177.371 98.9762 177.169C98.8749 176.866 98.7736 176.563 98.6722 176.24C98.5912 175.937 98.5101 175.695 98.4291 175.392V175.311C97.9224 173.19 97.7603 171.008 97.963 168.806C98.0846 167.513 98.3277 166.22 98.6925 164.948C98.8546 164.423 99.0168 163.897 99.2194 163.372C99.4828 162.685 99.7666 162.019 100.111 161.372C100.111 161.372 100.111 161.372 100.111 161.352C100.841 159.898 101.753 158.544 102.806 157.332C103.049 157.049 103.313 156.766 103.576 156.504C104.407 155.635 105.339 154.827 106.332 154.12C106.413 154.06 106.495 153.999 106.576 153.959H106.596C106.981 153.696 107.346 153.433 107.751 153.211C107.974 153.07 108.217 152.928 108.46 152.807C108.48 152.787 108.501 152.787 108.521 152.787C109.899 152.039 111.318 151.454 112.777 151.05C113.04 150.969 113.283 150.908 113.547 150.848C114.864 150.524 116.201 150.363 117.539 150.302C117.782 150.302 118.046 150.282 118.289 150.282C118.512 150.282 118.755 150.282 118.978 150.302C119.221 150.302 119.444 150.322 119.687 150.343C119.991 150.363 120.315 150.383 120.619 150.423C120.883 150.444 121.126 150.484 121.369 150.524C121.977 150.625 122.585 150.747 123.193 150.888C123.335 150.928 123.477 150.969 123.639 151.009C123.74 151.029 123.862 151.07 123.963 151.11C124.226 151.191 124.51 151.272 124.773 151.353C125.077 151.454 125.361 151.555 125.665 151.676C125.929 151.777 126.172 151.878 126.435 151.979C126.719 152.1 127.003 152.241 127.286 152.383C127.55 152.504 127.793 152.645 128.056 152.767C128.32 152.908 128.604 153.07 128.867 153.231C129.13 153.393 129.374 153.555 129.637 153.716C129.779 153.817 129.921 153.898 130.042 153.999C130.123 154.06 130.225 154.12 130.306 154.181C132.677 155.878 134.703 158.12 136.203 160.827C138.452 164.907 139.222 169.513 138.452 174.018C138.817 173.897 139.202 173.755 139.567 173.634C139.668 173.594 139.749 173.574 139.851 173.533C140.459 169.089 139.607 164.443 137.317 160.322Z" fill="#FFA412"/>
<path d="M117.701 178.159C117.295 177.755 116.951 177.169 116.647 176.442L112.736 178.018C112.736 178.24 112.736 178.482 112.756 178.704C112.776 178.704 112.817 178.704 112.837 178.704C112.898 178.704 112.959 178.704 113.019 178.704C113.1 178.704 113.181 178.704 113.263 178.704C114.863 178.664 116.444 178.583 118.025 178.442C117.903 178.361 117.802 178.26 117.701 178.159ZM117.701 178.159C117.295 177.755 116.951 177.169 116.647 176.442L112.736 178.018C112.736 178.24 112.736 178.482 112.756 178.704C112.776 178.704 112.817 178.704 112.837 178.704C112.898 178.704 112.959 178.704 113.019 178.704C113.1 178.704 113.181 178.704 113.263 178.704C114.863 178.664 116.444 178.583 118.025 178.442C117.903 178.361 117.802 178.26 117.701 178.159ZM117.701 178.159C117.295 177.755 116.951 177.169 116.647 176.442L112.736 178.018C112.736 178.24 112.736 178.482 112.756 178.704C112.776 178.704 112.817 178.704 112.837 178.704C112.898 178.704 112.959 178.704 113.019 178.704C113.1 178.704 113.181 178.704 113.263 178.704C114.863 178.664 116.444 178.583 118.025 178.442C117.903 178.361 117.802 178.26 117.701 178.159ZM117.701 178.159C117.295 177.755 116.951 177.169 116.647 176.442L112.736 178.018C112.736 178.24 112.736 178.482 112.756 178.704C112.776 178.704 112.817 178.704 112.837 178.704C112.898 178.704 112.959 178.704 113.019 178.704C113.1 178.704 113.181 178.704 113.263 178.704C114.863 178.664 116.444 178.583 118.025 178.442C117.903 178.361 117.802 178.26 117.701 178.159ZM117.701 178.159C117.295 177.755 116.951 177.169 116.647 176.442L112.736 178.018C112.736 178.24 112.736 178.482 112.756 178.704C112.776 178.704 112.817 178.704 112.837 178.704C112.898 178.704 112.959 178.704 113.019 178.704C113.1 178.704 113.181 178.704 113.263 178.704C114.863 178.664 116.444 178.583 118.025 178.442C117.903 178.361 117.802 178.26 117.701 178.159ZM117.701 178.159C117.295 177.755 116.951 177.169 116.647 176.442L112.736 178.018C112.736 178.24 112.736 178.482 112.756 178.704C112.776 178.704 112.817 178.704 112.837 178.704C112.898 178.704 112.959 178.704 113.019 178.704C113.1 178.704 113.181 178.704 113.263 178.704C114.863 178.664 116.444 178.583 118.025 178.442C117.903 178.361 117.802 178.26 117.701 178.159ZM129.171 173.957C129.089 173.594 128.968 173.21 128.806 172.846C128.684 172.543 128.542 172.26 128.4 171.998C128.279 171.755 128.137 171.533 127.975 171.331C127.955 171.311 127.955 171.291 127.934 171.291C127.711 170.988 127.468 170.705 127.205 170.463C126.962 170.24 126.698 170.038 126.414 169.836C126.171 169.675 125.928 169.533 125.644 169.412C125.422 169.311 125.178 169.21 124.935 169.129C124.895 169.109 124.834 169.089 124.793 169.089C124.712 169.069 124.651 169.048 124.57 169.008C124.55 169.008 124.51 168.988 124.489 168.988C123.78 168.786 122.99 168.644 122.159 168.604C122.118 168.604 122.098 168.604 122.058 168.604C121.835 168.584 121.612 168.584 121.389 168.564C120.517 168.523 119.585 168.523 118.592 168.543C118.167 168.564 117.782 168.564 117.417 168.543C117.133 168.543 116.89 168.523 116.647 168.503C116.627 168.503 116.627 168.503 116.606 168.503C116.059 168.463 115.593 168.362 115.208 168.2C114.823 168.038 114.519 167.836 114.276 167.574C114.033 167.311 113.83 166.988 113.688 166.604C113.668 166.564 113.648 166.523 113.648 166.483C113.526 166.14 113.445 165.796 113.425 165.453C113.404 165.251 113.425 165.069 113.465 164.867C113.485 164.705 113.546 164.544 113.607 164.382C113.749 164.039 113.972 163.736 114.276 163.453C114.438 163.291 114.641 163.15 114.843 163.029C115.026 162.907 115.249 162.806 115.492 162.705C115.897 162.544 116.282 162.443 116.667 162.443C116.931 162.423 117.174 162.443 117.437 162.503C117.66 162.544 117.883 162.625 118.086 162.726C118.896 163.109 119.545 163.938 120.051 165.19L121.409 164.645L122.179 164.342L124.51 163.392L124.915 163.231C124.793 162.928 124.651 162.625 124.51 162.362V162.241C124.368 161.978 124.226 161.796 124.064 161.554C124.064 161.554 124.064 161.554 124.064 161.534C124.023 161.473 123.983 161.392 123.922 161.332C123.74 161.049 123.537 160.786 123.314 160.544C123.253 160.463 123.192 160.403 123.111 160.342C122.868 160.1 122.625 159.857 122.341 159.655C122.058 159.433 121.774 159.251 121.49 159.089C121.389 159.029 121.267 158.968 121.166 158.908C121.024 158.847 120.882 158.766 120.74 158.726C120.396 158.584 120.031 158.483 119.646 158.382C119.443 158.342 119.241 158.302 119.038 158.281C118.876 158.261 118.714 158.241 118.552 158.241C118.491 158.241 118.43 158.241 118.369 158.241C118.329 158.241 118.288 158.241 118.268 158.241C117.68 158.221 117.072 158.261 116.444 158.362C116.201 158.403 115.938 158.463 115.674 158.524C115.654 158.524 115.634 158.544 115.613 158.544L115.451 158.14L114.681 156.241L114.235 155.171L113.344 155.534L112.574 155.837L111.54 156.261L112.574 158.786L112.655 158.968L112.898 159.595C112.796 159.655 112.675 159.716 112.574 159.776C112.229 159.958 111.905 160.16 111.621 160.362C111.196 160.665 110.79 160.988 110.446 161.332C110.365 161.413 110.304 161.473 110.223 161.554C110.223 161.554 110.223 161.554 110.203 161.574C109.635 162.18 109.189 162.806 108.885 163.493C108.723 163.837 108.602 164.2 108.5 164.564C108.379 165.008 108.318 165.473 108.318 165.938C108.298 166.786 108.48 167.655 108.825 168.543C108.885 168.705 108.966 168.846 109.027 169.008C109.21 169.372 109.392 169.715 109.615 170.018C109.676 170.099 109.736 170.18 109.797 170.261C109.98 170.483 110.162 170.685 110.344 170.887L110.405 170.947C110.628 171.149 110.892 171.351 111.135 171.513C111.378 171.675 111.621 171.816 111.905 171.957C112.148 172.079 112.411 172.18 112.675 172.281C113.242 172.483 113.871 172.624 114.519 172.705C114.843 172.745 115.208 172.786 115.552 172.806C115.654 172.806 115.755 172.826 115.877 172.826C116.12 172.846 116.383 172.846 116.647 172.846C117.376 172.866 118.167 172.846 118.977 172.806C118.998 172.806 119.018 172.806 119.038 172.806C119.281 172.786 119.504 172.786 119.727 172.786C120.173 172.786 120.558 172.786 120.923 172.826C121.146 172.846 121.348 172.866 121.551 172.907C121.835 172.967 122.078 173.028 122.321 173.129C122.706 173.291 123.03 173.513 123.294 173.796C123.557 174.078 123.76 174.442 123.942 174.866C123.962 174.907 123.983 174.927 124.003 174.967V175.048C124.125 175.371 124.165 175.695 124.165 176.018C124.165 176.159 124.145 176.321 124.125 176.462C124.084 176.684 124.003 176.907 123.902 177.109C123.76 177.371 123.577 177.634 123.334 177.876C125.259 177.593 127.144 177.25 129.008 176.826C129.049 176.826 129.069 176.806 129.11 176.806C129.15 176.684 129.171 176.543 129.191 176.422C129.252 176.139 129.272 175.836 129.292 175.533C129.353 174.988 129.292 174.462 129.171 173.957ZM117.701 178.159C117.295 177.755 116.951 177.169 116.647 176.442L112.736 178.018C112.736 178.24 112.736 178.482 112.756 178.704C112.776 178.704 112.817 178.704 112.837 178.704C112.898 178.704 112.959 178.704 113.019 178.704C113.1 178.704 113.181 178.704 113.263 178.704C114.863 178.664 116.444 178.583 118.025 178.442C117.903 178.361 117.802 178.26 117.701 178.159ZM117.701 178.159C117.295 177.755 116.951 177.169 116.647 176.442L112.736 178.018C112.736 178.24 112.736 178.482 112.756 178.704C112.776 178.704 112.817 178.704 112.837 178.704C112.898 178.704 112.959 178.704 113.019 178.704C113.1 178.704 113.181 178.704 113.263 178.704C114.863 178.664 116.444 178.583 118.025 178.442C117.903 178.361 117.802 178.26 117.701 178.159ZM117.701 178.159C117.295 177.755 116.951 177.169 116.647 176.442L112.736 178.018C112.736 178.24 112.736 178.482 112.756 178.704C112.776 178.704 112.817 178.704 112.837 178.704C112.898 178.704 112.959 178.704 113.019 178.704C113.1 178.704 113.181 178.704 113.263 178.704C114.863 178.664 116.444 178.583 118.025 178.442C117.903 178.361 117.802 178.26 117.701 178.159ZM117.701 178.159C117.295 177.755 116.951 177.169 116.647 176.442L112.736 178.018C112.736 178.24 112.736 178.482 112.756 178.704C112.776 178.704 112.817 178.704 112.837 178.704C112.898 178.704 112.959 178.704 113.019 178.704C113.1 178.704 113.181 178.704 113.263 178.704C114.863 178.664 116.444 178.583 118.025 178.442C117.903 178.361 117.802 178.26 117.701 178.159ZM117.701 178.159C117.295 177.755 116.951 177.169 116.647 176.442L112.736 178.018C112.736 178.24 112.736 178.482 112.756 178.704C112.776 178.704 112.817 178.704 112.837 178.704C112.898 178.704 112.959 178.704 113.019 178.704C113.1 178.704 113.181 178.704 113.263 178.704C114.863 178.664 116.444 178.583 118.025 178.442C117.903 178.361 117.802 178.26 117.701 178.159ZM117.701 178.159C117.295 177.755 116.951 177.169 116.647 176.442L112.736 178.018C112.736 178.24 112.736 178.482 112.756 178.704C112.776 178.704 112.817 178.704 112.837 178.704C112.898 178.704 112.959 178.704 113.019 178.704C113.1 178.704 113.181 178.704 113.263 178.704C114.863 178.664 116.444 178.583 118.025 178.442C117.903 178.361 117.802 178.26 117.701 178.159ZM117.701 178.159C117.295 177.755 116.951 177.169 116.647 176.442L112.736 178.018L111.783 178.401C111.824 178.502 111.864 178.624 111.925 178.725C112.006 178.725 112.087 178.725 112.168 178.725C112.249 178.725 112.33 178.725 112.411 178.725C112.533 178.725 112.634 178.725 112.756 178.725C112.776 178.725 112.817 178.725 112.837 178.725C112.898 178.725 112.959 178.725 113.019 178.725C113.1 178.725 113.181 178.725 113.263 178.725C114.863 178.684 116.444 178.603 118.025 178.462C117.903 178.361 117.802 178.26 117.701 178.159Z" fill="#FFA412"/>
</g>
<defs>
<clipPath id="clip0">
<rect x="0.428711" y="-1.38562" width="190.571" height="180.131" fill="white"/>
</clipPath>
</defs>
</svg>
