<svg width="20" height="23" viewBox="0 0 20 23" fill="none" xmlns="http://www.w3.org/2000/svg">
<g clip-path="url(#clip0)">
<path d="M9.99905 22.8571C11.5758 22.8571 12.8549 21.5781 12.8549 20H7.14325C7.14325 21.5781 8.42227 22.8571 9.99905 22.8571ZM19.6147 16.1737C18.7522 15.2469 17.1383 13.8527 17.1383 9.28571C17.1383 5.81696 14.7062 3.04018 11.4267 2.35893V1.42857C11.4267 0.639732 10.7874 0 9.99905 0C9.21066 0 8.57138 0.639732 8.57138 1.42857V2.35893C5.29191 3.04018 2.85977 5.81696 2.85977 9.28571C2.85977 13.8527 1.24593 15.2469 0.383429 16.1737C0.115572 16.4616 -0.00317784 16.8058 -0.000945697 17.1429C0.00396502 17.875 0.578519 18.5714 1.43209 18.5714H18.566C19.4196 18.5714 19.9946 17.875 19.9991 17.1429C20.0013 16.8058 19.8825 16.4612 19.6147 16.1737Z" fill="#343434" fill-opacity="0.8"/>
</g>
<defs>
<clipPath id="clip0">
<rect width="20" height="22.8571" fill="white"/>
</clipPath>
</defs>
</svg>
