<svg width="252" height="122" viewBox="0 0 252 122" fill="none" xmlns="http://www.w3.org/2000/svg">
<g clip-path="url(#clip0)">
<path d="M19.1419 121.092C19.1419 121.092 -7.90604 92.8214 14.5655 62.2149C34.5043 35.0566 57.749 36.9108 74.8078 47.9335C82.0748 52.6282 109.209 48.7778 132.936 25.7381C158.2 1.20724 225.773 13.2557 214.048 64.0297C207.522 92.3006 236.677 93.1054 221.354 121.155L19.1419 121.092Z" fill="#FCECDB"/>
<path d="M105.178 98.1946L96.6012 97.4608C96.6012 97.4608 97.0983 92.1743 95.5912 85.1204C94.4787 79.9128 92.2694 73.7426 87.9613 68.0221C80.6155 58.2776 58.7988 52.8176 58.7988 52.8176V51.5551L59.58 51.4683C59.58 51.4683 59.2407 51.2316 58.7988 51.0975V48.115C59.4458 48.1071 60.369 48.1465 61.2764 48.3596C60.7635 48.2333 59.6747 47.9808 58.7988 47.9177V46.3475C90.3994 47.1918 100.712 66.2784 103.939 81.0569C106.014 90.5095 105.178 98.1946 105.178 98.1946Z" fill="#82B378"/>
<path d="M142.712 95.4173L105.178 98.1946C104.981 92.4111 103.474 86.4381 102.014 81.9012C100.554 77.3722 99.1419 74.2792 99.1419 74.2792C87.914 49.6773 58.7988 46.3397 58.7988 46.3397L91.1174 33.1077C106.732 34.2833 117.684 41.7791 125.338 51.1922C140.345 69.6318 142.712 95.4173 142.712 95.4173Z" fill="#A8D29F"/>
<path opacity="0.5" d="M142.712 95.4172L105.178 98.1946L96.6008 97.4608C96.6008 97.4608 97.0979 92.1743 95.5908 85.1204C97.3819 84.0473 99.5044 82.9664 102.021 81.9091C102.684 81.6329 103.323 81.3489 103.947 81.0569C127.846 70.0263 125.621 52.8413 125.345 51.2001C140.345 69.6318 142.712 95.4172 142.712 95.4172Z" fill="#82B378"/>
<path d="M139.761 98.3131L106.314 97.6661L106.432 97.0191C106.448 96.9244 108.168 87.1168 104.16 75.9599C101.809 69.4267 97.982 63.7142 92.7744 58.9721C86.257 53.0386 77.5383 48.62 66.8785 45.8427L65.2373 45.4166L91.3462 35.0251H91.4488C91.7329 35.0172 98.4554 34.9146 107.095 39.0018C112.161 41.4004 116.824 44.7459 120.958 48.9514C126.111 54.1985 130.45 60.8105 133.851 68.5904C134.119 69.19 140.471 83.4557 140.14 92.0166V92.0245L139.761 98.3131ZM107.624 96.5772L138.712 97.1769L139.011 91.9693C139.146 88.5449 138.12 83.503 136.045 77.3801C134.467 72.7328 132.833 69.0717 132.818 69.0401C129.48 61.3944 125.227 54.9086 120.177 49.7641C116.145 45.6533 111.593 42.3788 106.661 40.0354C101.304 37.4947 96.6327 36.6031 93.9264 36.2954C92.5061 36.1376 91.0701 36.327 89.7445 36.8556L71.6521 44.0595C70.7053 44.4382 70.7526 45.7874 71.7231 46.0952C80.5208 48.9278 87.8508 52.9834 93.5476 58.1752C98.8893 63.0435 102.819 68.9217 105.225 75.6364C107.364 81.6093 107.876 87.1483 107.932 90.7463C107.971 93.5394 107.758 95.5909 107.624 96.5772Z" fill="#82B378"/>
<path d="M121.763 59.8794C121.763 65.3869 118.536 68.7166 113.021 68.7166C107.513 68.7166 101.801 65.3869 101.801 59.8794C101.801 54.372 104.854 51.0739 110.362 51.0739C115.869 51.0739 121.763 54.3641 121.763 59.8794Z" fill="#82B378"/>
<path d="M171.866 116.153V119.443C171.866 119.704 171.787 119.948 171.645 120.153C171.503 120.366 171.29 120.532 171.054 120.627C170.983 120.658 170.904 120.674 170.825 120.69C170.754 120.706 170.675 120.713 170.604 120.713H118.157C117.478 120.713 116.926 120.177 116.887 119.506C116.887 119.483 116.887 119.467 116.887 119.443V116.153C116.887 116.129 116.887 116.113 116.887 116.09C116.918 115.419 117.478 114.883 118.157 114.883H170.604C170.683 114.883 170.754 114.89 170.825 114.906C170.904 114.922 170.983 114.946 171.054 114.969C171.298 115.064 171.503 115.23 171.645 115.443C171.787 115.648 171.866 115.893 171.866 116.153Z" fill="#FFB93E"/>
<path d="M146.112 120.713H118.015C117.415 120.713 116.918 120.177 116.887 119.506C116.887 119.483 116.887 119.467 116.887 119.443V116.153C116.887 116.129 116.887 116.113 116.887 116.09C116.918 115.419 117.415 114.883 118.015 114.883H142.664C143.059 116.603 143.974 118.978 146.112 120.713Z" fill="#FFA412"/>
<path d="M165.49 114.883H164.891V120.713H165.49V114.883Z" fill="#FFA412"/>
<path d="M163.471 114.883H162.871V120.713H163.471V114.883Z" fill="#FFA412"/>
<path d="M161.048 114.883H160.448V120.713H161.048V114.883Z" fill="#FFA412"/>
<path d="M157.34 114.883H156.74V120.713H157.34V114.883Z" fill="#FFA412"/>
<path d="M153.418 114.883H152.818V120.713H153.418V114.883Z" fill="#FFA412"/>
<path d="M147.406 114.883H146.807V120.713H147.406V114.883Z" fill="#FFA412"/>
<path d="M141.78 114.883H141.181V120.713H141.78V114.883Z" fill="#FFA412"/>
<path d="M136.754 114.883H136.154V120.713H136.754V114.883Z" fill="#FFA412"/>
<path d="M167.407 114.883H166.808V120.713H167.407V114.883Z" fill="#FFA412"/>
<path d="M168.678 114.883H168.078V120.713H168.678V114.883Z" fill="#FFA412"/>
<path d="M169.901 114.883H169.302V120.713H169.901V114.883Z" fill="#FFA412"/>
<path d="M170.824 114.906V120.698C170.753 120.713 170.674 120.721 170.603 120.721H170.232V114.883H170.603C170.674 114.883 170.745 114.89 170.824 114.906Z" fill="#FFA412"/>
<path d="M171.645 115.443V120.153C171.502 120.366 171.289 120.532 171.053 120.627V114.969C171.297 115.064 171.502 115.23 171.645 115.443Z" fill="#FFA412"/>
<path d="M166.256 110.322V113.612C166.256 113.873 166.177 114.117 166.035 114.322C165.893 114.535 165.68 114.701 165.443 114.796C165.372 114.827 165.293 114.843 165.214 114.859C165.143 114.875 165.064 114.883 164.993 114.883H112.547C111.868 114.883 111.316 114.346 111.276 113.675C111.276 113.652 111.276 113.628 111.276 113.612V110.322C111.276 110.298 111.276 110.275 111.276 110.259C111.308 109.588 111.868 109.052 112.547 109.052H164.993C165.025 109.052 165.064 109.052 165.096 109.06C165.112 109.06 165.128 109.06 165.135 109.067C165.151 109.067 165.167 109.067 165.183 109.075C165.191 109.075 165.206 109.075 165.214 109.083C165.293 109.099 165.372 109.123 165.443 109.146C165.451 109.154 165.467 109.154 165.475 109.162C165.483 109.17 165.498 109.17 165.506 109.178C165.53 109.186 165.546 109.202 165.569 109.209C165.577 109.217 165.593 109.225 165.609 109.233C165.617 109.241 165.633 109.249 165.64 109.249C165.664 109.265 165.68 109.273 165.704 109.288C165.727 109.304 165.751 109.32 165.767 109.336C165.782 109.351 165.798 109.359 165.814 109.375C165.822 109.383 165.838 109.391 165.846 109.407C165.877 109.438 165.909 109.47 165.94 109.501C165.948 109.509 165.956 109.517 165.964 109.533C165.972 109.541 165.98 109.557 165.988 109.565C166.003 109.588 166.019 109.604 166.035 109.628C166.177 109.817 166.256 110.062 166.256 110.322Z" fill="#FFB93E"/>
<path d="M140.502 114.883H112.405C111.797 114.883 111.308 114.346 111.276 113.675C111.276 113.652 111.276 113.628 111.276 113.612V110.322C111.276 110.298 111.276 110.275 111.276 110.259C111.308 109.588 111.805 109.052 112.405 109.052H137.054C137.062 109.099 137.078 109.146 137.085 109.194C137.496 110.898 138.427 113.194 140.502 114.883Z" fill="#FFA412"/>
<path d="M159.881 109.052H159.281V114.883H159.881V109.052Z" fill="#FFA412"/>
<path d="M157.861 109.052H157.262V114.883H157.861V109.052Z" fill="#FFA412"/>
<path d="M155.446 109.052H154.847V114.883H155.446V109.052Z" fill="#FFA412"/>
<path d="M151.738 109.052H151.139V114.883H151.738V109.052Z" fill="#FFA412"/>
<path d="M147.816 109.052H147.217V114.883H147.816V109.052Z" fill="#FFA412"/>
<path d="M141.797 109.052H141.197V114.883H141.797V109.052Z" fill="#FFA412"/>
<path d="M136.171 109.052H135.571V114.883H136.171V109.052Z" fill="#FFA412"/>
<path d="M131.145 109.052H130.545V114.883H131.145V109.052Z" fill="#FFA412"/>
<path d="M161.798 109.052H161.198V114.883H161.798V109.052Z" fill="#FFA412"/>
<path d="M163.068 109.052H162.469V114.883H163.068V109.052Z" fill="#FFA412"/>
<path d="M164.3 109.052H163.7V114.883H164.3V109.052Z" fill="#FFA412"/>
<path d="M165.215 109.075V114.867C165.144 114.883 165.065 114.891 164.994 114.891H164.623V109.06H164.994C165.065 109.052 165.144 109.06 165.215 109.075Z" fill="#FFA412"/>
<path d="M166.043 109.612V114.322C165.901 114.535 165.688 114.701 165.451 114.796V109.138C165.688 109.233 165.893 109.399 166.043 109.612Z" fill="#FFA412"/>
<path d="M168.97 104.633V107.923C168.97 108.184 168.891 108.428 168.749 108.633C168.607 108.847 168.394 109.012 168.157 109.107C168.086 109.138 168.007 109.162 167.928 109.17C167.857 109.186 167.778 109.194 167.707 109.194H115.261C115.048 109.194 114.85 109.138 114.677 109.052C114.306 108.854 114.038 108.484 113.998 108.05C113.998 108.034 113.998 108.01 113.99 107.994C113.99 107.971 113.99 107.947 113.99 107.931V104.641C113.99 104.617 113.99 104.594 113.99 104.578C114.022 103.907 114.582 103.371 115.261 103.371H167.707C167.786 103.371 167.857 103.379 167.928 103.394C168.007 103.41 168.086 103.434 168.157 103.457C168.402 103.552 168.607 103.718 168.749 103.931C168.891 104.128 168.97 104.373 168.97 104.633Z" fill="#FFB93E"/>
<path d="M143.216 109.194H115.119C114.929 109.194 114.756 109.138 114.598 109.052C114.266 108.854 114.03 108.484 113.99 108.05C113.99 108.034 113.99 108.01 113.982 107.994C113.982 107.971 113.982 107.947 113.982 107.931V104.641C113.982 104.617 113.982 104.594 113.982 104.578C114.014 103.907 114.511 103.371 115.111 103.371H139.76C140.147 105.043 141.022 107.332 143.034 109.06C143.098 109.099 143.153 109.146 143.216 109.194Z" fill="#FFA412"/>
<path d="M162.587 103.363H161.987V109.194H162.587V103.363Z" fill="#FFA412"/>
<path d="M160.575 103.363H159.976V109.194H160.575V103.363Z" fill="#FFA412"/>
<path d="M158.152 103.363H157.553V109.194H158.152V103.363Z" fill="#FFA412"/>
<path d="M154.444 103.363H153.845V109.194H154.444V103.363Z" fill="#FFA412"/>
<path d="M150.523 103.363H149.923V109.194H150.523V103.363Z" fill="#FFA412"/>
<path d="M144.511 103.363H143.911V109.194H144.511V103.363Z" fill="#FFA412"/>
<path d="M138.877 103.363H138.277V109.194H138.877V103.363Z" fill="#FFA412"/>
<path d="M133.851 103.363H133.251V109.194H133.851V103.363Z" fill="#FFA412"/>
<path d="M164.513 103.363H163.913V109.194H164.513V103.363Z" fill="#FFA412"/>
<path d="M165.782 103.363H165.183V109.194H165.782V103.363Z" fill="#FFA412"/>
<path d="M167.006 103.363H166.406V109.194H167.006V103.363Z" fill="#FFA412"/>
<path d="M167.921 103.386V109.178C167.85 109.194 167.771 109.202 167.7 109.202H167.329V103.363H167.7C167.779 103.363 167.85 103.371 167.921 103.386Z" fill="#FFA412"/>
<path d="M168.749 103.931V108.641C168.607 108.854 168.394 109.02 168.157 109.115V103.457C168.402 103.544 168.607 103.71 168.749 103.931Z" fill="#FFA412"/>
<path d="M170.225 98.8022V102.092C170.225 102.353 170.146 102.597 170.004 102.803C169.862 103.016 169.649 103.181 169.412 103.276C169.341 103.308 169.262 103.331 169.183 103.339C169.112 103.355 169.033 103.363 168.962 103.363H116.515C115.837 103.363 115.285 102.826 115.245 102.156C115.245 102.132 115.245 102.108 115.245 102.092V98.8022C115.245 98.7785 115.245 98.7548 115.245 98.7391C115.277 98.1236 115.758 97.6186 116.366 97.5476C116.413 97.5397 116.468 97.5397 116.515 97.5397H168.962C169.041 97.5397 169.112 97.5476 169.183 97.5634C169.262 97.5792 169.341 97.6029 169.412 97.6265C169.657 97.7212 169.862 97.8869 170.004 98.1C170.146 98.2972 170.225 98.5418 170.225 98.8022Z" fill="#FFB93E"/>
<path d="M144.471 103.363H116.373C115.774 103.363 115.269 102.826 115.245 102.156C115.245 102.132 115.245 102.108 115.245 102.092V98.8022C115.245 98.7785 115.245 98.7548 115.245 98.7391C115.277 98.1236 115.703 97.6186 116.239 97.5476C116.287 97.5397 116.326 97.5397 116.373 97.5397H141.023V97.5476C141.417 99.2598 142.332 101.627 144.471 103.363Z" fill="#FFA412"/>
<path d="M163.85 97.5397H163.25V103.371H163.85V97.5397Z" fill="#FFA412"/>
<path d="M161.83 97.5397H161.23V103.371H161.83V97.5397Z" fill="#FFA412"/>
<path d="M159.407 97.5397H158.808V103.371H159.407V97.5397Z" fill="#FFA412"/>
<path d="M155.699 97.5397H155.1V103.371H155.699V97.5397Z" fill="#FFA412"/>
<path d="M151.778 97.5397H151.178V103.371H151.778V97.5397Z" fill="#FFA412"/>
<path d="M145.766 97.5397H145.166V103.371H145.766V97.5397Z" fill="#FFA412"/>
<path d="M140.14 97.5397H139.54V103.371H140.14V97.5397Z" fill="#FFA412"/>
<path d="M135.113 97.5397H134.514V103.371H135.113V97.5397Z" fill="#FFA412"/>
<path d="M165.767 97.5397H165.167V103.371H165.767V97.5397Z" fill="#FFA412"/>
<path d="M167.037 97.5397H166.438V103.371H167.037V97.5397Z" fill="#FFA412"/>
<path d="M168.261 97.5397H167.661V103.371H168.261V97.5397Z" fill="#FFA412"/>
<path d="M169.184 97.5555V103.347C169.113 103.363 169.034 103.371 168.963 103.371H168.592V97.5397H168.963C169.034 97.5397 169.105 97.5397 169.184 97.5555Z" fill="#FFA412"/>
<path d="M170.004 98.0999V102.81C169.862 103.023 169.649 103.189 169.412 103.284V97.6265C169.657 97.7133 169.862 97.8869 170.004 98.0999Z" fill="#FFA412"/>
<path d="M166.366 92.987V96.2773C166.366 96.5377 166.287 96.7823 166.145 96.9874C166.003 97.2004 165.79 97.3661 165.554 97.4608C165.483 97.4924 165.404 97.5161 165.325 97.5239C165.301 97.5318 165.277 97.5318 165.254 97.5318C165.238 97.5318 165.23 97.5318 165.214 97.5397C165.198 97.5397 165.191 97.5397 165.175 97.5397C165.151 97.5397 165.127 97.5397 165.104 97.5397H112.657C111.978 97.5397 111.426 97.0032 111.387 96.3325C111.387 96.3088 111.387 96.2852 111.387 96.2694V92.9791C111.387 92.9555 111.387 92.9318 111.387 92.916C111.387 92.9002 111.387 92.8766 111.387 92.8608C111.434 92.3242 111.829 91.8824 112.341 91.7483C112.357 91.7483 112.365 91.7404 112.381 91.7404C112.468 91.7246 112.562 91.7088 112.657 91.7088H165.104C165.143 91.7088 165.183 91.7088 165.214 91.7167C165.23 91.7167 165.246 91.7167 165.262 91.7246C165.285 91.7246 165.301 91.7325 165.317 91.7325C165.396 91.7482 165.475 91.7719 165.546 91.7956C165.79 91.8903 165.995 92.056 166.137 92.269C166.287 92.4742 166.366 92.7188 166.366 92.987Z" fill="#FFB93E"/>
<path d="M140.612 97.5476H112.515C111.915 97.5476 111.41 97.0111 111.387 96.3404C111.387 96.3167 111.387 96.293 111.387 96.2773V92.987C111.387 92.9633 111.387 92.9397 111.387 92.9239C111.387 92.9081 111.387 92.8844 111.387 92.8687C111.434 92.3163 111.797 91.8666 112.263 91.7482C112.278 91.7403 112.294 91.7403 112.31 91.7403C112.373 91.7246 112.444 91.7167 112.507 91.7167H137.156C137.156 91.7325 137.164 91.7403 137.164 91.7561C137.559 93.4683 138.482 95.8117 140.597 97.5397C140.604 97.5397 140.612 97.5397 140.612 97.5476Z" fill="#FFA412"/>
<path d="M159.991 91.7167H159.392V97.5476H159.991V91.7167Z" fill="#FFA412"/>
<path d="M157.971 91.7167H157.371V97.5476H157.971V91.7167Z" fill="#FFA412"/>
<path d="M155.557 91.7167H154.957V97.5476H155.557V91.7167Z" fill="#FFA412"/>
<path d="M151.848 91.7167H151.249V97.5476H151.848V91.7167Z" fill="#FFA412"/>
<path d="M147.919 91.7167H147.319V97.5476H147.919V91.7167Z" fill="#FFA412"/>
<path d="M141.906 91.7167H141.307V97.5476H141.906V91.7167Z" fill="#FFA412"/>
<path d="M136.281 91.7167H135.682V97.5476H136.281V91.7167Z" fill="#FFA412"/>
<path d="M131.255 91.7167H130.655V97.5476H131.255V91.7167Z" fill="#FFA412"/>
<path d="M161.908 91.7167H161.309V97.5476H161.908V91.7167Z" fill="#FFA412"/>
<path d="M163.179 91.7167H162.579V97.5476H163.179V91.7167Z" fill="#FFA412"/>
<path d="M164.402 91.7167H163.803V97.5476H164.402V91.7167Z" fill="#FFA412"/>
<path d="M165.325 91.7325V97.5239C165.254 97.5397 165.175 97.5476 165.104 97.5476H164.733V91.7167H165.104C165.175 91.7167 165.254 91.7246 165.325 91.7325Z" fill="#FFA412"/>
<path d="M166.153 92.2769V96.9874C166.011 97.2004 165.798 97.3661 165.562 97.4608V91.8035C165.798 91.8903 166.003 92.0638 166.153 92.2769Z" fill="#FFA412"/>
<path d="M166.256 87.1956V90.4858C166.256 90.7462 166.177 90.9908 166.035 91.1959C165.893 91.409 165.68 91.5747 165.443 91.6694C165.388 91.693 165.325 91.7088 165.262 91.7246C165.246 91.7325 165.23 91.7325 165.214 91.7325C165.143 91.7482 165.064 91.7561 164.993 91.7561H112.547C112.491 91.7561 112.436 91.7561 112.381 91.7483C112.357 91.7483 112.342 91.7404 112.318 91.7404C111.75 91.6378 111.308 91.1486 111.276 90.5568C111.276 90.5331 111.276 90.5174 111.276 90.4937V87.2034C111.276 87.1798 111.276 87.1561 111.276 87.1403C111.308 86.4696 111.868 85.9331 112.547 85.9331H164.993C165.025 85.9331 165.064 85.9331 165.096 85.941C165.112 85.941 165.128 85.941 165.135 85.9489C165.151 85.9489 165.167 85.9489 165.183 85.9568C165.191 85.9568 165.206 85.9568 165.214 85.9647C165.293 85.9804 165.372 86.0041 165.443 86.0278C165.451 86.0357 165.467 86.0357 165.475 86.0436C165.483 86.0515 165.498 86.0515 165.506 86.0593C165.53 86.0672 165.546 86.083 165.569 86.0909C165.593 86.1067 165.617 86.1146 165.64 86.1304C165.664 86.1461 165.68 86.154 165.704 86.1698C165.727 86.1856 165.751 86.2014 165.767 86.2172C165.782 86.2329 165.798 86.2408 165.814 86.2566C165.822 86.2645 165.838 86.2724 165.846 86.2882C165.877 86.3197 165.909 86.3513 165.94 86.3829C165.948 86.3907 165.956 86.3986 165.964 86.4144C165.972 86.4223 165.98 86.4381 165.988 86.446C166.003 86.4696 166.019 86.4854 166.035 86.5091C166.177 86.6906 166.256 86.9352 166.256 87.1956Z" fill="#FFB93E"/>
<path d="M140.502 91.7561H112.405C112.381 91.7561 112.357 91.7561 112.342 91.7561C112.318 91.7561 112.294 91.7483 112.271 91.7483C111.734 91.6772 111.308 91.1723 111.276 90.5568C111.276 90.5331 111.276 90.5174 111.276 90.4937V87.2034C111.276 87.1798 111.276 87.1561 111.276 87.1403C111.308 86.4696 111.805 85.9331 112.405 85.9331H137.054C137.062 85.9804 137.078 86.0278 137.085 86.0751C137.496 87.7637 138.403 90.0282 140.455 91.7167C140.47 91.7325 140.486 91.7404 140.502 91.7561Z" fill="#FFA412"/>
<path d="M159.881 85.9252H159.281V91.7561H159.881V85.9252Z" fill="#FFA412"/>
<path d="M157.861 85.9252H157.262V91.7561H157.861V85.9252Z" fill="#FFA412"/>
<path d="M155.446 85.9252H154.847V91.7561H155.446V85.9252Z" fill="#FFA412"/>
<path d="M151.738 85.9252H151.139V91.7561H151.738V85.9252Z" fill="#FFA412"/>
<path d="M147.816 85.9252H147.217V91.7561H147.816V85.9252Z" fill="#FFA412"/>
<path d="M141.797 85.9252H141.197V91.7561H141.797V85.9252Z" fill="#FFA412"/>
<path d="M136.171 85.9252H135.571V91.7561H136.171V85.9252Z" fill="#FFA412"/>
<path d="M131.145 85.9252H130.545V91.7561H131.145V85.9252Z" fill="#FFA412"/>
<path d="M161.798 85.9252H161.198V91.7561H161.798V85.9252Z" fill="#FFA412"/>
<path d="M163.068 85.9252H162.469V91.7561H163.068V85.9252Z" fill="#FFA412"/>
<path d="M164.3 85.9252H163.7V91.7561H164.3V85.9252Z" fill="#FFA412"/>
<path d="M165.215 85.9489V91.7404C165.144 91.7561 165.065 91.764 164.994 91.764H164.623V85.9252H164.994C165.065 85.9252 165.144 85.9331 165.215 85.9489Z" fill="#FFA412"/>
<path d="M166.043 86.4854V91.196C165.901 91.409 165.688 91.5747 165.451 91.6694V86.012C165.688 86.1067 165.893 86.2724 166.043 86.4854Z" fill="#FFA412"/>
<path d="M168.97 81.5066V84.7969C168.97 85.0573 168.891 85.3019 168.749 85.507C168.607 85.7201 168.394 85.8858 168.157 85.9804C168.086 86.012 168.007 86.0278 167.928 86.0436C167.857 86.0594 167.778 86.0672 167.707 86.0672H115.261C115.048 86.0672 114.85 86.012 114.677 85.9252C114.306 85.728 114.038 85.3571 113.998 84.9231C113.998 84.9074 113.998 84.8837 113.99 84.8679C113.99 84.8442 113.99 84.8285 113.99 84.8048V81.5066C113.99 81.4829 113.99 81.4593 113.99 81.4435C114.022 80.7728 114.582 80.2363 115.261 80.2363H167.707C167.786 80.2363 167.857 80.2442 167.928 80.2599C168.007 80.2757 168.086 80.2994 168.157 80.3231C168.402 80.4177 168.607 80.5834 168.749 80.7965C168.891 81.0016 168.97 81.2462 168.97 81.5066Z" fill="#FFB93E"/>
<path d="M143.216 86.0672H115.119C114.929 86.0672 114.756 86.012 114.598 85.9252C114.266 85.728 114.03 85.3571 113.99 84.9231C113.99 84.9074 113.99 84.8837 113.982 84.8679C113.982 84.8442 113.982 84.8285 113.982 84.8048V81.5066C113.982 81.4829 113.982 81.4593 113.982 81.4435C114.014 80.7728 114.511 80.2363 115.111 80.2363H139.76C140.147 81.909 141.022 84.1972 143.034 85.9252C143.098 85.9726 143.153 86.0199 143.216 86.0672Z" fill="#FFA412"/>
<path d="M162.587 80.2363H161.987V86.0672H162.587V80.2363Z" fill="#FFA412"/>
<path d="M160.575 80.2363H159.976V86.0672H160.575V80.2363Z" fill="#FFA412"/>
<path d="M158.152 80.2363H157.553V86.0672H158.152V80.2363Z" fill="#FFA412"/>
<path d="M154.444 80.2363H153.845V86.0672H154.444V80.2363Z" fill="#FFA412"/>
<path d="M150.523 80.2363H149.923V86.0672H150.523V80.2363Z" fill="#FFA412"/>
<path d="M144.511 80.2363H143.911V86.0672H144.511V80.2363Z" fill="#FFA412"/>
<path d="M138.877 80.2363H138.277V86.0672H138.877V80.2363Z" fill="#FFA412"/>
<path d="M133.851 80.2363H133.251V86.0672H133.851V80.2363Z" fill="#FFA412"/>
<path d="M164.513 80.2363H163.913V86.0672H164.513V80.2363Z" fill="#FFA412"/>
<path d="M165.782 80.2363H165.183V86.0672H165.782V80.2363Z" fill="#FFA412"/>
<path d="M167.006 80.2363H166.406V86.0672H167.006V80.2363Z" fill="#FFA412"/>
<path d="M167.921 80.26V86.0514C167.85 86.0672 167.771 86.0751 167.7 86.0751H167.329V80.2442H167.7C167.779 80.2363 167.85 80.2442 167.921 80.26Z" fill="#FFA412"/>
<path d="M168.749 80.7965V85.507C168.607 85.7201 168.394 85.8858 168.157 85.9805V80.3231C168.402 80.4178 168.607 80.5835 168.749 80.7965Z" fill="#FFA412"/>
<path d="M173.255 75.6758V78.9659C173.255 79.2263 173.176 79.4709 173.034 79.676C172.892 79.8891 172.679 80.0548 172.442 80.1495C172.371 80.181 172.292 80.1968 172.213 80.2126C172.142 80.2284 172.064 80.2363 171.993 80.2363H119.538C118.859 80.2363 118.307 79.6997 118.268 79.0291C118.268 79.0054 118.268 78.9817 118.268 78.9659V75.6758C118.268 75.6521 118.268 75.6284 118.268 75.6126C118.299 74.9972 118.78 74.4922 119.388 74.4212C119.435 74.4133 119.491 74.4133 119.538 74.4133H171.985C172.064 74.4133 172.135 74.4212 172.206 74.437C172.284 74.4528 172.363 74.4765 172.434 74.5001C172.679 74.5948 172.884 74.7605 173.026 74.9735C173.176 75.1708 173.255 75.4154 173.255 75.6758Z" fill="#FFB93E"/>
<path d="M147.501 80.2363H119.404C118.804 80.2363 118.299 79.6997 118.275 79.0291C118.275 79.0054 118.275 78.9817 118.275 78.9659V75.6758C118.275 75.6521 118.275 75.6284 118.275 75.6126C118.307 74.9972 118.733 74.4922 119.27 74.4212C119.317 74.4133 119.356 74.4133 119.404 74.4133H144.053V74.4212C144.447 76.1334 145.363 78.5004 147.501 80.2363Z" fill="#FFA412"/>
<path d="M166.88 74.4054H166.28V80.2363H166.88V74.4054Z" fill="#FFA412"/>
<path d="M164.86 74.4054H164.261V80.2363H164.86V74.4054Z" fill="#FFA412"/>
<path d="M162.438 74.4054H161.838V80.2363H162.438V74.4054Z" fill="#FFA412"/>
<path d="M158.73 74.4054H158.13V80.2363H158.73V74.4054Z" fill="#FFA412"/>
<path d="M154.808 74.4054H154.208V80.2363H154.808V74.4054Z" fill="#FFA412"/>
<path d="M148.796 74.4054H148.196V80.2363H148.796V74.4054Z" fill="#FFA412"/>
<path d="M143.17 74.4054H142.57V80.2363H143.17V74.4054Z" fill="#FFA412"/>
<path d="M138.144 74.4054H137.544V80.2363H138.144V74.4054Z" fill="#FFA412"/>
<path d="M168.797 74.4054H168.197V80.2363H168.797V74.4054Z" fill="#FFA412"/>
<path d="M170.067 74.4054H169.468V80.2363H170.067V74.4054Z" fill="#FFA412"/>
<path d="M171.291 74.4054H170.691V80.2363H171.291V74.4054Z" fill="#FFA412"/>
<path d="M172.214 74.4291V80.2205C172.143 80.2363 172.064 80.2442 171.993 80.2442H171.622V74.4054H171.993C172.064 74.4054 172.135 74.4133 172.214 74.4291Z" fill="#FFA412"/>
<path d="M173.034 74.9655V79.676C172.892 79.8891 172.679 80.0548 172.442 80.1495V74.4921C172.687 74.5868 172.892 74.7525 173.034 74.9655Z" fill="#FFA412"/>
<path d="M166.366 69.8527V73.1429C166.366 73.4033 166.287 73.6479 166.145 73.8531C166.003 74.0661 165.79 74.2318 165.554 74.3265C165.483 74.358 165.404 74.3738 165.325 74.3896C165.301 74.3975 165.277 74.3975 165.254 74.3975C165.23 74.3975 165.214 74.4054 165.198 74.4054C165.191 74.4054 165.183 74.4054 165.167 74.4054C165.143 74.4054 165.127 74.4054 165.104 74.4054H112.657C111.978 74.4054 111.426 73.8688 111.387 73.1982C111.387 73.1745 111.387 73.1508 111.387 73.135V69.8448C111.387 69.8211 111.387 69.7975 111.387 69.7817C111.418 69.111 111.978 68.5745 112.657 68.5745H165.104C165.127 68.5745 165.151 68.5745 165.175 68.5745C165.23 68.5745 165.277 68.5824 165.333 68.5902C165.412 68.606 165.49 68.6297 165.561 68.6534C165.601 68.6691 165.64 68.6849 165.672 68.7007C165.696 68.7086 165.719 68.7244 165.735 68.7323C165.735 68.7323 165.743 68.7323 165.743 68.7402C165.767 68.7559 165.782 68.7638 165.806 68.7796C165.814 68.7796 165.814 68.7875 165.814 68.7875C165.83 68.8033 165.853 68.8112 165.869 68.827C165.916 68.8585 165.956 68.898 165.995 68.9374C166.011 68.9532 166.019 68.9611 166.035 68.9769L166.043 68.9848C166.051 68.9926 166.059 69.0005 166.066 69.0084C166.066 69.0084 166.066 69.0084 166.074 69.0163C166.09 69.0321 166.098 69.0479 166.114 69.0637C166.13 69.0873 166.145 69.111 166.161 69.1347C166.287 69.3477 166.366 69.5923 166.366 69.8527Z" fill="#FFB93E"/>
<path d="M140.612 74.4211H112.515C111.915 74.4211 111.41 73.8846 111.387 73.2139C111.387 73.1903 111.387 73.1666 111.387 73.1508V69.8605C111.387 69.8369 111.387 69.8132 111.387 69.7974C111.418 69.1267 111.915 68.5902 112.515 68.5902H137.164C137.172 68.6376 137.188 68.677 137.196 68.7243C137.606 70.4286 138.529 72.7168 140.604 74.4132C140.604 74.4132 140.612 74.4132 140.612 74.4211Z" fill="#FFA412"/>
<path d="M159.991 68.5902H159.392V74.4211H159.991V68.5902Z" fill="#FFA412"/>
<path d="M157.971 68.5902H157.371V74.4211H157.971V68.5902Z" fill="#FFA412"/>
<path d="M155.557 68.5902H154.957V74.4211H155.557V68.5902Z" fill="#FFA412"/>
<path d="M151.848 68.5902H151.249V74.4211H151.848V68.5902Z" fill="#FFA412"/>
<path d="M147.919 68.5902H147.319V74.4211H147.919V68.5902Z" fill="#FFA412"/>
<path d="M141.906 68.5902H141.307V74.4211H141.906V68.5902Z" fill="#FFA412"/>
<path d="M136.281 68.5902H135.682V74.4211H136.281V68.5902Z" fill="#FFA412"/>
<path d="M131.255 68.5902H130.655V74.4211H131.255V68.5902Z" fill="#FFA412"/>
<path d="M161.908 68.5902H161.309V74.4211H161.908V68.5902Z" fill="#FFA412"/>
<path d="M163.179 68.5902H162.579V74.4211H163.179V68.5902Z" fill="#FFA412"/>
<path d="M164.402 68.5902H163.803V74.4211H164.402V68.5902Z" fill="#FFA412"/>
<path d="M165.325 68.606V74.3975C165.254 74.4132 165.175 74.4211 165.104 74.4211H164.733V68.5902H165.104C165.175 68.5902 165.254 68.5902 165.325 68.606Z" fill="#FFA412"/>
<path d="M166.153 69.1504V73.8531C166.011 74.0661 165.798 74.2318 165.562 74.3265V68.6691C165.798 68.7638 166.003 68.9374 166.153 69.1504Z" fill="#FFA412"/>
<path d="M170.225 64.1559V67.4462C170.225 67.7066 170.146 67.9512 170.004 68.1563C169.862 68.3694 169.649 68.5351 169.412 68.6297C169.341 68.6613 169.262 68.6771 169.183 68.6929C169.112 68.7086 169.033 68.7165 168.962 68.7165H116.515C116.31 68.7165 116.121 68.6692 115.947 68.5824C115.569 68.393 115.292 68.0064 115.253 67.5645C115.253 67.5488 115.253 67.533 115.253 67.5093C115.253 67.4856 115.253 67.462 115.253 67.4462V64.1559C115.253 64.1323 115.253 64.1086 115.253 64.0928C115.284 63.4774 115.766 62.9724 116.373 62.9014C116.421 62.8935 116.476 62.8935 116.523 62.8935H168.97C169.049 62.8935 169.12 62.9014 169.191 62.9172C169.27 62.9329 169.349 62.9566 169.42 62.9803C169.664 63.075 169.87 63.2407 170.012 63.4537C170.146 63.651 170.225 63.8956 170.225 64.1559Z" fill="#FFB93E"/>
<path d="M144.471 68.7244H116.373C116.192 68.7244 116.018 68.677 115.868 68.5903C115.529 68.4009 115.285 68.0143 115.245 67.5724C115.245 67.5566 115.245 67.5409 115.245 67.5172C115.245 67.4935 115.245 67.4698 115.245 67.4541V64.1638C115.245 64.1401 115.245 64.1165 115.245 64.1007C115.277 63.4852 115.703 62.9803 116.239 62.9093C116.287 62.9014 116.326 62.9014 116.373 62.9014H141.023V62.9093C141.409 64.582 142.285 66.8702 144.313 68.5981C144.36 68.6297 144.416 68.6771 144.471 68.7244Z" fill="#FFA412"/>
<path d="M163.85 62.8935H163.25V68.7244H163.85V62.8935Z" fill="#FFA412"/>
<path d="M161.83 62.8935H161.23V68.7244H161.83V62.8935Z" fill="#FFA412"/>
<path d="M159.407 62.8935H158.808V68.7244H159.407V62.8935Z" fill="#FFA412"/>
<path d="M155.699 62.8935H155.1V68.7244H155.699V62.8935Z" fill="#FFA412"/>
<path d="M151.778 62.8935H151.178V68.7244H151.778V62.8935Z" fill="#FFA412"/>
<path d="M145.766 62.8935H145.166V68.7244H145.766V62.8935Z" fill="#FFA412"/>
<path d="M140.14 62.8935H139.54V68.7244H140.14V62.8935Z" fill="#FFA412"/>
<path d="M135.113 62.8935H134.514V68.7244H135.113V62.8935Z" fill="#FFA412"/>
<path d="M165.767 62.8935H165.167V68.7244H165.767V62.8935Z" fill="#FFA412"/>
<path d="M167.037 62.8935H166.438V68.7244H167.037V62.8935Z" fill="#FFA412"/>
<path d="M168.261 62.8935H167.661V68.7244H168.261V62.8935Z" fill="#FFA412"/>
<path d="M169.184 62.9093V68.7007C169.113 68.7165 169.034 68.7244 168.963 68.7244H168.592V62.8935H168.963C169.034 62.8935 169.105 62.9014 169.184 62.9093Z" fill="#FFA412"/>
<path d="M170.004 63.4537V68.1642C169.862 68.3772 169.649 68.5429 169.412 68.6376V62.9803C169.657 63.0671 169.862 63.2407 170.004 63.4537Z" fill="#FFA412"/>
<path d="M166.366 58.3408V61.631C166.366 61.8914 166.287 62.136 166.145 62.3412C166.003 62.5542 165.79 62.7199 165.554 62.8146C165.483 62.8461 165.404 62.8619 165.325 62.8777C165.301 62.8856 165.277 62.8856 165.254 62.8856C165.238 62.8856 165.23 62.8856 165.214 62.8935C165.198 62.8935 165.191 62.8935 165.175 62.8935C165.151 62.8935 165.127 62.8935 165.104 62.8935H112.657C111.978 62.8935 111.426 62.3569 111.387 61.6863C111.387 61.6626 111.387 61.6389 111.387 61.6231V58.3329C111.387 58.3092 111.387 58.2856 111.387 58.2698C111.418 57.5991 111.978 57.0626 112.657 57.0626H165.104C165.183 57.0626 165.254 57.0705 165.325 57.0862C165.404 57.102 165.483 57.1257 165.554 57.1494C165.798 57.244 166.003 57.4097 166.145 57.6228C166.287 57.8358 166.366 58.0725 166.366 58.3408Z" fill="#FFB93E"/>
<path d="M140.612 62.9014H112.515C111.915 62.9014 111.41 62.3648 111.387 61.6941C111.387 61.6705 111.387 61.6468 111.387 61.631V58.3408C111.387 58.3171 111.387 58.2934 111.387 58.2776C111.418 57.607 111.915 57.0704 112.515 57.0704H137.164C137.559 58.7826 138.474 61.1497 140.604 62.8935C140.604 62.8935 140.612 62.8935 140.612 62.9014Z" fill="#FFA412"/>
<path d="M159.991 57.0704H159.392V62.9014H159.991V57.0704Z" fill="#FFA412"/>
<path d="M157.971 57.0704H157.371V62.9014H157.971V57.0704Z" fill="#FFA412"/>
<path d="M155.557 57.0704H154.957V62.9014H155.557V57.0704Z" fill="#FFA412"/>
<path d="M151.848 57.0704H151.249V62.9014H151.848V57.0704Z" fill="#FFA412"/>
<path d="M147.919 57.0704H147.319V62.9014H147.919V57.0704Z" fill="#FFA412"/>
<path d="M141.906 57.0704H141.307V62.9014H141.906V57.0704Z" fill="#FFA412"/>
<path d="M136.281 57.0704H135.682V62.9014H136.281V57.0704Z" fill="#FFA412"/>
<path d="M131.255 57.0704H130.655V62.9014H131.255V57.0704Z" fill="#FFA412"/>
<path d="M161.908 57.0704H161.309V62.9014H161.908V57.0704Z" fill="#FFA412"/>
<path d="M163.179 57.0704H162.579V62.9014H163.179V57.0704Z" fill="#FFA412"/>
<path d="M164.402 57.0704H163.803V62.9014H164.402V57.0704Z" fill="#FFA412"/>
<path d="M165.325 57.0862V62.8777C165.254 62.8935 165.175 62.9014 165.104 62.9014H164.733V57.0704H165.104C165.175 57.0704 165.254 57.0783 165.325 57.0862Z" fill="#FFA412"/>
<path d="M166.153 57.6306V62.3411C166.011 62.5542 165.798 62.7199 165.562 62.8146V57.1572C165.798 57.2519 166.003 57.4176 166.153 57.6306Z" fill="#FFA412"/>
<path d="M139.16 112.038C150.752 100.446 150.752 81.6521 139.16 70.0601C127.569 58.4682 108.774 58.4682 97.1824 70.0601C85.5905 81.6521 85.5905 100.446 97.1824 112.038C108.774 123.63 127.569 123.63 139.16 112.038Z" fill="#E2810E"/>
<path d="M136.573 112.037C148.165 100.445 148.165 81.651 136.573 70.0591C124.981 58.4671 106.186 58.4671 94.5945 70.0591C83.0026 81.651 83.0026 100.445 94.5945 112.037C106.186 123.629 124.981 123.629 136.573 112.037Z" fill="#FFB93E"/>
<path d="M115.585 118.441C108.358 118.441 101.572 115.624 96.459 110.519C91.3539 105.414 88.5371 98.6207 88.5371 91.3932C88.5371 84.1656 91.3539 77.38 96.459 72.2671C101.564 67.1621 108.358 64.3452 115.585 64.3452C122.813 64.3452 129.598 67.1621 134.711 72.2671C139.824 77.3721 142.633 84.1656 142.633 91.3932C142.633 98.6207 139.816 105.406 134.711 110.519C129.606 115.632 122.813 118.441 115.585 118.441ZM115.585 65.9706C108.791 65.9706 102.408 68.6139 97.6031 73.4191C92.7979 78.2242 90.1546 84.6075 90.1546 91.401C90.1546 98.1946 92.7979 104.578 97.6031 109.383C102.408 114.188 108.791 116.831 115.585 116.831C122.379 116.831 128.762 114.188 133.567 109.383C138.372 104.578 141.015 98.1946 141.015 91.401C141.015 84.6075 138.372 78.2242 133.567 73.4191C128.77 68.6139 122.379 65.9706 115.585 65.9706Z" fill="#FFA412"/>
<path d="M204.208 100.656C204.208 100.656 200.989 96.9006 204.011 94.5098C204.011 94.5098 206.22 93.1764 208.019 93.279C208.019 93.279 205.47 97.5555 206.291 97.9816C207.119 98.4076 208.792 93.0107 208.792 93.0107C208.792 93.0107 213.818 92.5215 215.428 93.3026C215.428 93.3026 211.136 96.8138 212.035 97.0268C212.942 97.2399 217.574 93.7839 217.574 93.7839C217.574 93.7839 222.245 94.5809 222.001 97.4292C221.748 100.278 220.138 101.161 219.436 101.082C218.726 101.004 214.584 99.4255 214.497 100.009C214.41 100.593 216.903 102.487 218.647 102.574C218.647 102.574 215.349 106.211 213.163 105.162C210.97 104.112 210.788 102.447 209.423 101.824C208.058 101.201 206.891 101.201 207.459 101.84C208.019 102.479 210.496 103.094 211.278 104.475C212.059 105.856 212.761 106.787 210.496 106.448C208.232 106.109 204.547 104.452 204.381 102.55C204.208 100.656 204.208 100.656 204.208 100.656Z" fill="#82B378"/>
<path d="M219.712 97.5161C219.712 97.5161 207.016 97.0269 204.215 100.656C204.215 100.656 203.592 102.511 201.69 104.207L201.391 105.02C201.391 105.02 203.592 102.7 204.381 102.558C204.373 102.558 203.142 98.0605 219.712 97.5161Z" fill="#82B378"/>
<path d="M201.683 104.207C201.683 104.207 198.961 106.219 198.771 109.825L199.269 109.872C199.269 109.872 200.137 106.148 201.715 104.696C203.277 103.237 201.683 104.207 201.683 104.207Z" fill="#82B378"/>
<path d="M192.949 95.938C192.949 95.938 198.07 93.066 195.679 89.176C195.679 89.176 193.769 86.7853 191.718 86.1698C191.718 86.1698 192.807 91.9771 191.718 92.1112C190.629 92.2454 190.968 85.5544 190.968 85.5544C190.968 85.5544 185.571 82.9585 183.457 83.1636C183.457 83.1636 186.802 88.8289 185.713 88.6947C184.617 88.5606 180.861 82.8243 180.861 82.8243C180.861 82.8243 175.33 81.7986 174.438 85.081C173.547 88.3555 174.983 89.9966 175.803 90.2018C176.624 90.4069 181.879 90.3359 181.745 91.0224C181.61 91.7088 178.06 92.7977 176.079 92.1822C176.079 92.1822 178.265 97.5792 181.137 97.303C184.009 97.0269 184.893 95.2516 186.668 95.1174C188.443 94.9833 189.745 95.4567 188.854 95.938C187.962 96.4193 184.964 96.0958 183.528 97.3109C182.092 98.5339 180.932 99.2835 183.599 99.8279C186.266 100.372 191.047 100.033 192.002 97.9816C192.949 95.938 192.949 95.938 192.949 95.938Z" fill="#A8D29F"/>
<path d="M176.971 86.0988C176.971 86.0988 191.315 90.7462 192.949 95.9301C192.949 95.9301 192.878 98.2499 194.314 100.917V101.943C194.314 101.943 192.814 98.4629 191.994 97.9816C191.994 97.9816 195.205 93.4762 176.971 86.0988Z" fill="#82B378"/>
<path d="M194.321 100.925C194.321 100.925 196.53 104.286 195.268 108.373L194.7 108.223C194.7 108.223 195.252 103.718 194.092 101.453C192.941 99.1809 194.321 100.925 194.321 100.925Z" fill="#82B378"/>
<path d="M201.099 91.977C201.099 91.977 194.345 88.1976 197.501 83.061C197.501 83.061 200.018 79.9128 202.725 79.1001C202.725 79.1001 201.281 86.7537 202.725 86.9351C204.168 87.1166 203.719 78.2953 203.719 78.2953C203.719 78.2953 210.828 74.8709 213.621 75.147C213.621 75.147 209.21 82.6191 210.646 82.4377C212.09 82.2562 217.038 74.6973 217.038 74.6973C217.038 74.6973 224.328 73.348 225.504 77.6719C226.672 81.9958 224.786 84.1577 223.705 84.426C222.624 84.6943 215.688 84.6075 215.87 85.507C216.051 86.4065 220.73 87.8504 223.342 87.0377C223.342 87.0377 220.462 94.1469 216.682 93.7918C212.903 93.4288 211.727 91.0933 209.392 90.9118C207.048 90.7304 205.344 91.3616 206.512 91.9928C207.68 92.624 211.641 92.198 213.534 93.8076C215.428 95.4172 216.959 96.4035 213.447 97.1294C209.936 97.8474 203.632 97.3977 202.377 94.6992C201.099 91.977 201.099 91.977 201.099 91.977Z" fill="#A8D29F"/>
<path d="M222.166 79.0134C222.166 79.0134 203.261 85.1362 201.099 91.9771C201.099 91.9771 201.186 95.0385 199.3 98.5497V99.8989C199.3 99.8989 201.28 95.3068 202.361 94.6755C202.361 94.6834 198.132 88.7421 222.166 79.0134Z" fill="#82B378"/>
<path d="M199.3 98.5496C199.3 98.5496 196.38 102.976 198.045 108.365L198.795 108.16C198.795 108.16 198.069 102.226 199.592 99.2361C201.123 96.2615 199.3 98.5496 199.3 98.5496Z" fill="#82B378"/>
<path d="M200.871 120.059C208.177 120.059 214.095 114.133 214.095 106.834H187.639C187.647 114.133 193.572 120.059 200.871 120.059Z" fill="#F1A34F"/>
<path d="M204.129 119.956C203.592 120.027 203.04 120.059 202.488 120.059C195.181 120.059 189.264 114.133 189.264 106.834H192.546C192.546 113.581 197.596 119.143 204.129 119.956Z" fill="#FFB973"/>
<path d="M214.284 120.729H187.465C187.465 119.83 188.199 119.096 189.098 119.096H212.651C213.55 119.096 214.284 119.83 214.284 120.729Z" fill="#F1A34F"/>
<path d="M214.403 106.827H187.213V107.229H214.403V106.827Z" fill="#D86713"/>
<path d="M143.84 57.0705L157.846 57.0547C159.668 57.0547 161.16 55.5556 161.16 53.7329L161.152 47.6652C161.152 45.8426 159.653 44.3513 157.83 44.3513L143.825 44.3671C142.002 44.3671 140.511 45.8663 140.511 47.6889L140.519 53.7566C140.527 55.5871 142.018 57.0784 143.84 57.0705Z" fill="#233862"/>
<path d="M158.863 45.9373C158.342 45.0299 157.395 44.3829 156.307 44.2803C156.196 44.2724 156.093 44.2645 155.983 44.2645H153.198V42.9547C153.198 42.6628 153.079 42.3866 152.874 42.1815C152.669 41.9763 152.393 41.858 152.101 41.858H151.375H148.448H147.919C147.312 41.858 146.822 42.3551 146.822 42.9547V44.2645L142.009 44.2724C140.179 44.2724 138.688 45.7716 138.688 47.6021L138.695 53.7407C138.695 55.5713 140.195 57.0626 142.025 57.0626L156.007 57.0468C156.251 57.0468 156.496 57.0152 156.725 56.9679C157.096 56.889 157.443 56.739 157.758 56.5418C158.705 55.95 159.329 54.9006 159.329 53.7171L159.321 47.5784C159.305 46.9867 159.147 46.4264 158.863 45.9373ZM147.493 42.9626C147.493 42.7811 147.611 42.6233 147.777 42.5681C147.817 42.5523 147.856 42.5523 147.895 42.5523H148.519H150.823H152.077C152.306 42.5523 152.488 42.7338 152.488 42.9626V44.2724L147.485 44.2803L147.493 42.9626Z" fill="#2B478B"/>
<path d="M131.184 99.4886L126.119 97.7764L127.768 92.9081L132.833 94.6203C133.591 94.8807 134.419 94.4704 134.68 93.7129C134.94 92.9554 134.53 92.127 133.764 91.8666L128.699 90.1544L130.979 83.4003C131.31 82.4141 131.366 81.625 131.129 81.0569C130.908 80.5125 130.49 80.1574 129.827 79.9286C129.196 79.7156 128.667 79.755 128.17 80.047C127.641 80.3626 127.207 81.0175 126.868 82.0038L124.588 88.7578L115.064 85.5386L113.084 78.0429C112.926 77.3801 112.768 76.7567 112.618 76.1571C112.484 75.6206 112.326 75.1629 112.153 74.8079C112.003 74.4922 111.798 74.2161 111.537 73.9715C111.293 73.7427 110.938 73.5454 110.504 73.3955C109.943 73.2061 109.383 73.1904 108.791 73.3403C108.208 73.4902 107.742 73.7663 107.371 74.1766C107.04 74.5711 106.708 75.2418 106.401 76.1492L104.436 81.9485L99.4257 80.2521C98.6682 79.9917 97.8397 80.402 97.5793 81.1674C97.3189 81.9249 97.7292 82.7533 98.4946 83.0137L103.505 84.7101L101.856 89.5784L96.8455 87.882C96.0881 87.6216 95.2596 88.0319 94.9992 88.7973C94.7388 89.5547 95.1491 90.3832 95.9145 90.6357L100.925 92.3321L98.321 100.041C97.9975 100.996 97.9581 101.785 98.2027 102.369C98.4315 102.929 98.8497 103.292 99.4967 103.513C100.128 103.726 100.672 103.686 101.209 103.386C101.761 103.079 102.211 102.432 102.534 101.469L105.138 93.7602L113.754 96.6717L116.003 105.398C116.169 105.982 116.342 106.574 116.516 107.15C116.674 107.671 116.879 108.152 117.124 108.578C117.345 108.965 117.605 109.28 117.913 109.525C118.228 109.777 118.623 109.983 119.088 110.14C120.351 110.566 121.771 110.614 122.742 107.758L125.187 100.538L130.253 102.25C131.011 102.511 131.839 102.1 132.099 101.335C132.352 100.57 131.942 99.749 131.184 99.4886ZM123.649 91.5194L122 96.3877L117.51 94.8728L115.94 88.9156L123.649 91.5194ZM109.612 80.5441L110.504 84.0079L108.649 83.3846L109.612 80.5441ZM106.077 90.9987L107.726 86.1304L111.372 87.3612L112.902 93.3026L106.077 90.9987ZM119.704 103.181L118.402 98.2419L121.069 99.1414L119.704 103.181Z" fill="#FFA412"/>
</g>
<defs>
<clipPath id="clip0">
<rect width="252" height="121.4" fill="white"/>
</clipPath>
</defs>
</svg>
