<svg width="252" height="160" viewBox="0 0 252 160" fill="none" xmlns="http://www.w3.org/2000/svg">
<g clip-path="url(#clip0)">
<path d="M195.835 76.3917C186.14 70.5404 184.201 93.9456 184.201 93.9456C184.201 93.9456 187.433 52.3365 177.091 50.386C166.75 48.4356 169.336 87.4441 169.336 87.4441C169.336 87.4441 159.641 66.6396 148.007 78.9923C136.373 91.345 158.348 118.001 158.348 118.001L193.896 117.351" fill="#FFB15E"/>
<path d="M176.704 60.2032C174.248 72.946 178.32 85.9488 178.966 98.8866C179.418 108.054 178.19 117.286 175.217 125.933" stroke="#FFFF83" stroke-miterlimit="10" stroke-linecap="round"/>
<path d="M188.531 115.66C185.17 120.666 178.772 122.552 174.441 126.778" stroke="#FFFF83" stroke-miterlimit="10" stroke-linecap="round"/>
<path d="M155.246 83.8033C158.413 92.2552 165.329 98.7566 169.142 106.948C171.081 111.044 172.18 115.4 173.02 119.821C173.537 122.552 174.119 125.607 176.445 127.168" stroke="#FFFF83" stroke-miterlimit="10" stroke-linecap="round"/>
<path d="M160.029 92.7103C160.417 92.3852 160.61 91.8651 160.804 91.41C161.451 89.4596 161.968 87.5092 162.356 85.4937" stroke="#FFFF83" stroke-miterlimit="10" stroke-linecap="round"/>
<path d="M164.294 98.5615C164.618 96.286 165.005 94.0755 165.329 91.8" stroke="#FFFF83" stroke-miterlimit="10" stroke-linecap="round"/>
<path d="M168.689 106.038C168.689 103.958 168.625 101.877 168.496 99.7968" stroke="#FFFF83" stroke-miterlimit="10" stroke-linecap="round"/>
<path d="M166.621 102.397C164.165 102.983 161.709 103.373 159.188 103.503" stroke="#FFFF83" stroke-miterlimit="10" stroke-linecap="round"/>
<path d="M158.542 90.4998C156.991 90.3698 155.44 90.3048 153.889 90.1747C153.824 90.1747 153.759 90.1747 153.695 90.1097C153.695 90.0447 153.824 90.0447 153.759 90.1097" stroke="#FFFF83" stroke-miterlimit="10" stroke-linecap="round"/>
<path d="M172.955 64.039C173.989 65.0792 174.959 66.2495 175.734 67.4847" stroke="#FFFF83" stroke-miterlimit="10" stroke-linecap="round"/>
<path d="M176.38 73.141C177.35 71.7757 178.449 70.4754 179.612 69.2401" stroke="#FFFF83" stroke-miterlimit="10" stroke-linecap="round"/>
<path d="M176.833 81.3978C175.282 81.0077 173.795 80.4876 172.374 79.8375" stroke="#FFFF83" stroke-miterlimit="10" stroke-linecap="round"/>
<path d="M178.449 89.9797C179.547 88.0292 180.646 86.1438 181.81 84.2584" stroke="#FFFF83" stroke-miterlimit="10" stroke-linecap="round"/>
<path d="M178.772 96.6112C177.738 96.4161 176.704 96.026 175.799 95.4409C175.217 95.1158 174.636 94.6607 173.925 94.5957" stroke="#FFFF83" stroke-miterlimit="10" stroke-linecap="round"/>
<path opacity="0.2" d="M189.371 114.815C186.528 113.06 183.619 111.044 182.456 107.924C181.099 104.348 182.52 100.187 185.235 97.5213C187.885 94.8557 191.634 93.4254 195.318 92.6453" fill="#D1597C"/>
<path opacity="0.2" d="M195.576 135.1C187.885 127.233 177.35 122.357 166.427 121.577C155.504 120.796 144.388 124.177 135.662 130.874C132.754 133.084 129.91 136.465 130.815 139.976C131.591 143.031 134.822 144.722 137.731 145.957C150.269 151.418 162.872 156.879 176.187 160" fill="#D1597C"/>
<path opacity="0.2" d="M0 126.453C14.1544 133.539 31.9282 132.564 45.2424 123.982C51.2531 120.146 56.2944 114.88 62.2406 111.044C77.5584 101.227 98.1113 101.747 114.334 109.939C101.02 109.744 87.6409 111.239 74.6499 114.295C64.6966 116.635 53.5799 121.382 51.1239 131.394C50.5422 133.734 50.6068 136.465 52.2226 138.285C55.325 141.926 61.0772 139.651 65.86 139.455C78.14 138.935 87.2531 154.279 99.4686 152.913C104.833 152.328 109.357 148.492 112.718 144.202C116.079 139.911 118.6 134.97 122.09 130.874C130.104 121.447 142.837 116.896 155.181 116.766C167.526 116.635 179.612 120.471 190.923 125.412" fill="#D1597C"/>
<path d="M191.957 108.379C182.456 109.029 170.24 109.354 160.739 109.159C141.285 108.769 121.896 108.964 102.441 109.874C85.1201 110.654 67.6048 113.385 50.3481 112.475C36.5168 111.759 24.4953 110.524 13.5725 120.471C7.36781 125.998 55.6479 124.307 76.524 127.298C72.9693 129.573 73.0985 132.239 74.6497 132.499C89.7089 135.62 105.35 134.579 120.668 133.409C164.553 130.093 208.179 132.564 251.871 127.493" fill="#DAA59C"/>
<g clip-path="url(#clip1)">
<path d="M134.19 29.5298L125.208 40.6711C126.815 38.6846 126.636 36.0935 124.845 32.4517L133.827 21.3103C135.618 24.9521 135.797 27.5432 134.19 29.5298Z" fill="#49721F"/>
<path d="M168.496 55.4735C168.742 55.5551 168.988 55.6368 169.234 55.7185C169.282 55.7018 169.299 55.7512 169.348 55.7346C169.594 55.8162 169.791 55.9146 170.036 55.9962C170.102 56.029 170.168 56.0618 170.233 56.0946C170.496 56.2257 170.791 56.2907 171.053 56.4218L162.071 67.5632C161.808 67.4321 161.497 67.3176 161.251 67.2359C161.186 67.2032 161.12 67.1704 161.006 67.1543C160.76 67.0726 160.563 66.9743 160.334 66.9421C160.268 66.9093 160.268 66.9093 160.203 66.8765C159.957 66.7948 159.711 66.7132 159.465 66.6315C159.4 66.5987 159.351 66.6154 159.285 66.5826C159.105 66.5337 158.876 66.5015 158.696 66.4526C158.631 66.4199 158.582 66.4365 158.516 66.4038C158.402 66.3877 158.239 66.3882 158.107 66.3227C158.059 66.3394 157.993 66.3066 157.944 66.3233C157.764 66.2744 157.601 66.2749 157.438 66.2755C157.275 66.2761 157.112 66.2767 156.9 66.2939C156.785 66.2778 156.688 66.3112 156.525 66.3118C156.427 66.3451 156.313 66.329 156.215 66.3624C156.118 66.3958 156.003 66.3797 155.906 66.413C155.809 66.4464 155.694 66.4303 155.597 66.4636C155.499 66.497 155.402 66.5304 155.304 66.5637C155.207 66.5971 155.109 66.6304 155.012 66.6638C154.914 66.6972 154.817 66.7305 154.736 66.8133C154.639 66.8467 154.541 66.8801 154.461 66.9629C154.363 66.9962 154.331 67.0624 154.234 67.0958C154.153 67.1786 154.056 67.2119 153.975 67.2948C153.878 67.3281 153.846 67.3943 153.766 67.4771C153.685 67.5599 153.556 67.6594 153.475 67.7422C153.426 67.7589 153.395 67.8251 153.346 67.8417C153.234 67.9907 153.056 68.1069 152.943 68.2558L161.925 57.1145C162.038 56.9655 162.199 56.7999 162.328 56.7004C162.377 56.6837 162.409 56.6176 162.457 56.6009C162.489 56.5347 162.587 56.5014 162.618 56.4352C162.667 56.4186 162.699 56.3524 162.748 56.3357C162.828 56.2529 162.877 56.2362 162.958 56.1534C163.038 56.0706 163.136 56.0372 163.216 55.9544C163.265 55.9377 163.345 55.8549 163.394 55.8382C163.443 55.8215 163.443 55.8215 163.492 55.8048C163.54 55.7882 163.638 55.7548 163.687 55.7381C163.784 55.7048 163.882 55.6714 163.962 55.5886C164.06 55.5552 164.157 55.5219 164.255 55.4885C164.352 55.4551 164.45 55.4218 164.547 55.3884C164.644 55.3551 164.742 55.3217 164.856 55.3378C164.954 55.3044 165.068 55.3205 165.166 55.2872C165.263 55.2538 165.378 55.2699 165.475 55.2366C165.59 55.2527 165.687 55.2193 165.85 55.2187C165.899 55.2021 165.948 55.1854 166.013 55.2181C166.128 55.2343 166.291 55.2337 166.405 55.2498C166.568 55.2492 166.748 55.2981 166.912 55.2975C166.977 55.3303 167.026 55.3136 167.092 55.3464C167.206 55.3625 167.32 55.3786 167.435 55.3947C167.435 55.3947 167.484 55.378 167.501 55.4275C167.549 55.4108 167.566 55.4603 167.615 55.4436C167.795 55.4925 168.024 55.5247 168.204 55.5735C168.316 55.4246 168.431 55.4407 168.496 55.4735Z" fill="#49721F"/>
<path d="M128.408 59.2472C128.391 59.1977 128.423 59.1316 128.423 59.1316C128.452 58.9004 128.465 58.6197 128.495 58.3885C128.478 58.339 128.527 58.3223 128.51 58.2729C128.523 57.9922 128.504 57.7777 128.534 57.5465C128.517 57.497 128.548 57.4309 128.532 57.3814C128.513 57.1669 128.477 56.9029 128.458 56.6884C128.441 56.6389 128.441 56.6389 128.424 56.5894C128.405 56.3749 128.337 56.177 128.318 55.9625C128.301 55.9131 128.284 55.8636 128.284 55.8636C128.217 55.6657 128.149 55.4679 128.064 55.2206C128.047 55.1711 128.03 55.1217 128.013 55.0722C127.946 54.8743 127.812 54.6437 127.745 54.4459C127.628 54.2647 127.495 54.0341 127.378 53.8529C127.361 53.8034 127.345 53.754 127.279 53.7212C127.162 53.54 126.997 53.3755 126.881 53.1944C126.864 53.1449 126.798 53.1121 126.781 53.0627C126.682 52.9309 126.517 52.7665 126.368 52.6514C126.303 52.6187 126.286 52.5692 126.22 52.5364C126.055 52.3719 125.841 52.2241 125.659 52.0102C125.642 51.9607 125.576 51.9279 125.527 51.9446C125.362 51.7801 125.165 51.6818 125 51.5173C124.934 51.4845 124.852 51.4022 124.786 51.3695C124.589 51.2711 124.424 51.1066 124.227 51.0083C124.161 50.9755 124.096 50.9427 124.03 50.9099C123.833 50.8116 123.619 50.6638 123.422 50.5654C123.291 50.4999 123.225 50.4671 123.094 50.4015C122.765 50.2376 122.437 50.0737 122.109 49.9098L131.091 38.7684C131.419 38.9323 131.748 39.0963 132.076 39.2602C132.207 39.3257 132.273 39.3585 132.404 39.4241C132.601 39.5224 132.798 39.6208 132.946 39.7358L133.012 39.7686C133.078 39.8014 133.143 39.8341 133.209 39.8669C133.423 40.0147 133.62 40.1131 133.785 40.2776C133.851 40.3103 133.934 40.3926 133.999 40.4254C134.065 40.4582 134.147 40.5404 134.213 40.5732C134.344 40.6387 134.444 40.7705 134.575 40.836C134.592 40.8855 134.641 40.8688 134.658 40.9183C134.823 41.0827 134.971 41.1978 135.137 41.3623C135.153 41.4117 135.202 41.395 135.219 41.4445C135.285 41.4773 135.302 41.5268 135.367 41.5595C135.533 41.724 135.632 41.8557 135.797 42.0202C135.814 42.0697 135.88 42.1025 135.897 42.1519C135.897 42.1519 135.914 42.2014 135.962 42.1847C136.079 42.3659 136.227 42.4809 136.344 42.6621C136.361 42.7115 136.378 42.761 136.443 42.7938C136.56 42.975 136.693 43.2056 136.809 43.3868C136.926 43.5679 137.011 43.8152 137.078 44.0131C137.095 44.0625 137.112 44.112 137.129 44.1615C137.197 44.3593 137.264 44.5572 137.349 44.8045C137.366 44.8539 137.383 44.9034 137.383 44.9034C137.451 45.1013 137.47 45.3158 137.489 45.5303C137.506 45.5798 137.506 45.5798 137.522 45.6292C137.541 45.8438 137.577 46.1078 137.596 46.3223C137.613 46.3718 137.581 46.4379 137.598 46.4874C137.617 46.7019 137.604 46.9826 137.575 47.2138C137.592 47.2632 137.543 47.2799 137.56 47.3294C137.53 47.5606 137.5 47.7918 137.487 48.0725C137.504 48.1219 137.473 48.1881 137.49 48.2375C137.477 48.5182 137.398 48.7661 137.337 49.0634C137.305 49.1296 137.322 49.1791 137.29 49.2452C137.228 49.5425 137.167 49.8399 137.105 50.1373L128.123 61.2786C128.185 60.9813 128.246 60.6839 128.308 60.3866C128.34 60.3204 128.323 60.2709 128.354 60.2048C128.333 59.8252 128.395 59.5279 128.408 59.2472Z" fill="#49721F"/>
<path d="M152.34 57.7427C152.439 57.8744 152.539 58.0061 152.638 58.1378C152.721 58.2201 152.755 58.319 152.837 58.4012C152.937 58.5329 153.053 58.7141 153.17 58.8953C153.204 58.9942 153.269 59.027 153.303 59.1259C153.437 59.3565 153.587 59.6366 153.737 59.9167L144.755 71.0581C144.605 70.778 144.471 70.5474 144.321 70.2673C144.287 70.1683 144.222 70.1356 144.188 70.0366C144.071 69.8555 143.972 69.7238 143.855 69.5426C143.773 69.4604 143.739 69.3614 143.656 69.2792C143.557 69.1475 143.457 69.0158 143.358 68.8841C143.275 68.8018 143.241 68.7029 143.159 68.6206C143.059 68.4889 142.96 68.3572 142.86 68.2255C142.777 68.1433 142.761 68.0938 142.678 68.0116C142.578 67.8799 142.43 67.7648 142.331 67.6331C142.314 67.5837 142.248 67.5509 142.231 67.5014C142.066 67.3369 141.901 67.1725 141.736 67.008L141.67 66.9752C141.439 66.7779 141.274 66.6134 141.06 66.4656C140.994 66.4328 140.977 66.3834 140.912 66.3506C140.698 66.2028 140.549 66.0878 140.352 65.9894C140.287 65.9566 140.287 65.9566 140.221 65.9238C140.09 65.8583 139.942 65.7433 139.761 65.6944C139.696 65.6616 139.63 65.6288 139.564 65.596C139.433 65.5305 139.253 65.4816 139.122 65.416C139.056 65.3832 139.007 65.3999 138.942 65.3671C138.696 65.2855 138.467 65.2533 138.221 65.1716C138.173 65.1883 138.107 65.1555 138.058 65.1722C137.781 65.1566 137.535 65.075 137.257 65.0595C137.029 65.0272 136.768 65.0612 136.49 65.0457C136.376 65.0296 136.23 65.0796 136.115 65.0635C135.903 65.0808 135.692 65.098 135.497 65.1647C135.35 65.2148 135.236 65.1987 135.139 65.232C134.878 65.266 134.683 65.3327 134.439 65.4161C134.342 65.4495 134.244 65.4828 134.081 65.4834C133.74 65.6002 133.333 65.6841 132.943 65.8176L141.925 54.6762C142.315 54.5428 142.657 54.426 143.063 54.342C143.161 54.3087 143.307 54.2586 143.421 54.2747C143.665 54.1913 143.877 54.1741 144.121 54.0907C144.267 54.0406 144.381 54.0567 144.528 54.0067C144.739 53.9894 144.934 53.9227 145.146 53.9055C145.309 53.9049 145.407 53.8715 145.521 53.8876C145.636 53.9037 145.733 53.8704 145.848 53.8865C146.011 53.8859 146.125 53.902 146.288 53.9014C146.566 53.9169 146.843 53.9325 147.089 54.0141C147.138 53.9974 147.138 53.9974 147.204 54.0302C147.204 54.0302 147.252 54.0136 147.269 54.063C147.498 54.0952 147.744 54.1769 147.99 54.2585L148.038 54.2419C148.087 54.2252 148.104 54.2747 148.17 54.3074C148.301 54.373 148.481 54.4219 148.612 54.4874C148.661 54.4708 148.678 54.5202 148.727 54.5035L148.792 54.5363C148.924 54.6019 149.121 54.7002 149.252 54.7658L149.318 54.7986C149.515 54.8969 149.729 55.0447 149.877 55.1598C149.877 55.1598 149.894 55.2092 149.943 55.1925C149.96 55.242 150.008 55.2253 150.025 55.2748C150.239 55.4226 150.47 55.6199 150.635 55.7844C150.635 55.7844 150.652 55.8338 150.701 55.8171C150.866 55.9816 151.031 56.1461 151.196 56.3106C151.213 56.3601 151.279 56.3929 151.296 56.4423C151.395 56.574 151.544 56.689 151.66 56.8702C151.66 56.8702 151.677 56.9197 151.726 56.903C151.743 56.9525 151.808 56.9852 151.825 57.0347C151.925 57.1664 152.024 57.2981 152.124 57.4298C152.24 57.611 152.257 57.6605 152.34 57.7427Z" fill="#49721F"/>
<path d="M146.964 16.262L137.982 27.4033C138.624 26.5757 139.199 25.5502 139.672 24.2279L148.654 13.0865C148.181 14.4088 147.606 15.4343 146.964 16.262Z" fill="#49721F"/>
<path d="M176.024 42.7855C176.25 42.6527 176.509 42.4537 176.753 42.3703C176.753 42.3703 176.801 42.3536 176.85 42.3369C177.077 42.204 177.321 42.1206 177.547 41.9878C177.645 41.9544 177.694 41.9377 177.791 41.9044C178.083 41.8043 178.359 41.6548 178.651 41.5547L169.669 52.696C169.377 52.7961 169.101 52.9457 168.809 53.0457C168.711 53.0791 168.663 53.0958 168.565 53.1291C168.321 53.2125 168.095 53.3454 167.868 53.4783C167.819 53.4949 167.819 53.4949 167.77 53.5116C167.495 53.6612 167.268 53.794 167.058 53.9764C167.01 53.993 166.978 54.0592 166.929 54.0759C166.702 54.2087 166.492 54.391 166.331 54.5567C166.251 54.6395 166.17 54.7223 166.09 54.8052C166.041 54.8218 166.009 54.888 165.96 54.9047C165.831 55.0042 165.767 55.1365 165.638 55.236L174.62 44.0946C174.733 43.9456 174.813 43.8628 174.943 43.7633C174.991 43.7466 175.023 43.6805 175.072 43.6638C175.152 43.581 175.184 43.5148 175.282 43.4815C175.282 43.4815 175.282 43.4815 175.33 43.4648C175.54 43.2825 175.718 43.1663 175.928 42.984C175.943 42.8684 175.992 42.8517 176.024 42.7855Z" fill="#49721F"/>
<path d="M164.698 30.6927C164.897 30.9561 165.03 31.1868 165.229 31.4502C165.246 31.4996 165.263 31.5491 165.329 31.5819C165.462 31.8125 165.613 32.0926 165.746 32.3233C165.763 32.3727 165.763 32.3727 165.78 32.4222C165.93 32.7023 166.08 32.9824 166.182 33.2791C166.199 33.3286 166.233 33.4275 166.25 33.477C166.351 33.7738 166.502 34.0539 166.603 34.3506C166.62 34.4001 166.637 34.4496 166.637 34.4496C166.739 34.7463 166.823 34.9936 166.925 35.2904C166.942 35.3399 166.959 35.3893 166.976 35.4388C167.077 35.7356 167.13 36.049 167.183 36.3625C167.2 36.4119 167.217 36.4614 167.202 36.577C167.255 36.8905 167.307 37.2039 167.36 37.5174C167.677 40.6692 166.847 43.4949 165.111 45.581C162.139 49.3057 159.101 52.9976 156.129 56.7223C157.816 54.6529 158.695 51.8105 158.378 48.6587C158.325 48.3453 158.272 48.0318 158.22 47.7184C158.203 47.6689 158.186 47.6194 158.201 47.5038C158.148 47.1904 158.046 46.8936 157.993 46.5802C157.977 46.5307 157.96 46.4812 157.943 46.4318C157.858 46.1845 157.756 45.8877 157.655 45.5909C157.638 45.5415 157.621 45.492 157.621 45.492C157.519 45.1952 157.418 44.8984 157.268 44.6183C157.251 44.5689 157.217 44.47 157.2 44.4205C157.05 44.1404 156.948 43.8436 156.798 43.5635C156.781 43.5141 156.781 43.5141 156.764 43.4646C156.63 43.234 156.48 42.9539 156.347 42.7233C156.33 42.6738 156.313 42.6243 156.247 42.5915C156.097 42.3115 155.915 42.0975 155.716 41.8341C155.699 41.7846 155.633 41.7518 155.599 41.6529C155.4 41.3895 155.218 41.1756 155.019 40.9121L155.002 40.8627C154.803 40.5993 154.572 40.402 154.373 40.1386C154.308 40.1058 154.291 40.0563 154.225 40.0236C153.994 39.8263 153.795 39.5629 153.564 39.3656C153.499 39.3328 153.482 39.2834 153.399 39.2011C153.251 39.0861 153.086 38.9216 152.937 38.8066C152.872 38.7738 152.789 38.6915 152.772 38.6421C152.558 38.4943 152.393 38.3298 152.179 38.182C152.179 38.182 152.162 38.1325 152.113 38.1492C151.9 38.0014 151.686 37.8536 151.537 37.7385C151.472 37.7058 151.389 37.6235 151.323 37.5907C151.175 37.4757 151.044 37.4101 150.896 37.2951C150.83 37.2623 150.747 37.1801 150.682 37.1473C150.55 37.0817 150.402 36.9667 150.271 36.9012C150.205 36.8684 150.139 36.8356 150.057 36.7533C149.86 36.655 149.663 36.5567 149.466 36.4583C149.4 36.4255 149.4 36.4255 149.334 36.3927C149.089 36.3111 148.875 36.1633 148.629 36.0816C148.563 36.0488 148.498 36.016 148.432 35.9833C148.252 35.9344 148.121 35.8688 147.924 35.7705C147.858 35.7377 147.744 35.7216 147.678 35.6888C147.432 35.6071 147.252 35.5582 147.006 35.4766C146.958 35.4933 146.941 35.4438 146.892 35.4605C146.646 35.3788 146.352 35.3138 146.074 35.2983C146.008 35.2655 145.911 35.2989 145.845 35.2661C145.665 35.2172 145.436 35.185 145.273 35.1856C145.208 35.1528 145.11 35.1862 145.044 35.1534C144.767 35.1379 144.538 35.1057 144.261 35.0901C143.983 35.0746 143.771 35.0919 143.542 35.0597C143.428 35.0436 143.379 35.0602 143.265 35.0441C143.102 35.0447 142.939 35.0453 142.775 35.0459C142.661 35.0298 142.563 35.0631 142.466 35.0965C142.303 35.0971 142.205 35.1304 142.042 35.131C141.945 35.1644 141.83 35.1483 141.733 35.1816C141.587 35.2317 141.472 35.2156 141.326 35.2656C141.229 35.299 141.114 35.2829 141.017 35.3162C140.919 35.3496 140.756 35.3502 140.659 35.3835C140.561 35.4169 140.464 35.4503 140.366 35.4836C140.269 35.517 140.122 35.567 140.025 35.6004C139.927 35.6337 139.83 35.6671 139.733 35.7005C139.635 35.7338 139.489 35.7839 139.391 35.8172C139.294 35.8506 139.196 35.8839 139.099 35.9173C139.001 35.9507 138.855 36.0007 138.758 36.0341C138.66 36.0674 138.563 36.1008 138.482 36.1836C138.385 36.217 138.255 36.3165 138.158 36.3498C138.061 36.3832 137.98 36.466 137.882 36.4994C137.785 36.5327 137.753 36.5989 137.656 36.6322C137.558 36.6656 137.478 36.7484 137.38 36.7818C137.283 36.8151 137.251 36.8813 137.153 36.9146C137.073 36.9975 136.975 37.0308 136.895 37.1136C136.814 37.1965 136.766 37.2131 136.685 37.296C136.604 37.3788 136.507 37.4122 136.426 37.495C136.346 37.5778 136.297 37.5945 136.217 37.6773C136.185 37.7434 136.087 37.7768 136.056 37.8429C135.926 37.9425 135.765 38.1081 135.653 38.2571C135.621 38.3232 135.523 38.3566 135.492 38.4227C135.331 38.5884 135.186 38.8035 134.977 38.9858L143.959 27.8444C144.103 27.6293 144.264 27.4637 144.474 27.2814C144.506 27.2152 144.554 27.1985 144.635 27.1157C144.747 26.9667 144.925 26.8506 145.038 26.7016C145.086 26.6849 145.118 26.6188 145.118 26.6188C145.167 26.6021 145.167 26.6021 145.199 26.5359C145.279 26.4531 145.328 26.4364 145.409 26.3536C145.489 26.2708 145.57 26.188 145.667 26.1546C145.748 26.0718 145.797 26.0551 145.877 25.9723C145.958 25.8895 146.055 25.8561 146.136 25.7733C146.233 25.7399 146.265 25.6738 146.362 25.6404C146.443 25.5576 146.54 25.5242 146.638 25.4909C146.735 25.4575 146.767 25.3914 146.865 25.358C146.913 25.3413 146.962 25.3246 146.994 25.2585C147.043 25.2418 147.091 25.2251 147.14 25.2085C147.238 25.1751 147.367 25.0756 147.464 25.0422C147.562 25.0089 147.659 24.9755 147.74 24.8927C147.837 24.8593 147.984 24.8093 148.081 24.7759C148.179 24.7426 148.276 24.7092 148.374 24.6759C148.471 24.6425 148.617 24.5925 148.715 24.5591C148.812 24.5257 148.91 24.4924 149.007 24.459C149.105 24.4257 149.251 24.3756 149.348 24.3423C149.446 24.3089 149.543 24.2755 149.641 24.2422C149.787 24.1921 149.901 24.2082 150.048 24.1582C150.145 24.1248 150.243 24.0915 150.357 24.1076C150.503 24.0575 150.618 24.0736 150.764 24.0236C150.861 23.9902 150.976 24.0063 151.073 23.973C151.236 23.9724 151.383 23.9224 151.497 23.9385C151.594 23.9051 151.66 23.9379 151.758 23.9045C151.921 23.9039 152.133 23.8867 152.296 23.8861C152.344 23.8694 152.41 23.9022 152.459 23.8855C152.736 23.9011 152.948 23.8838 153.226 23.8993C153.503 23.9148 153.781 23.9304 154.01 23.9626C154.075 23.9953 154.173 23.962 154.239 23.9948C154.419 24.0436 154.647 24.0759 154.811 24.0753C154.859 24.0586 154.925 24.0914 154.974 24.0747L155.039 24.1075C155.334 24.1725 155.563 24.2047 155.857 24.2697C155.906 24.253 155.923 24.3024 155.972 24.2858C156.217 24.3674 156.446 24.3996 156.692 24.4813C156.741 24.4646 156.758 24.5141 156.806 24.4974C156.855 24.4807 156.872 24.5302 156.921 24.5135C157.101 24.5624 157.281 24.6113 157.478 24.7096C157.543 24.7424 157.609 24.7752 157.675 24.808C157.921 24.8896 158.118 24.988 158.38 25.1191L158.446 25.1519C158.643 25.2502 158.84 25.3486 159.02 25.3975C159.086 25.4302 159.151 25.463 159.234 25.5453C159.365 25.6108 159.513 25.7259 159.694 25.7747C159.759 25.8075 159.759 25.8075 159.825 25.8403C159.891 25.8731 159.891 25.8731 159.956 25.9059C160.104 26.0209 160.236 26.0865 160.384 26.2015C160.45 26.2343 160.515 26.2671 160.598 26.3493C160.812 26.4971 161.026 26.6449 161.24 26.7927C161.454 26.9405 161.668 27.0883 161.85 27.3023C161.915 27.3351 161.998 27.4173 162.015 27.4668C162.163 27.5818 162.328 27.7463 162.477 27.8613C162.494 27.9108 162.559 27.9436 162.559 27.9436C162.559 27.9436 162.576 27.993 162.625 27.9763C162.856 28.1736 163.104 28.4204 163.286 28.6343C163.351 28.6671 163.368 28.7165 163.434 28.7493C163.682 28.9961 163.864 29.21 164.063 29.4734C164.063 29.4734 164.063 29.4734 164.08 29.5229C164.279 29.7863 164.461 30.0003 164.66 30.2637C164.647 30.5443 164.664 30.5938 164.698 30.6927Z" fill="#49721F"/>
<path d="M134.646 20.2014L125.664 31.3428C125.358 31.7236 125.102 32.0876 124.845 32.4517L133.827 21.3104C134.084 20.9463 134.34 20.5822 134.646 20.2014Z" fill="#49721F"/>
<path d="M178.635 41.5052C178.686 40.3825 178.64 39.2932 178.511 38.1216C178.416 37.0489 178.224 36.0097 177.983 34.987C172.09 32.0861 170.434 28.84 172.098 23.5187C170.641 21.8071 169.006 20.2117 167.178 18.848C165.553 19.349 164.152 19.5521 162.879 19.4906C159.76 19.287 157.468 17.3638 155.315 13.4591C154.203 13.232 153.076 13.1204 151.949 13.0089C150.839 12.9468 149.697 12.9508 148.637 13.0371C147.231 16.7233 145.31 18.4303 142.24 18.2101C140.967 18.1486 139.527 17.7575 137.804 17.0208C136.253 18.2148 134.884 19.6228 133.794 21.2114C136.505 26.7483 135.483 29.8058 130.371 32.0524C130.335 33.0595 130.364 34.0994 130.459 35.172C130.588 36.3436 130.814 37.4818 131.106 38.6528C136.8 41.2903 138.504 44.5197 137.037 49.9394C138.494 51.651 140.178 53.2297 142.006 54.5934C143.614 54.0429 145.047 53.7737 146.32 53.8353C149.259 53.9899 151.55 55.9132 153.703 59.8178C154.816 60.045 155.894 60.1732 157.053 60.2186C158.163 60.2807 159.256 60.2933 160.316 60.207C161.608 56.5048 163.479 54.8144 166.435 55.0185C167.708 55.08 169.28 55.5367 171.068 56.3062C172.637 55.1616 173.957 53.7703 175.064 52.2312C172.253 46.5626 173.275 43.5051 178.635 41.5052ZM153.162 24.0316C160.281 24.4685 166.637 30.4712 167.392 37.4512C168.147 44.4312 163.009 49.7813 155.89 49.3443C148.772 48.9073 142.416 42.9047 141.66 35.9247C140.905 28.9447 146.043 23.5946 153.162 24.0316Z" fill="#629D25"/>
<path d="M172.41 55.2945C172.652 55.046 172.942 54.7809 173.184 54.5324C173.264 54.4496 173.394 54.3501 173.457 54.2178C173.779 53.8865 174.085 53.5058 174.407 53.1745L171.804 56.3861C169.667 59.0514 167.513 61.6672 165.376 64.3325C165.071 64.7133 164.748 65.0446 164.426 65.3758C164.346 65.4587 164.216 65.5582 164.153 65.6905C163.911 65.9389 163.621 66.2041 163.379 66.4525C163.299 66.5354 163.25 66.552 163.218 66.6182C163.169 66.6349 163.137 66.701 163.137 66.701C162.798 66.9828 162.459 67.2647 162.071 67.5632L171.053 56.4218C171.393 56.14 171.78 55.8415 172.12 55.5597C172.2 55.4768 172.329 55.3773 172.41 55.2945Z" fill="#629D25"/>
<path d="M131.139 38.7518L122.157 49.8931C121.882 48.7716 121.639 47.5839 121.51 46.4123C121.416 45.3397 121.386 44.2998 121.423 43.2928L130.405 32.1514C130.369 33.1585 130.398 34.1983 130.493 35.271C130.621 36.4426 130.799 37.5975 131.139 38.7518Z" fill="#629D25"/>
<path d="M159.127 60.3928C159.242 60.4089 159.339 60.3756 159.405 60.4084C159.731 60.4072 159.992 60.3733 160.318 60.3721L151.319 71.464C151.01 71.5146 150.732 71.4991 150.406 71.5003C150.291 71.4842 150.194 71.5175 150.128 71.4847C149.916 71.502 149.704 71.5193 149.476 71.4871C149.427 71.5037 149.361 71.4709 149.312 71.4876C149.264 71.5043 149.198 71.4715 149.149 71.4882C148.774 71.506 148.382 71.4744 147.99 71.4428C146.88 71.3807 145.736 71.2197 144.641 71.042L153.623 59.9006C154.735 60.1278 155.814 60.256 156.973 60.3014C157.364 60.3331 157.739 60.3152 158.131 60.3468C158.246 60.363 158.343 60.3296 158.409 60.3624C158.735 60.3612 158.964 60.3934 159.127 60.3928Z" fill="#629D25"/>
<path d="M139.518 52.5717C139.765 52.8185 140.062 53.0485 140.31 53.2953C140.458 53.4103 140.558 53.542 140.706 53.657C141.151 54.0021 141.547 54.3639 141.991 54.7089L133.009 65.8503C132.564 65.5052 132.12 65.1601 131.724 64.7984C131.575 64.6834 131.427 64.5683 131.328 64.4366C131.097 64.2394 130.849 63.9926 130.618 63.7953C130.601 63.7459 130.552 63.7626 130.535 63.7131C130.222 63.4336 129.974 63.1869 129.71 62.8907C129.561 62.7756 129.445 62.5945 129.297 62.4794C128.884 62.0682 128.502 61.5908 128.089 61.1796L137.072 50.0383C137.436 50.4662 137.866 50.9269 138.279 51.3381C138.427 51.4531 138.543 51.6343 138.692 51.7493C138.939 51.996 139.204 52.2922 139.518 52.5717Z" fill="#629D25"/>
<path d="M68.4918 11.2908L54.8013 28.243C55.91 26.8689 56.8494 25.0003 57.6514 22.5708L71.3907 5.60197C70.54 8.04809 69.6175 9.96623 68.4918 11.2908Z" fill="#21670D"/>
<path d="M127.146 65.4254C127.227 65.3426 127.324 65.3092 127.405 65.2264C127.583 65.1102 127.712 65.0107 127.89 64.8945C127.988 64.8612 128.068 64.7784 128.117 64.7617C128.344 64.6288 128.619 64.4793 128.895 64.3297C128.895 64.3297 128.895 64.3297 128.944 64.313C129.365 64.1135 129.77 63.8644 130.258 63.6976C130.355 63.6643 130.501 63.6142 130.582 63.5314C131.052 63.3151 131.523 63.0989 132.059 62.9154L118.32 79.8842C117.783 80.0677 117.313 80.284 116.842 80.5002C116.696 80.5503 116.599 80.5836 116.518 80.6665C116.048 80.8827 115.626 81.0823 115.253 81.2652C114.978 81.4148 114.653 81.581 114.443 81.7633C114.346 81.7967 114.265 81.8795 114.217 81.8962C114.039 82.0124 113.861 82.1285 113.731 82.228C113.651 82.3109 113.553 82.3442 113.473 82.4271C113.344 82.5266 113.165 82.6427 113.036 82.7422C112.956 82.8251 112.907 82.8417 112.826 82.9246C112.697 83.0241 112.536 83.1897 112.407 83.2892C112.375 83.3554 112.277 83.3887 112.246 83.4549C112.084 83.6205 111.875 83.8028 111.73 84.0179C116.326 78.3561 120.874 72.7109 125.47 67.0491C125.631 66.8835 125.775 66.6683 125.936 66.5027C125.968 66.4366 126.065 66.4032 126.097 66.3371C126.178 66.2542 126.307 66.1547 126.388 66.0719C126.436 66.0552 126.468 65.9891 126.468 65.9891C126.549 65.9063 126.597 65.8896 126.678 65.8068C126.839 65.6411 126.968 65.5416 127.146 65.4254Z" fill="#21670D"/>
<path d="M47.4812 12.9005L33.7419 29.8693C34.9791 34.9162 34.8907 38.3171 33.3325 40.287L47.0718 23.3182C48.63 21.3482 48.7184 17.9474 47.4812 12.9005Z" fill="#21670D"/>
<path d="M102.977 42.5327C103.31 43.0268 103.691 43.5042 103.991 44.0644C104.091 44.1961 104.125 44.295 104.224 44.4267C104.574 44.9702 104.874 45.5304 105.175 46.0906C105.209 46.1895 105.291 46.2717 105.325 46.3707C105.609 46.8814 105.827 47.3593 106.062 47.8867C106.096 47.9857 106.195 48.1174 106.229 48.2163C106.481 48.7932 106.733 49.37 106.936 49.9636C106.987 50.112 107.021 50.2109 107.071 50.3593C107.257 50.9034 107.444 51.4474 107.63 51.9915C107.664 52.0905 107.681 52.1399 107.715 52.2388C107.869 52.8491 108.023 53.4593 108.195 54.119C108.245 54.2674 108.247 54.4325 108.298 54.5808C108.404 55.2077 108.575 55.8674 108.632 56.511C109.684 63.7211 107.774 70.2318 103.918 75.0326C99.3221 80.6944 94.7748 86.3396 90.1788 92.0014C94.035 87.2006 95.896 80.7066 94.8929 73.4799C94.7872 72.853 94.6646 72.1766 94.559 71.5497C94.5082 71.4013 94.5061 71.2362 94.4723 71.1373C94.3179 70.5271 94.1635 69.9168 93.9922 69.2572C93.9583 69.1582 93.9414 69.1088 93.9075 69.0098C93.7213 68.4658 93.5351 67.9217 93.3489 67.3776C93.2981 67.2292 93.2643 67.1303 93.2135 66.9819C93.0104 66.3883 92.7585 65.8115 92.5066 65.2346C92.4728 65.1357 92.3732 65.004 92.3394 64.905C92.1044 64.3776 91.8208 63.8669 91.5858 63.3395C91.552 63.2406 91.4694 63.1583 91.4355 63.0594C91.1349 62.4992 90.7855 61.9557 90.4849 61.3955C90.3854 61.2638 90.3516 61.1649 90.252 61.0332C89.9196 60.5392 89.5703 59.9956 89.2378 59.5016C89.2209 59.4521 89.204 59.4027 89.1552 59.4194C88.7571 58.8925 88.3591 58.3657 87.9779 57.8883C87.8784 57.7566 87.7958 57.6744 87.6963 57.5427C87.2494 57.0325 86.7857 56.4729 86.3388 55.9628C86.2562 55.8805 86.1906 55.8477 86.108 55.7655C85.6612 55.2554 85.1825 54.8114 84.7039 54.3673C84.6382 54.3346 84.6044 54.2356 84.5387 54.2029C84.1257 53.7916 83.6809 53.4466 83.2192 53.052C83.1366 52.9698 82.9884 52.8547 82.857 52.7892C82.4948 52.5263 82.1157 52.214 81.7535 51.9512C81.6053 51.8362 81.5227 51.7539 81.3744 51.6389C80.9953 51.3266 80.5844 51.0805 80.1734 50.8343C80.1078 50.8015 80.0421 50.7687 80.0252 50.7193C79.5973 50.4237 79.1207 50.1447 78.6441 49.8658C78.5128 49.8002 78.3645 49.6852 78.2332 49.6196C77.9049 49.4557 77.5596 49.2424 77.2313 49.0784C77.0343 48.9801 76.9029 48.9145 76.7059 48.8162C76.3776 48.6523 76.0493 48.4884 75.7209 48.3245C75.5896 48.2589 75.3926 48.1605 75.2613 48.095C74.7529 47.8822 74.2445 47.6694 73.7361 47.4566C73.6704 47.4238 73.6217 47.4405 73.556 47.4077C73.1132 47.2277 72.6218 47.0644 72.179 46.8843C72.0477 46.8188 71.8676 46.7699 71.7532 46.7538C71.2617 46.5905 70.7872 46.4766 70.3126 46.3627C70.1982 46.3466 70.0669 46.2811 69.9525 46.265C69.3635 46.135 68.8233 45.9883 68.2344 45.8584C68.12 45.8423 67.9399 45.7934 67.8255 45.7773C67.3679 45.7129 66.959 45.6318 66.5014 45.5674C66.3382 45.568 66.1581 45.5191 65.995 45.5196C65.423 45.4391 64.8679 45.4081 64.2471 45.3443C63.9208 45.3454 63.5776 45.2971 63.2513 45.2983C62.925 45.2994 62.55 45.3173 62.2237 45.3184C61.8974 45.3196 61.6198 45.3041 61.3105 45.3547C61.0986 45.3719 60.8867 45.3892 60.6748 45.4064C60.3655 45.4571 60.0879 45.4415 59.7786 45.4922C59.5667 45.5094 59.3548 45.5267 59.1429 45.5439C58.8336 45.5946 58.5242 45.6452 58.2148 45.6958C58.0029 45.7131 57.808 45.7798 57.6448 45.7804C57.3355 45.831 56.9774 45.8983 56.6849 45.9984C56.5387 46.0484 56.3756 46.049 56.2294 46.099C55.7738 46.1997 55.2864 46.3665 54.8308 46.4671C54.3922 46.6173 53.9535 46.7674 53.4661 46.9342C53.3199 46.9842 53.1737 47.0343 53.0444 47.1338C52.752 47.2339 52.4765 47.3834 52.1353 47.5002C51.9403 47.5669 51.8111 47.6664 51.6648 47.7164C51.3893 47.866 51.1456 47.9494 50.8701 48.0989C50.6921 48.2151 50.4971 48.2818 50.2704 48.4147C50.0924 48.5309 49.8974 48.5976 49.7681 48.6971C49.5901 48.8133 49.3633 48.9461 49.1853 49.0623C49.0073 49.1785 48.878 49.278 48.6999 49.3942C48.5219 49.5104 48.3439 49.6265 48.134 49.8089C47.956 49.9251 47.8267 50.0246 47.6487 50.1407C47.4707 50.2569 47.3096 50.4226 47.1315 50.5388C46.9535 50.6549 46.8412 50.8039 46.6631 50.9201C46.5826 51.0029 46.502 51.0857 46.4046 51.1191C46.0654 51.4009 45.7432 51.7322 45.421 52.0635C45.2917 52.163 45.2281 52.2953 45.0988 52.3948C44.7448 52.7922 44.3908 53.1897 44.0368 53.5871C44.0368 53.5871 44.0368 53.5871 43.988 53.6038L57.8248 36.6016C57.8248 36.6016 57.8248 36.6016 57.8736 36.5849C58.2276 36.1875 58.5816 35.79 58.9356 35.3926C59.0649 35.2931 59.1285 35.1608 59.2578 35.0613C59.58 34.73 59.8704 34.4649 60.1926 34.1336C60.2244 34.0674 60.3219 34.0341 60.3537 33.9679C60.4024 33.9512 60.4024 33.9512 60.4342 33.8851C60.5635 33.7856 60.7416 33.6694 60.8539 33.5204C61.015 33.3548 61.2418 33.2219 61.4029 33.0563C61.5322 32.9568 61.7102 32.8406 61.8395 32.7411C62.0175 32.6249 62.2274 32.4426 62.4054 32.3264C62.5834 32.2102 62.7127 32.1107 62.8907 31.9945C63.0688 31.8784 63.2955 31.7455 63.4736 31.6293C63.6516 31.5131 63.8296 31.3969 63.9758 31.3469C64.1051 31.2474 64.2513 31.1974 64.3806 31.0979C64.4294 31.0812 64.5268 31.0478 64.5587 30.9817C64.8342 30.8321 65.0609 30.6993 65.3534 30.5992C65.4996 30.5491 65.6776 30.433 65.8238 30.3829C66.0993 30.2334 66.3918 30.1333 66.7329 30.0165C66.8791 29.9665 67.0254 29.9165 67.1547 29.8169C67.5933 29.6668 68.032 29.5167 68.5193 29.3499C68.958 29.1998 69.4623 29.0824 69.9179 28.9818C70.0641 28.9317 70.2273 28.9312 70.3735 28.8811C70.6828 28.8305 71.024 28.7137 71.3334 28.6631C71.5452 28.6459 71.6915 28.5958 71.9033 28.5786C72.2127 28.5279 72.5221 28.4773 72.8314 28.4267C73.0433 28.4094 73.2552 28.3922 73.4671 28.3749C73.7764 28.3243 74.054 28.3398 74.3634 28.2892C74.5752 28.272 74.7871 28.2547 74.999 28.2374C75.3253 28.2363 75.5859 28.2023 75.9122 28.2012C76.0266 28.2173 76.1728 28.1672 76.2872 28.1833C76.4991 28.1661 76.7279 28.1983 76.9398 28.181C77.2661 28.1799 77.6093 28.2282 77.9356 28.227C78.4907 28.2581 79.1115 28.3219 79.6835 28.4024C79.8466 28.4018 80.0267 28.4507 80.1899 28.4501C80.6475 28.5145 81.1051 28.579 81.514 28.66C81.6284 28.6761 81.6941 28.7089 81.8085 28.725C81.8572 28.7083 81.8741 28.7578 81.9229 28.7411C82.5118 28.8711 83.1008 29.0011 83.6898 29.131C83.8042 29.1471 83.9355 29.2127 84.0499 29.2288C84.5244 29.3427 85.0159 29.506 85.5074 29.6693C85.5731 29.7021 85.6875 29.7182 85.7531 29.751C85.8188 29.7838 85.8845 29.8166 85.9332 29.7999C86.4247 29.9632 86.8674 30.1432 87.3589 30.3066C87.4246 30.3394 87.4733 30.3227 87.4902 30.3721C87.9987 30.5849 88.5071 30.7977 89.0155 31.0105C89.0811 31.0433 89.0811 31.0433 89.1468 31.0761C89.2612 31.0922 89.3438 31.1744 89.4751 31.24C89.8035 31.4039 90.1805 31.5511 90.5258 31.7645C90.6741 31.8795 90.8541 31.9284 91.0024 32.0434C91.3307 32.2074 91.676 32.4207 92.0043 32.5846C92.0869 32.6669 92.2013 32.683 92.3327 32.7485C92.3983 32.7813 92.3983 32.7813 92.464 32.8141C92.9406 33.0931 93.4172 33.372 93.845 33.6676C93.9107 33.7004 93.9764 33.7332 94.059 33.8154C94.4699 34.0616 94.8321 34.3244 95.2112 34.6367C95.2769 34.6695 95.3425 34.7023 95.3595 34.7517C95.4421 34.834 95.5077 34.8668 95.5903 34.949C95.9525 35.2118 96.3147 35.4747 96.6451 35.8037C96.7764 35.8692 96.8759 36.0009 97.0073 36.0665C97.452 36.4116 97.865 36.8228 98.3267 37.2173C98.3267 37.2173 98.3437 37.2668 98.3924 37.2501C98.4581 37.2829 98.475 37.3324 98.4919 37.3818C98.9706 37.8258 99.4661 38.3193 99.896 38.78C99.9786 38.8622 100.044 38.895 100.127 38.9772C100.622 39.4707 101.069 39.9809 101.484 40.5571C101.501 40.6066 101.567 40.6394 101.649 40.7216C101.715 40.7544 101.749 40.8533 101.766 40.9028C102.164 41.4296 102.594 41.8903 102.943 42.4338C102.895 42.4505 102.911 42.5 102.977 42.5327Z" fill="#21670D"/>
<path d="M123.621 86.4684C123.85 86.5006 124.079 86.5329 124.259 86.5817C124.374 86.5978 124.537 86.5973 124.668 86.6628C124.897 86.695 125.077 86.7439 125.306 86.7761C125.469 86.7755 125.6 86.8411 125.763 86.8405L112.073 103.793C111.73 103.744 111.369 103.647 111.026 103.598C110.977 103.615 110.961 103.566 110.912 103.582C110.617 103.517 110.274 103.469 109.997 103.453C109.948 103.47 109.882 103.437 109.882 103.437C109.588 103.372 109.31 103.357 109.033 103.341C108.984 103.358 108.918 103.325 108.918 103.325C108.575 103.277 108.297 103.261 107.971 103.262C107.579 103.231 107.204 103.249 106.812 103.217C106.371 103.202 105.996 103.22 105.573 103.254C105.524 103.271 105.475 103.288 105.361 103.272C105.051 103.322 104.725 103.324 104.481 103.407C104.384 103.44 104.238 103.49 104.123 103.474C103.928 103.541 103.668 103.575 103.473 103.642C103.375 103.675 103.229 103.725 103.132 103.758C102.937 103.825 102.79 103.875 102.612 103.991C102.466 104.041 102.337 104.141 102.239 104.174C102.191 104.191 102.11 104.274 102.061 104.29C101.883 104.407 101.657 104.539 101.496 104.705C101.318 104.821 101.205 104.97 101.093 105.119C101.061 105.185 101.012 105.202 100.964 105.219L114.703 88.2499C114.735 88.1837 114.832 88.1503 114.864 88.0842C114.976 87.9352 115.106 87.8357 115.218 87.6868C115.379 87.5211 115.557 87.4049 115.784 87.2721C115.833 87.2554 115.913 87.1726 115.962 87.1559C116.059 87.1225 116.091 87.0564 116.14 87.0397C116.189 87.023 116.286 86.9897 116.335 86.973C116.53 86.9063 116.659 86.8068 116.854 86.74C116.952 86.7067 117.098 86.6566 117.195 86.6233C117.39 86.5566 117.585 86.4898 117.846 86.4559C117.943 86.4225 118.041 86.3892 118.204 86.3886C118.513 86.338 118.774 86.304 119.083 86.2534C119.132 86.2367 119.181 86.2201 119.246 86.2529C119.621 86.235 120.045 86.2005 120.486 86.2154L120.535 86.1988C120.861 86.1976 121.253 86.2292 121.579 86.2281C121.905 86.2269 122.2 86.2919 122.526 86.2907C122.755 86.323 123.033 86.3385 123.261 86.3707C123.441 86.4196 123.507 86.4523 123.621 86.4684Z" fill="#21670D"/>
<path d="M35.9627 24.7442L22.2234 41.713C20.9597 43.7479 19.8443 45.8979 18.9746 48.1295L32.7139 31.1606C33.6323 28.9124 34.699 26.7791 35.9627 24.7442Z" fill="#348F9E"/>
<path d="M35.9627 24.7442L22.2234 41.713C20.9597 43.7479 19.8443 45.8979 18.9746 48.1295L32.7139 31.1606C33.6323 28.9124 34.699 26.7791 35.9627 24.7442Z" fill="#144A05"/>
<path d="M107.991 102.206L94.2515 119.175C96.4745 118.193 98.6298 117.013 100.62 115.669L114.359 98.7003C112.32 100.061 110.214 101.224 107.991 102.206Z" fill="#348F9E"/>
<path d="M107.991 102.206L94.2515 119.175C95.2899 118.709 96.2626 118.21 97.2841 117.695L110.975 100.743C110.002 101.241 108.98 101.757 107.991 102.206Z" fill="#144A05"/>
<path d="M110.975 100.743L97.2842 117.695C98.4349 117.08 99.5518 116.366 100.62 115.669L114.359 98.7003C113.242 99.4141 112.126 100.128 110.975 100.743Z" fill="#144A05"/>
<path d="M32.7307 31.2101L18.9914 48.1789C19.057 48.2117 19.0909 48.3106 19.1566 48.3434L32.8959 31.3746C32.8302 31.3418 32.7963 31.2429 32.7307 31.2101Z" fill="#297C89"/>
<path d="M32.8959 31.3745L19.1566 48.3434C23.9933 54.2029 25.252 58.3583 22.6318 61.5205L36.3711 44.5517C38.9257 41.3567 37.7325 37.234 32.8959 31.3745Z" fill="#21670D"/>
<path d="M29.7333 48.7021L15.994 65.6709C16.0273 67.0409 16.1093 68.3943 16.257 69.7804C16.4047 71.1665 16.6011 72.5359 16.895 73.8719L30.6343 56.9031C30.3892 55.5504 30.144 54.1976 29.9963 52.8115C29.8317 51.376 29.7497 50.0226 29.7333 48.7021Z" fill="#348F9E"/>
<path d="M29.7333 48.7021L15.994 65.6709C16.0273 67.0409 16.1093 68.3943 16.257 69.7804C16.4047 71.1665 16.6011 72.5359 16.895 73.8719L30.6343 56.9031C30.3892 55.5504 30.144 54.1976 29.9963 52.8115C29.8317 51.376 29.7497 50.0226 29.7333 48.7021Z" fill="#144A05"/>
<path d="M37.4167 74.9712L23.7261 91.9234C25.1425 94.3119 26.7051 96.6505 28.4288 98.8233L42.1681 81.8545C40.4275 79.6322 38.8331 77.3598 37.4167 74.9712Z" fill="#348F9E"/>
<path d="M37.4167 74.9712L23.7261 91.9234C25.1425 94.3119 26.7051 96.6505 28.4288 98.8233L42.1681 81.8545C40.4275 79.6322 38.8331 77.3598 37.4167 74.9712Z" fill="#144A05"/>
<path d="M106.476 101.122C106.542 101.155 106.625 101.237 106.69 101.27C107.053 101.532 107.415 101.795 107.777 102.058C107.843 102.091 107.908 102.124 107.925 102.173L94.2516 119.175C93.8237 118.879 93.3789 118.534 92.968 118.288C92.8854 118.206 92.8198 118.173 92.7372 118.091C92.3262 117.845 91.964 117.582 91.5531 117.336C91.5362 117.286 91.4874 117.303 91.4705 117.253C91.1253 117.04 90.8457 116.859 90.5173 116.695C90.386 116.63 90.2377 116.515 90.1064 116.449C89.8437 116.318 89.6298 116.17 89.3841 116.089C89.2527 116.023 89.1214 115.958 88.9901 115.892C88.6617 115.728 88.3334 115.564 88.022 115.45C87.9563 115.417 87.9563 115.417 87.8907 115.384C87.5793 115.27 87.3335 115.188 87.0221 115.074C86.9564 115.041 86.8908 115.008 86.7764 114.992C86.4819 114.927 86.1705 114.812 85.8929 114.797C85.5497 114.749 85.2065 114.7 84.8633 114.652C84.6514 114.669 84.4713 114.62 84.2594 114.638C84.145 114.622 84.0476 114.655 83.8844 114.655C83.77 114.639 83.6238 114.689 83.5094 114.673C83.4119 114.707 83.2975 114.691 83.1513 114.741C83.0538 114.774 82.9076 114.824 82.7932 114.808C82.6957 114.841 82.5982 114.875 82.452 114.925C82.3545 114.958 82.2083 115.008 82.1108 115.041C82.0134 115.075 81.9159 115.108 81.7866 115.208C81.6891 115.241 81.5598 115.341 81.4623 115.374C81.3649 115.407 81.2843 115.49 81.1868 115.523C81.1063 115.606 80.9601 115.656 80.8795 115.739C80.799 115.822 80.7015 115.855 80.6209 115.938C80.4917 116.038 80.3624 116.137 80.25 116.286C80.2182 116.352 80.1207 116.386 80.0889 116.452C79.9278 116.617 79.7349 116.849 79.5738 117.015C84.1698 111.353 88.7171 105.708 93.3131 100.046C93.4573 99.8309 93.6671 99.6486 93.8282 99.4829C93.86 99.4168 93.9575 99.3834 93.9893 99.3173C94.0699 99.2344 94.1504 99.1516 94.231 99.0688C94.2797 99.0521 94.3115 98.986 94.3115 98.986C94.3921 98.9032 94.4726 98.8203 94.5701 98.787C94.6506 98.7041 94.7799 98.6046 94.8774 98.5713C94.958 98.4885 95.0554 98.4551 95.1529 98.4217C95.2017 98.4051 95.2822 98.3222 95.3309 98.3056C95.3797 98.2889 95.4284 98.2722 95.4772 98.2555C95.5746 98.2222 95.7039 98.1227 95.8014 98.0893C95.8989 98.0559 96.0451 98.0059 96.1426 97.9725C96.2401 97.9392 96.3863 97.8891 96.4838 97.8558C96.5812 97.8224 96.7274 97.7724 96.8419 97.7885C96.9393 97.7551 97.0537 97.7712 97.2 97.7212C97.2974 97.6878 97.4606 97.6872 97.575 97.7033C97.6894 97.7194 97.8356 97.6694 97.95 97.6855C97.9987 97.6688 98.0644 97.7016 98.1619 97.6682C98.2763 97.6843 98.4394 97.6838 98.5538 97.6999C98.8801 97.6987 99.2234 97.747 99.5835 97.8448C99.5835 97.8448 99.5835 97.8448 99.6322 97.8281C99.9267 97.8931 100.172 97.9747 100.467 98.0397C100.533 98.0725 100.598 98.1053 100.647 98.0886C100.761 98.1047 100.827 98.1375 100.941 98.1536C101.122 98.2025 101.319 98.3008 101.499 98.3497C101.564 98.3825 101.564 98.3825 101.63 98.4153C101.893 98.5464 102.187 98.6114 102.45 98.7425C102.515 98.7753 102.581 98.8081 102.581 98.8081C102.712 98.8737 102.844 98.9392 102.975 99.0048C103.238 99.1359 103.435 99.2343 103.697 99.3654C103.829 99.431 103.977 99.546 104.108 99.6115C104.24 99.6771 104.305 99.7099 104.437 99.7755C104.634 99.8738 104.848 100.022 105.062 100.169C105.078 100.219 105.127 100.202 105.144 100.252C105.703 100.613 106.066 100.876 106.476 101.122Z" fill="#21670D"/>
<path d="M40.1992 65.1229C40.2669 65.3208 40.3176 65.4691 40.3366 65.6837C40.3535 65.7331 40.3535 65.7331 40.3705 65.7826C40.3894 65.9971 40.4572 66.195 40.4931 66.459C40.51 66.5084 40.4782 66.5746 40.512 66.6735C40.5141 66.8386 40.5161 67.0036 40.5182 67.1687C40.5351 67.2182 40.5202 67.3338 40.4884 67.3999C40.4904 67.565 40.4925 67.73 40.4458 67.9118C40.414 67.9779 40.4309 68.0274 40.416 68.143C40.3863 68.3742 40.3565 68.6054 40.3267 68.8366C40.3437 68.8861 40.2949 68.9028 40.3118 68.9522C40.2821 69.1834 40.2354 69.3652 40.1569 69.6131C40.1251 69.6792 40.1102 69.7948 40.0784 69.861C40.0317 70.0427 39.985 70.2245 39.9214 70.3568C39.8895 70.4229 39.8747 70.5385 39.8429 70.6046C39.7474 70.8031 39.7007 70.9848 39.6222 71.2327C39.5904 71.2988 39.5586 71.365 39.5755 71.4145C39.4483 71.679 39.321 71.9436 39.1938 72.2082C39.162 72.2743 39.1302 72.3404 39.0984 72.4066C39.0029 72.605 38.8588 72.8201 38.7633 73.0186C38.6828 73.1014 38.6679 73.217 38.5873 73.2998C38.4919 73.4982 38.3477 73.7133 38.2523 73.9118C38.1717 73.9946 38.1569 74.1102 38.0763 74.193C37.9003 74.4743 37.7243 74.7555 37.4996 75.0535L23.7265 91.9234C23.9512 91.6254 24.1272 91.3442 24.3032 91.0629C24.3837 90.9801 24.4155 90.914 24.4791 90.7817C24.6233 90.5666 24.7187 90.3682 24.8629 90.153C24.9435 90.0702 24.9584 89.9546 25.0389 89.8718C25.1343 89.6734 25.2785 89.4583 25.3739 89.2598C25.357 89.2104 25.3888 89.1442 25.4206 89.0781C25.5479 88.8135 25.6751 88.5489 25.8024 88.2844C25.8342 88.2182 25.866 88.1521 25.8491 88.1026C25.9445 87.9042 26.0399 87.7058 26.0697 87.4746C26.1015 87.4084 26.1164 87.2928 26.1482 87.2267C26.1949 87.0449 26.2416 86.8632 26.337 86.6647C26.3688 86.5986 26.3837 86.483 26.4155 86.4169C26.494 86.169 26.5407 85.9872 26.5705 85.756L26.6023 85.6899C26.6321 85.4587 26.7106 85.2108 26.7403 84.9796C26.7722 84.9134 26.7552 84.864 26.787 84.7978C26.785 84.6327 26.8317 84.451 26.8296 84.2859C26.8615 84.2198 26.8276 84.1209 26.8107 84.0714C26.8086 83.9063 26.8066 83.7413 26.8045 83.5762C26.7876 83.5267 26.8194 83.4606 26.8025 83.4111C26.7835 83.1966 26.7646 82.9821 26.6799 82.7348C26.663 82.6853 26.663 82.6853 26.6461 82.6358C26.5783 82.438 26.5763 82.2729 26.5086 82.0751C26.4917 82.0256 26.4578 81.9267 26.4409 81.8772C26.3901 81.7288 26.3393 81.5804 26.2885 81.4321C26.2716 81.3826 26.2377 81.2837 26.2208 81.2342C26.17 81.0858 26.0536 80.9047 26.0028 80.7563C25.9859 80.7068 25.9689 80.6573 25.952 80.6079C25.8356 80.4267 25.7022 80.1961 25.5857 80.0149C25.5688 79.9654 25.5031 79.9327 25.4693 79.8337C25.3698 79.702 25.2533 79.5209 25.1538 79.3892C25.0712 79.3069 25.0543 79.2574 24.9717 79.1752C24.8722 79.0435 24.7896 78.9613 24.69 78.8295C24.6074 78.7473 24.5418 78.7145 24.5079 78.6156C24.4084 78.4839 24.2601 78.3689 24.1606 78.2372C24.078 78.1549 24.0124 78.1221 23.9785 78.0232C23.8133 77.8587 23.5825 77.6614 23.3516 77.4642C23.1377 77.3164 22.9068 77.1191 22.676 76.9218C22.6103 76.889 22.5446 76.8563 22.462 76.774C22.2481 76.6262 21.9685 76.4456 21.7376 76.2483C21.672 76.2156 21.5894 76.1333 21.5237 76.1005C21.2272 75.8705 20.8989 75.7066 20.5536 75.4932C20.5367 75.4437 20.4879 75.4604 20.471 75.411C19.9944 75.132 19.4522 74.8203 18.9268 74.558L18.8612 74.5253C18.1091 74.3959 17.518 74.1008 16.8783 73.8225L30.6176 56.8536C31.2574 57.132 31.8484 57.427 32.3906 57.7387C32.3906 57.7387 32.3906 57.7387 32.4563 57.7715C32.9985 58.0832 33.5239 58.3455 34.0005 58.6244L34.0661 58.6572C34.4114 58.8706 34.7397 59.0345 35.0363 59.2646C35.1019 59.2973 35.1845 59.3796 35.2502 59.4124C35.5298 59.593 35.7437 59.7408 35.9576 59.8886C36.0233 59.9214 36.0402 59.9708 36.1059 60.0036L36.1716 60.0364C36.3855 60.1842 36.6163 60.3815 36.8303 60.5293L36.8472 60.5787C37.0781 60.776 37.2432 60.9405 37.4572 61.0883C37.4572 61.0883 37.4741 61.1378 37.5228 61.1211C37.5885 61.1539 37.6054 61.2033 37.6711 61.2361C37.8194 61.3511 37.9189 61.4828 38.0671 61.5979C38.1497 61.6801 38.2154 61.7129 38.2493 61.8118C38.3488 61.9435 38.4483 62.0752 38.5796 62.1408C38.5966 62.1903 38.6622 62.223 38.6792 62.2725C38.6961 62.322 38.6961 62.322 38.7618 62.3547C38.8613 62.4865 38.9777 62.6676 39.0773 62.7993C39.0942 62.8488 39.1599 62.8816 39.1768 62.931C39.2932 63.1122 39.4266 63.3428 39.5431 63.524C39.56 63.5735 39.5769 63.6229 39.5769 63.6229C39.6934 63.8041 39.7441 63.9525 39.8119 64.1503C39.8288 64.1998 39.8626 64.2987 39.8796 64.3482C39.9304 64.4966 39.9811 64.645 40.0319 64.7933C40.1484 64.9745 40.1822 65.0734 40.1992 65.1229Z" fill="#21670D"/>
<path d="M79.6086 101.366C79.8415 101.728 80.1232 102.074 80.373 102.485C80.4068 102.584 80.4725 102.617 80.5064 102.716C80.7223 103.029 80.9552 103.391 81.1394 103.77C81.2389 103.902 81.2728 104.001 81.3723 104.133C81.6391 104.594 81.8889 105.006 82.1238 105.533L68.3676 122.452C68.1008 121.991 67.8828 121.513 67.6161 121.052C67.5165 120.92 67.4827 120.821 67.3832 120.69C67.1503 120.327 66.983 119.998 66.7501 119.635C66.7163 119.536 66.6506 119.504 66.6168 119.405C66.3669 118.993 66.134 118.631 65.8524 118.285C65.7698 118.203 65.7359 118.104 65.6533 118.022C65.4543 117.758 65.2553 117.495 65.0562 117.231C64.9736 117.149 64.9398 117.05 64.8572 116.968C64.692 116.803 64.5099 116.589 64.3934 116.408C64.3108 116.326 64.2939 116.277 64.2113 116.194C63.9635 115.948 63.7814 115.734 63.5505 115.536C63.5336 115.487 63.4849 115.504 63.4679 115.454C63.2202 115.207 62.9236 114.977 62.6271 114.747C62.5614 114.715 62.4788 114.632 62.4132 114.599C62.1993 114.452 61.9853 114.304 61.7714 114.156C61.7545 114.107 61.7057 114.123 61.6888 114.074C61.4749 113.926 61.2122 113.795 60.9665 113.713C60.9008 113.68 60.8351 113.648 60.7695 113.615C60.5894 113.566 60.4411 113.451 60.2611 113.402C60.1954 113.369 60.081 113.353 60.0153 113.32C59.8352 113.272 59.5895 113.19 59.4094 113.141C59.3438 113.108 59.2294 113.092 59.1806 113.109C58.8861 113.044 58.6573 113.012 58.3798 112.996C58.151 112.964 57.9391 112.981 57.7759 112.982C57.5153 113.016 57.2378 113 56.9772 113.034C56.8797 113.067 56.7165 113.068 56.6191 113.101C56.261 113.169 55.9516 113.219 55.5617 113.353C55.5129 113.369 55.4642 113.386 55.4642 113.386C55.0743 113.52 54.6844 113.653 54.2457 113.803C54.0995 113.853 54.002 113.886 53.8727 113.986C53.5972 114.136 53.2561 114.252 52.9806 114.402C52.8343 114.452 52.7051 114.551 52.527 114.668C52.2028 114.834 51.9442 115.033 51.62 115.199C51.4907 115.299 51.3445 115.349 51.2152 115.448C50.7786 115.763 50.325 116.029 49.8566 116.41L63.5959 99.4415C64.0813 99.1096 64.5179 98.7944 64.9545 98.4792C65.0838 98.3797 65.23 98.3297 65.3593 98.2302C65.6666 98.0145 65.9908 97.8483 66.2663 97.6987C66.3638 97.6653 66.3956 97.5992 66.4931 97.5658C66.5906 97.5325 66.6393 97.5158 66.7199 97.433C67.0441 97.2668 67.3196 97.1172 67.612 97.0171C67.7583 96.9671 67.8388 96.8843 67.985 96.8342C68.4068 96.6346 68.7967 96.5012 69.2035 96.4172C69.2522 96.4005 69.2522 96.4005 69.301 96.3839C69.6422 96.2671 70.0003 96.1998 70.3584 96.1325C70.4558 96.0991 70.619 96.0986 70.7165 96.0652C70.9771 96.0313 71.2377 95.9973 71.5152 96.0128C71.564 95.9962 71.6784 96.0123 71.7271 95.9956C71.8903 95.995 72.0047 96.0111 72.1191 96.0272C72.3966 96.0427 72.6742 96.0583 72.9687 96.1232C73.0174 96.1066 73.0174 96.1066 73.0831 96.1393C73.1318 96.1227 73.1975 96.1554 73.2144 96.2049C73.3945 96.2538 73.6233 96.286 73.8203 96.3843C73.886 96.4171 73.9347 96.4004 73.9516 96.4499L74.0173 96.4827C74.1974 96.5316 74.3944 96.6299 74.5257 96.6955C74.5914 96.7283 74.6401 96.7116 74.7058 96.7444C74.7058 96.7444 74.7058 96.7444 74.7714 96.7772C75.0341 96.9083 75.2311 97.0066 75.4938 97.1378L75.5594 97.1705C75.7734 97.3183 75.9873 97.4662 76.2012 97.614C76.2181 97.6634 76.2669 97.6467 76.2838 97.6962C76.3495 97.729 76.3664 97.7785 76.3664 97.7785C76.6629 98.0085 76.8938 98.2058 77.1903 98.4358L77.256 98.4686C77.4868 98.6659 77.7346 98.9126 77.9167 99.1266C77.9824 99.1593 78.0163 99.2583 78.0989 99.3405C78.264 99.505 78.4462 99.719 78.6283 99.9329C78.6452 99.9824 78.6939 99.9657 78.7109 100.015C78.7278 100.065 78.7935 100.097 78.8273 100.196C79.0264 100.46 79.2254 100.723 79.4245 100.987C79.4922 101.184 79.526 101.283 79.6086 101.366Z" fill="#21670D"/>
<path d="M54.6523 86.0362C54.7688 86.2174 54.8195 86.3657 54.936 86.5469C54.9868 86.6953 55.0863 86.827 55.154 87.0249C55.2217 87.2227 55.2894 87.4206 55.4059 87.6017C55.4567 87.7501 55.5244 87.948 55.5752 88.0963C55.6429 88.2942 55.7275 88.5415 55.7465 88.756C55.8142 88.9539 55.865 89.1023 55.884 89.3168C55.9199 89.5808 55.9876 89.7786 56.0235 90.0426C56.0424 90.2572 56.0932 90.4055 56.1122 90.6201C56.1481 90.8841 56.184 91.1481 56.1881 91.4782C56.2071 91.6927 56.2091 91.8578 56.2281 92.0723C56.2322 92.4025 56.2362 92.7326 56.2403 93.0627C56.2424 93.2278 56.2444 93.3929 56.2634 93.6074C56.2865 94.1521 56.2608 94.7134 56.2351 95.2747L42.5933 112.21C42.619 111.649 42.6446 111.088 42.6216 110.543C42.6195 110.378 42.6175 110.213 42.5985 109.998C42.5944 109.668 42.5734 109.288 42.5693 108.958C42.5503 108.744 42.5483 108.579 42.5293 108.364C42.4934 108.1 42.4893 107.77 42.4534 107.506C42.4345 107.292 42.3837 107.143 42.3647 106.929C42.3288 106.665 42.2929 106.401 42.2252 106.203C42.1575 106.005 42.1554 105.84 42.0877 105.642C42.02 105.444 41.9841 105.18 41.9164 104.982C41.8656 104.834 41.7979 104.636 41.7471 104.488C41.6794 104.29 41.6117 104.092 41.4953 103.911C41.4445 103.762 41.345 103.631 41.2772 103.433C41.1608 103.252 41.0931 103.054 40.9936 102.922C40.894 102.79 40.7945 102.659 40.7437 102.51C40.6273 102.329 40.5278 102.198 40.4282 102.066C40.3287 101.934 40.2292 101.802 40.0809 101.687C39.9814 101.556 39.8331 101.441 39.7336 101.309C39.5854 101.194 39.4202 101.029 39.2719 100.914C39.1893 100.832 39.1067 100.75 39.0411 100.717C38.8271 100.569 38.5963 100.372 38.3336 100.241C38.3167 100.191 38.2679 100.208 38.251 100.159C37.9714 99.9781 37.7087 99.847 37.3804 99.683C37.2003 99.6342 37.0033 99.5358 36.872 99.4703C36.6919 99.4214 36.5437 99.3063 36.3636 99.2575C36.2979 99.2247 36.2492 99.2414 36.1835 99.2086C35.889 99.1436 35.6433 99.0619 35.3488 98.9969C35.2344 98.9808 35.1688 98.9481 35.0544 98.9319C34.7599 98.867 34.5311 98.8348 34.2366 98.7698C34.1222 98.7537 34.0078 98.7376 33.8446 98.7381C33.4527 98.7065 32.9951 98.6421 32.5544 98.6272C32.1624 98.5955 31.7874 98.6134 31.3467 98.5984C31.2323 98.5823 31.1348 98.6157 30.9716 98.6163C30.6941 98.6008 30.3847 98.6514 30.1072 98.6358C29.9928 98.6197 29.8953 98.6531 29.7322 98.6537C29.3084 98.6882 28.8846 98.7227 28.4439 98.7078L42.1832 81.7389C42.607 81.7044 43.0308 81.6699 43.4545 81.6354C43.5689 81.6515 43.7152 81.6014 43.8296 81.6175C44.1071 81.6331 44.4165 81.5824 44.694 81.598C44.7428 81.5813 44.8572 81.5974 44.9059 81.5807C44.9546 81.564 45.0203 81.5968 45.0691 81.5801C45.5097 81.5951 45.8848 81.5772 46.2767 81.6089C46.7174 81.6238 47.1263 81.7049 47.567 81.7198C47.6814 81.7359 47.7958 81.752 47.959 81.7515C48.1878 81.7837 48.4166 81.8159 48.5967 81.8648C48.6623 81.8975 48.7111 81.8809 48.7767 81.9136C48.8911 81.9297 48.9568 81.9625 49.0712 81.9786C49.3657 82.0436 49.6602 82.1086 49.9059 82.1903C49.9716 82.223 50.0203 82.2064 50.086 82.2392L50.1516 82.2719C50.3317 82.3208 50.463 82.3864 50.5944 82.4519C50.7745 82.5008 50.9715 82.5992 51.1028 82.6647L51.1685 82.6975C51.4311 82.8287 51.6938 82.9598 51.9734 83.1404C51.9903 83.1898 52.0391 83.1732 52.056 83.2226C52.2699 83.3704 52.4669 83.4688 52.6321 83.6333C52.649 83.6827 52.6978 83.666 52.7147 83.7155C52.7973 83.7977 52.863 83.8305 52.9455 83.9128C53.0281 83.995 53.1595 84.0606 53.2421 84.1428C53.3077 84.1756 53.3247 84.2251 53.3903 84.2579C53.5386 84.3729 53.6381 84.5046 53.7376 84.6363C53.8202 84.7185 53.9028 84.8008 53.9685 84.8336C53.9854 84.883 54.0511 84.9158 54.068 84.9653C54.1675 85.097 54.284 85.2781 54.3835 85.4099C54.502 85.7561 54.6015 85.8878 54.6523 86.0362Z" fill="#21670D"/>
<path d="M56.3325 95.2413L42.5932 112.21C44.8807 113.803 47.2806 115.247 49.7929 116.543L63.5322 99.5738C61.0368 98.3281 58.6369 96.8839 56.3325 95.2413Z" fill="#348F9E"/>
<path d="M56.3323 95.2414L42.593 112.21C43.8766 113.097 45.2089 113.967 46.573 114.771L60.3123 97.8024C58.9482 96.9984 57.6328 96.1777 56.3323 95.2414Z" fill="#144A05"/>
<path d="M60.3122 97.8024L46.5729 114.771C47.6087 115.411 48.6763 115.985 49.7926 116.543L63.5319 99.5738C62.4156 99.0165 61.348 98.4425 60.3122 97.8024Z" fill="#144A05"/>
<path d="M131.158 54.7144C120.672 49.8488 118.716 44.7715 124.326 36.6629C122.91 34.2744 121.347 31.9358 119.624 29.763C118.14 29.8838 116.787 29.9051 115.562 29.8269C108.051 29.3583 105.146 25.3243 105.442 16.3266C103.155 14.7335 100.755 13.2894 98.2428 11.9942C95.0254 14.3662 92.2663 15.5315 89.7683 15.3918C86.0458 15.1738 82.8754 12.1147 79.6682 6.08435C78.2953 5.89113 76.8906 5.76404 75.4859 5.63696C74.0982 5.55934 72.6786 5.54787 71.3247 5.56918C69.3729 11.3207 66.861 14.0038 63.1384 13.7859C60.6404 13.6462 57.571 12.1549 53.784 9.36205C51.5122 10.3605 49.4056 11.5235 47.4155 12.8677C49.6658 21.9883 47.575 25.7429 40.0811 25.3238C38.8565 25.2456 37.4836 25.0524 35.9138 24.7608C34.6501 26.7957 33.5347 28.9456 32.665 31.1772C40.1169 40.0648 39.2481 45.0036 29.6675 48.6693C29.7008 50.0393 29.7828 51.3926 29.9136 52.7292C30.0613 54.1153 30.2577 55.4847 30.5516 56.8208C41.0373 61.6863 42.9927 66.7637 37.3828 74.8723C38.7992 77.2608 40.3618 79.5993 42.0855 81.7722C43.5687 81.6514 44.9226 81.6301 46.1472 81.7083C53.7236 82.2097 56.6457 86.2931 56.3323 95.2413C58.6199 96.8344 61.0198 98.2786 63.532 99.5737C66.7494 97.2018 69.5085 96.0365 72.0552 96.1595C75.7778 96.3774 78.9482 99.4366 82.1554 105.467C83.5283 105.66 84.9329 105.787 86.3376 105.914C87.7254 105.992 89.0962 106.02 90.4988 105.982C92.4507 100.231 94.9626 97.5475 98.6852 97.7654C101.183 97.9051 104.253 99.3964 108.04 102.189C110.263 101.207 112.418 100.028 114.408 98.6836C112.158 89.5629 114.249 85.8083 121.742 86.2275C122.967 86.3056 124.34 86.4989 125.91 86.7904C127.173 84.7555 128.289 82.6056 129.159 80.374C121.707 71.4864 122.575 66.5476 132.156 62.882C132.123 61.512 132.041 60.1587 131.91 58.822C131.648 57.4198 131.451 56.0504 131.158 54.7144ZM108.73 56.4776C110.892 71.7063 100.192 83.7122 84.8668 83.3208C84.5405 83.322 84.1973 83.2737 83.871 83.2748C68.9151 82.3704 55.2525 69.9722 53.0939 55.0736C50.9311 39.8449 61.632 27.8391 76.9568 28.2305C77.2831 28.2293 77.6263 28.2776 77.9526 28.2764C92.9085 29.1809 106.588 41.6285 108.73 56.4776Z" fill="#144A05"/>
<path d="M82.1066 105.484L68.3673 122.452C69.7402 122.646 71.1449 122.773 72.5495 122.9C73.9373 122.977 75.3081 123.006 76.7107 122.968L90.45 105.999C89.0961 106.02 87.7253 105.992 86.2888 105.931C84.9011 105.853 83.4795 105.677 82.1066 105.484Z" fill="#348F9E"/>
<path d="M82.1065 105.484L68.3672 122.452C69.74 122.646 71.1447 122.773 72.5494 122.9C73.4308 122.93 74.3122 122.96 75.1766 122.94L88.9159 105.971C88.0515 105.991 87.1701 105.961 86.2718 105.882C84.9009 105.853 83.4793 105.677 82.1065 105.484Z" fill="#144A05"/>
<path d="M88.9162 105.971L75.1769 122.94C75.6663 122.938 76.2214 122.969 76.7109 122.968L90.4502 105.999C89.912 106.017 89.4226 106.019 88.9162 105.971Z" fill="#144A05"/>
</g>
</g>
<defs>
<clipPath id="clip0">
<rect width="252" height="160" fill="white"/>
</clipPath>
<clipPath id="clip1">
<rect width="165" height="117" transform="matrix(0.946126 -0.323799 -0.323799 -0.946126 38.8843 138.124)" fill="white"/>
</clipPath>
</defs>
</svg>
