<svg width="20" height="20" viewBox="0 0 20 20" fill="none" xmlns="http://www.w3.org/2000/svg">
<path fill-rule="evenodd" clip-rule="evenodd" d="M20 10C20 12.6522 18.9464 15.1957 17.0711 17.0711C15.1957 18.9464 12.6522 20 10 20C7.34784 20 4.8043 18.9464 2.92893 17.0711C1.05357 15.1957 0 12.6522 0 10C0 7.34784 1.05357 4.8043 2.92893 2.92893C4.8043 1.05357 7.34784 0 10 0C12.6522 0 15.1957 1.05357 17.0711 2.92893C18.9464 4.8043 20 7.34784 20 10ZM9.5575 13.3075C9.44014 13.4249 9.37421 13.584 9.37421 13.75C9.37421 13.916 9.44014 14.0751 9.5575 14.1925C9.67486 14.3099 9.83403 14.3758 10 14.3758C10.166 14.3758 10.3251 14.3099 10.4425 14.1925L14.1925 10.4425C14.2507 10.3844 14.2969 10.3155 14.3284 10.2395C14.3599 10.1636 14.3761 10.0822 14.3761 10C14.3761 9.91779 14.3599 9.83639 14.3284 9.76046C14.2969 9.68453 14.2507 9.61556 14.1925 9.5575L10.4425 5.8075C10.3844 5.74939 10.3154 5.70329 10.2395 5.67185C10.1636 5.6404 10.0822 5.62421 10 5.62421C9.91782 5.62421 9.83644 5.6404 9.76052 5.67185C9.6846 5.70329 9.61561 5.74939 9.5575 5.8075C9.49939 5.86561 9.45329 5.9346 9.42185 6.01052C9.3904 6.08644 9.37421 6.16782 9.37421 6.25C9.37421 6.33218 9.3904 6.41356 9.42185 6.48948C9.45329 6.5654 9.49939 6.63439 9.5575 6.6925L12.2413 9.375H6.25C6.08424 9.375 5.92527 9.44085 5.80806 9.55806C5.69085 9.67527 5.625 9.83424 5.625 10C5.625 10.1658 5.69085 10.3247 5.80806 10.4419C5.92527 10.5592 6.08424 10.625 6.25 10.625H12.2413L9.5575 13.3075Z" fill="white"/>
</svg>
